G75*
G70*
%OFA0B0*%
%FSLAX24Y24*%
%IPPOS*%
%LPD*%
%AMOC8*
5,1,8,0,0,1.08239X$1,22.5*
%
%ADD10C,0.0390*%
%ADD11C,0.0470*%
%ADD12C,0.1015*%
D10*
X002600Y002850D03*
X003100Y002850D03*
X003600Y002850D03*
X004100Y002850D03*
X004600Y002850D03*
X004600Y003350D03*
X004100Y003350D03*
X003600Y003350D03*
X003100Y003350D03*
X002600Y003350D03*
X002600Y007850D03*
X003100Y007850D03*
X003600Y007850D03*
X004100Y007850D03*
X004600Y007850D03*
X004600Y008350D03*
X004100Y008350D03*
X003600Y008350D03*
X003100Y008350D03*
X002600Y008350D03*
X008600Y008350D03*
X009100Y008350D03*
X009600Y008350D03*
X009600Y007850D03*
X009100Y007850D03*
X008600Y007850D03*
X008600Y003350D03*
X009100Y003350D03*
X009600Y003350D03*
X009600Y002850D03*
X009100Y002850D03*
X008600Y002850D03*
D11*
X008100Y003100D03*
X010100Y002700D03*
X010100Y003500D03*
X005100Y003500D03*
X005100Y002700D03*
X002100Y003100D03*
X005100Y007700D03*
X005100Y008500D03*
X002100Y008100D03*
X008100Y008100D03*
X010100Y007700D03*
X010100Y008500D03*
D12*
X002100Y002100D03*
X004350Y002100D03*
X004350Y004100D03*
X002100Y004100D03*
X008100Y004100D03*
X009350Y004100D03*
X009350Y002100D03*
X008100Y002100D03*
M02*
