G04 start of page 11 for group -3984 idx -3984 *
G04 Title: (unknown), fab *
G04 Creator: pcb 20100929 *
G04 CreationDate: Sun 02 Oct 2011 19:41:43 GMT UTC *
G04 For: rudolf *
G04 Format: Gerber/RS-274X *
G04 PCB-Dimensions: 29501 32001 *
G04 PCB-Coordinate-Origin: lower left *
%MOIN*%
%FSLAX25Y25*%
%LNFAB*%
%ADD16C,0.0100*%
%ADD17C,0.0080*%
%ADD18C,0.0060*%
G54D17*X6000Y27601D02*Y24401D01*
X4400Y26001D02*X7600D01*
X18500Y27601D02*Y24401D01*
X16900Y26001D02*X20100D01*
X6000Y7601D02*Y4401D01*
X4400Y6001D02*X7600D01*
X18500Y7601D02*Y4401D01*
X16900Y6001D02*X20100D01*
X15000Y74851D02*Y71651D01*
X13400Y73251D02*X16600D01*
G54D18*X140000Y75501D02*Y69501D01*
Y75501D02*Y74751D01*
X143750Y71001D01*
Y75501D02*Y69501D01*
X145551Y74751D02*Y70251D01*
Y74751D02*X146301Y75501D01*
X147801D01*
X148551Y74751D01*
Y70251D01*
X147801Y69501D02*X148551Y70251D01*
X146301Y69501D02*X147801D01*
X145551Y70251D02*X146301Y69501D01*
X140000Y67750D02*X150353D01*
X98000Y72501D02*X101000Y75501D01*
X98000Y72501D02*X101750D01*
X101000Y75501D02*Y69501D01*
X98000Y67750D02*X103551D01*
X45000Y70251D02*X45750Y69501D01*
X45000Y74751D02*Y70251D01*
Y74751D02*X45750Y75501D01*
X47250D01*
X48000Y74751D01*
Y70251D01*
X47250Y69501D02*X48000Y70251D01*
X45750Y69501D02*X47250D01*
X45000Y71001D02*X48000Y74001D01*
X49801Y69501D02*X50551D01*
X52353Y70251D02*X53103Y69501D01*
X52353Y74751D02*Y70251D01*
Y74751D02*X53103Y75501D01*
X54603D01*
X55353Y74751D01*
Y70251D01*
X54603Y69501D02*X55353Y70251D01*
X53103Y69501D02*X54603D01*
X52353Y71001D02*X55353Y74001D01*
X57154Y69501D02*X60154Y72501D01*
Y74751D02*Y72501D01*
X59404Y75501D02*X60154Y74751D01*
X57904Y75501D02*X59404D01*
X57154Y74751D02*X57904Y75501D01*
X57154Y74751D02*Y73251D01*
X57904Y72501D01*
X60154D01*
X61956D02*X64956Y75501D01*
X61956Y72501D02*X65706D01*
X64956Y75501D02*Y69501D01*
X45000Y67750D02*X67507D01*
X6000Y16001D02*Y14401D01*
Y16001D02*X7386Y16801D01*
X6000Y16001D02*X4614Y16801D01*
X26000Y12001D02*Y10401D01*
Y12001D02*X27386Y12801D01*
X26000Y12001D02*X24614Y12801D01*
X26000Y20001D02*Y18401D01*
Y20001D02*X27386Y20801D01*
X26000Y20001D02*X24614Y20801D01*
X15000Y88251D02*Y86651D01*
Y88251D02*X16386Y89051D01*
X15000Y88251D02*X13614Y89051D01*
X140000Y90501D02*Y84501D01*
Y90501D02*Y89751D01*
X143750Y86001D01*
Y90501D02*Y84501D01*
X145551Y89751D02*Y85251D01*
Y89751D02*X146301Y90501D01*
X147801D01*
X148551Y89751D01*
Y85251D01*
X147801Y84501D02*X148551Y85251D01*
X146301Y84501D02*X147801D01*
X145551Y85251D02*X146301Y84501D01*
X140000Y82750D02*X150353D01*
X98000Y89751D02*X98750Y90501D01*
X100250D01*
X101000Y89751D01*
Y85251D01*
X100250Y84501D02*X101000Y85251D01*
X98750Y84501D02*X100250D01*
X98000Y85251D02*X98750Y84501D01*
Y87501D02*X101000D01*
X98000Y82750D02*X102801D01*
X45000Y85251D02*X45750Y84501D01*
X45000Y89751D02*Y85251D01*
Y89751D02*X45750Y90501D01*
X47250D01*
X48000Y89751D01*
Y85251D01*
X47250Y84501D02*X48000Y85251D01*
X45750Y84501D02*X47250D01*
X45000Y86001D02*X48000Y89001D01*
X49801Y84501D02*X50551D01*
X52353Y85251D02*X53103Y84501D01*
X52353Y89751D02*Y85251D01*
Y89751D02*X53103Y90501D01*
X54603D01*
X55353Y89751D01*
Y85251D01*
X54603Y84501D02*X55353Y85251D01*
X53103Y84501D02*X54603D01*
X52353Y86001D02*X55353Y89001D01*
X57154Y89751D02*X57904Y90501D01*
X59404D01*
X60154Y89751D01*
Y85251D01*
X59404Y84501D02*X60154Y85251D01*
X57904Y84501D02*X59404D01*
X57154Y85251D02*X57904Y84501D01*
Y87501D02*X60154D01*
X61956Y84501D02*X64956Y87501D01*
Y89751D02*Y87501D01*
X64206Y90501D02*X64956Y89751D01*
X62706Y90501D02*X64206D01*
X61956Y89751D02*X62706Y90501D01*
X61956Y89751D02*Y88251D01*
X62706Y87501D01*
X64956D01*
X45000Y82750D02*X66757D01*
X3000Y105501D02*X3750Y104751D01*
X750Y105501D02*X3000D01*
X0Y104751D02*X750Y105501D01*
X0Y104751D02*Y103251D01*
X750Y102501D01*
X3000D01*
X3750Y101751D01*
Y100251D01*
X3000Y99501D02*X3750Y100251D01*
X750Y99501D02*X3000D01*
X0Y100251D02*X750Y99501D01*
X5551Y102501D02*Y100251D01*
X6301Y99501D01*
X8551Y102501D02*Y98001D01*
X7801Y97251D02*X8551Y98001D01*
X6301Y97251D02*X7801D01*
X5551Y98001D02*X6301Y97251D01*
Y99501D02*X7801D01*
X8551Y100251D01*
X11103Y101751D02*Y99501D01*
Y101751D02*X11853Y102501D01*
X12603D01*
X13353Y101751D01*
Y99501D01*
Y101751D02*X14103Y102501D01*
X14853D01*
X15603Y101751D01*
Y99501D01*
X10353Y102501D02*X11103Y101751D01*
X17404Y105501D02*Y99501D01*
Y100251D02*X18154Y99501D01*
X19654D01*
X20404Y100251D01*
Y101751D02*Y100251D01*
X19654Y102501D02*X20404Y101751D01*
X18154Y102501D02*X19654D01*
X17404Y101751D02*X18154Y102501D01*
X22206Y101751D02*Y100251D01*
Y101751D02*X22956Y102501D01*
X24456D01*
X25206Y101751D01*
Y100251D01*
X24456Y99501D02*X25206Y100251D01*
X22956Y99501D02*X24456D01*
X22206Y100251D02*X22956Y99501D01*
X27007Y105501D02*Y100251D01*
X27757Y99501D01*
X41750Y105501D02*Y99501D01*
X44000Y105501D02*X44750Y104751D01*
Y100251D01*
X44000Y99501D02*X44750Y100251D01*
X41000Y99501D02*X44000D01*
X41000Y105501D02*X44000D01*
X46551Y104001D02*Y103251D01*
Y101751D02*Y99501D01*
X50303Y102501D02*X51053Y101751D01*
X48803Y102501D02*X50303D01*
X48053Y101751D02*X48803Y102501D01*
X48053Y101751D02*Y100251D01*
X48803Y99501D01*
X51053Y102501D02*Y100251D01*
X51803Y99501D01*
X48803D02*X50303D01*
X51053Y100251D01*
X54354Y101751D02*Y99501D01*
Y101751D02*X55104Y102501D01*
X55854D01*
X56604Y101751D01*
Y99501D01*
Y101751D02*X57354Y102501D01*
X58104D01*
X58854Y101751D01*
Y99501D01*
X53604Y102501D02*X54354Y101751D01*
X60656Y99501D02*X61406D01*
X65907Y100251D02*X66657Y99501D01*
X65907Y104751D02*X66657Y105501D01*
X65907Y104751D02*Y100251D01*
X68459Y105501D02*X69959D01*
X69209D02*Y99501D01*
X68459D02*X69959D01*
X72510Y101751D02*Y99501D01*
Y101751D02*X73260Y102501D01*
X74010D01*
X74760Y101751D01*
Y99501D01*
X71760Y102501D02*X72510Y101751D01*
X77312Y102501D02*X79562D01*
X76562Y101751D02*X77312Y102501D01*
X76562Y101751D02*Y100251D01*
X77312Y99501D01*
X79562D01*
X81363Y105501D02*Y99501D01*
Y101751D02*X82113Y102501D01*
X83613D01*
X84363Y101751D01*
Y99501D01*
X86165Y105501D02*X86915Y104751D01*
Y100251D01*
X86165Y99501D02*X86915Y100251D01*
X95750Y99501D02*X98000D01*
X95000Y100251D02*X95750Y99501D01*
X95000Y104751D02*Y100251D01*
Y104751D02*X95750Y105501D01*
X98000D01*
X99801Y101751D02*Y100251D01*
Y101751D02*X100551Y102501D01*
X102051D01*
X102801Y101751D01*
Y100251D01*
X102051Y99501D02*X102801Y100251D01*
X100551Y99501D02*X102051D01*
X99801Y100251D02*X100551Y99501D01*
X104603Y102501D02*Y100251D01*
X105353Y99501D01*
X106853D01*
X107603Y100251D01*
Y102501D02*Y100251D01*
X110154Y101751D02*Y99501D01*
Y101751D02*X110904Y102501D01*
X111654D01*
X112404Y101751D01*
Y99501D01*
X109404Y102501D02*X110154Y101751D01*
X114956Y105501D02*Y100251D01*
X115706Y99501D01*
X114206Y103251D02*X115706D01*
X130750Y105501D02*Y99501D01*
X130000Y105501D02*X133000D01*
X133750Y104751D01*
Y103251D01*
X133000Y102501D02*X133750Y103251D01*
X130750Y102501D02*X133000D01*
X135551Y105501D02*Y100251D01*
X136301Y99501D01*
X140053Y102501D02*X140803Y101751D01*
X138553Y102501D02*X140053D01*
X137803Y101751D02*X138553Y102501D01*
X137803Y101751D02*Y100251D01*
X138553Y99501D01*
X140803Y102501D02*Y100251D01*
X141553Y99501D01*
X138553D02*X140053D01*
X140803Y100251D01*
X144104Y105501D02*Y100251D01*
X144854Y99501D01*
X143354Y103251D02*X144854D01*
X147106Y99501D02*X149356D01*
X146356Y100251D02*X147106Y99501D01*
X146356Y101751D02*Y100251D01*
Y101751D02*X147106Y102501D01*
X148606D01*
X149356Y101751D01*
X146356Y101001D02*X149356D01*
Y101751D02*Y101001D01*
X154157Y105501D02*Y99501D01*
X153407D02*X154157Y100251D01*
X151907Y99501D02*X153407D01*
X151157Y100251D02*X151907Y99501D01*
X151157Y101751D02*Y100251D01*
Y101751D02*X151907Y102501D01*
X153407D01*
X154157Y101751D01*
X157459Y102501D02*Y101751D01*
Y100251D02*Y99501D01*
X155959Y104751D02*Y104001D01*
Y104751D02*X156709Y105501D01*
X158209D01*
X158959Y104751D01*
Y104001D01*
X157459Y102501D02*X158959Y104001D01*
X0Y120501D02*X3000D01*
X1500D02*Y114501D01*
X4801Y120501D02*Y114501D01*
Y116751D02*X5551Y117501D01*
X7051D01*
X7801Y116751D01*
Y114501D01*
X10353D02*X12603D01*
X9603Y115251D02*X10353Y114501D01*
X9603Y116751D02*Y115251D01*
Y116751D02*X10353Y117501D01*
X11853D01*
X12603Y116751D01*
X9603Y116001D02*X12603D01*
Y116751D02*Y116001D01*
X15154Y116751D02*Y114501D01*
Y116751D02*X15904Y117501D01*
X17404D01*
X14404D02*X15154Y116751D01*
X19956Y114501D02*X22206D01*
X19206Y115251D02*X19956Y114501D01*
X19206Y116751D02*Y115251D01*
Y116751D02*X19956Y117501D01*
X21456D01*
X22206Y116751D01*
X19206Y116001D02*X22206D01*
Y116751D02*Y116001D01*
X28957Y117501D02*X29707Y116751D01*
X27457Y117501D02*X28957D01*
X26707Y116751D02*X27457Y117501D01*
X26707Y116751D02*Y115251D01*
X27457Y114501D01*
X29707Y117501D02*Y115251D01*
X30457Y114501D01*
X27457D02*X28957D01*
X29707Y115251D01*
X33009Y116751D02*Y114501D01*
Y116751D02*X33759Y117501D01*
X35259D01*
X32259D02*X33009Y116751D01*
X37810Y114501D02*X40060D01*
X37060Y115251D02*X37810Y114501D01*
X37060Y116751D02*Y115251D01*
Y116751D02*X37810Y117501D01*
X39310D01*
X40060Y116751D01*
X37060Y116001D02*X40060D01*
Y116751D02*Y116001D01*
X44562Y119751D02*X45312Y120501D01*
X47562D01*
X48312Y119751D01*
Y118251D01*
X44562Y114501D02*X48312Y118251D01*
X44562Y114501D02*X48312D01*
X55813Y120501D02*Y114501D01*
X55063D02*X55813Y115251D01*
X53563Y114501D02*X55063D01*
X52813Y115251D02*X53563Y114501D01*
X52813Y116751D02*Y115251D01*
Y116751D02*X53563Y117501D01*
X55063D01*
X55813Y116751D01*
X57615Y119001D02*Y118251D01*
Y116751D02*Y114501D01*
X59866Y119751D02*Y114501D01*
Y119751D02*X60616Y120501D01*
X61366D01*
X59116Y117501D02*X60616D01*
X63618Y119751D02*Y114501D01*
Y119751D02*X64368Y120501D01*
X65118D01*
X62868Y117501D02*X64368D01*
X67369Y114501D02*X69619D01*
X66619Y115251D02*X67369Y114501D01*
X66619Y116751D02*Y115251D01*
Y116751D02*X67369Y117501D01*
X68869D01*
X69619Y116751D01*
X66619Y116001D02*X69619D01*
Y116751D02*Y116001D01*
X72171Y116751D02*Y114501D01*
Y116751D02*X72921Y117501D01*
X74421D01*
X71421D02*X72171Y116751D01*
X76972Y114501D02*X79222D01*
X76222Y115251D02*X76972Y114501D01*
X76222Y116751D02*Y115251D01*
Y116751D02*X76972Y117501D01*
X78472D01*
X79222Y116751D01*
X76222Y116001D02*X79222D01*
Y116751D02*Y116001D01*
X81774Y116751D02*Y114501D01*
Y116751D02*X82524Y117501D01*
X83274D01*
X84024Y116751D01*
Y114501D01*
X81024Y117501D02*X81774Y116751D01*
X86575Y120501D02*Y115251D01*
X87325Y114501D01*
X85825Y118251D02*X87325D01*
X94527Y120501D02*Y114501D01*
X93777D02*X94527Y115251D01*
X92277Y114501D02*X93777D01*
X91527Y115251D02*X92277Y114501D01*
X91527Y116751D02*Y115251D01*
Y116751D02*X92277Y117501D01*
X93777D01*
X94527Y116751D01*
X97078D02*Y114501D01*
Y116751D02*X97828Y117501D01*
X99328D01*
X96328D02*X97078Y116751D01*
X101130Y119001D02*Y118251D01*
Y116751D02*Y114501D01*
X102631Y120501D02*Y115251D01*
X103381Y114501D01*
X104883Y120501D02*Y115251D01*
X105633Y114501D01*
X110584D02*X112834D01*
X113584Y115251D01*
X112834Y116001D02*X113584Y115251D01*
X110584Y116001D02*X112834D01*
X109834Y116751D02*X110584Y116001D01*
X109834Y116751D02*X110584Y117501D01*
X112834D01*
X113584Y116751D01*
X109834Y115251D02*X110584Y114501D01*
X115386Y119001D02*Y118251D01*
Y116751D02*Y114501D01*
X116887Y117501D02*X119887D01*
X116887Y114501D02*X119887Y117501D01*
X116887Y114501D02*X119887D01*
X122439D02*X124689D01*
X121689Y115251D02*X122439Y114501D01*
X121689Y116751D02*Y115251D01*
Y116751D02*X122439Y117501D01*
X123939D01*
X124689Y116751D01*
X121689Y116001D02*X124689D01*
Y116751D02*Y116001D01*
X127240Y114501D02*X129490D01*
X130240Y115251D01*
X129490Y116001D02*X130240Y115251D01*
X127240Y116001D02*X129490D01*
X126490Y116751D02*X127240Y116001D01*
X126490Y116751D02*X127240Y117501D01*
X129490D01*
X130240Y116751D01*
X126490Y115251D02*X127240Y114501D01*
X134742Y117501D02*Y115251D01*
X135492Y114501D01*
X136992D01*
X137742Y115251D01*
Y117501D02*Y115251D01*
X140293Y114501D02*X142543D01*
X143293Y115251D01*
X142543Y116001D02*X143293Y115251D01*
X140293Y116001D02*X142543D01*
X139543Y116751D02*X140293Y116001D01*
X139543Y116751D02*X140293Y117501D01*
X142543D01*
X143293Y116751D01*
X139543Y115251D02*X140293Y114501D01*
X145845D02*X148095D01*
X145095Y115251D02*X145845Y114501D01*
X145095Y116751D02*Y115251D01*
Y116751D02*X145845Y117501D01*
X147345D01*
X148095Y116751D01*
X145095Y116001D02*X148095D01*
Y116751D02*Y116001D01*
X152896Y120501D02*Y114501D01*
X152146D02*X152896Y115251D01*
X150646Y114501D02*X152146D01*
X149896Y115251D02*X150646Y114501D01*
X149896Y116751D02*Y115251D01*
Y116751D02*X150646Y117501D01*
X152146D01*
X152896Y116751D01*
X157398Y119001D02*Y118251D01*
Y116751D02*Y114501D01*
X159649Y116751D02*Y114501D01*
Y116751D02*X160399Y117501D01*
X161149D01*
X161899Y116751D01*
Y114501D01*
X158899Y117501D02*X159649Y116751D01*
X167151Y120501D02*Y115251D01*
X167901Y114501D01*
X166401Y118251D02*X167901D01*
X169402Y120501D02*Y114501D01*
Y116751D02*X170152Y117501D01*
X171652D01*
X172402Y116751D01*
Y114501D01*
X174204Y119001D02*Y118251D01*
Y116751D02*Y114501D01*
X176455D02*X178705D01*
X179455Y115251D01*
X178705Y116001D02*X179455Y115251D01*
X176455Y116001D02*X178705D01*
X175705Y116751D02*X176455Y116001D01*
X175705Y116751D02*X176455Y117501D01*
X178705D01*
X179455Y116751D01*
X175705Y115251D02*X176455Y114501D01*
X183957Y120501D02*Y115251D01*
X184707Y114501D01*
X188458Y117501D02*X189208Y116751D01*
X186958Y117501D02*X188458D01*
X186208Y116751D02*X186958Y117501D01*
X186208Y116751D02*Y115251D01*
X186958Y114501D01*
X189208Y117501D02*Y115251D01*
X189958Y114501D01*
X186958D02*X188458D01*
X189208Y115251D01*
X191760Y117501D02*Y115251D01*
X192510Y114501D01*
X194760Y117501D02*Y113001D01*
X194010Y112251D02*X194760Y113001D01*
X192510Y112251D02*X194010D01*
X191760Y113001D02*X192510Y112251D01*
Y114501D02*X194010D01*
X194760Y115251D01*
X196561Y116751D02*Y115251D01*
Y116751D02*X197311Y117501D01*
X198811D01*
X199561Y116751D01*
Y115251D01*
X198811Y114501D02*X199561Y115251D01*
X197311Y114501D02*X198811D01*
X196561Y115251D02*X197311Y114501D01*
X201363Y117501D02*Y115251D01*
X202113Y114501D01*
X203613D01*
X204363Y115251D01*
Y117501D02*Y115251D01*
X206914Y120501D02*Y115251D01*
X207664Y114501D01*
X206164Y118251D02*X207664D01*
X209166Y113001D02*X210666Y114501D01*
X215167D02*X218917Y118251D01*
Y120501D02*Y118251D01*
X215167Y120501D02*X218917D01*
X223419D02*Y114501D01*
Y116751D02*X224169Y117501D01*
X225669D01*
X226419Y116751D01*
Y114501D01*
X228220Y116751D02*Y115251D01*
Y116751D02*X228970Y117501D01*
X230470D01*
X231220Y116751D01*
Y115251D01*
X230470Y114501D02*X231220Y115251D01*
X228970Y114501D02*X230470D01*
X228220Y115251D02*X228970Y114501D01*
X233022Y120501D02*Y115251D01*
X233772Y114501D01*
X236023D02*X238273D01*
X235273Y115251D02*X236023Y114501D01*
X235273Y116751D02*Y115251D01*
Y116751D02*X236023Y117501D01*
X237523D01*
X238273Y116751D01*
X235273Y116001D02*X238273D01*
Y116751D02*Y116001D01*
X240825Y114501D02*X243075D01*
X243825Y115251D01*
X243075Y116001D02*X243825Y115251D01*
X240825Y116001D02*X243075D01*
X240075Y116751D02*X240825Y116001D01*
X240075Y116751D02*X240825Y117501D01*
X243075D01*
X243825Y116751D01*
X240075Y115251D02*X240825Y114501D01*
X249076Y120501D02*Y115251D01*
X249826Y114501D01*
X248326Y118251D02*X249826D01*
X251328Y116751D02*Y115251D01*
Y116751D02*X252078Y117501D01*
X253578D01*
X254328Y116751D01*
Y115251D01*
X253578Y114501D02*X254328Y115251D01*
X252078Y114501D02*X253578D01*
X251328Y115251D02*X252078Y114501D01*
X256879Y120501D02*Y115251D01*
X257629Y114501D01*
X256129Y118251D02*X257629D01*
X261381Y117501D02*X262131Y116751D01*
X259881Y117501D02*X261381D01*
X259131Y116751D02*X259881Y117501D01*
X259131Y116751D02*Y115251D01*
X259881Y114501D01*
X262131Y117501D02*Y115251D01*
X262881Y114501D01*
X259881D02*X261381D01*
X262131Y115251D01*
X264682Y120501D02*Y115251D01*
X265432Y114501D01*
G54D16*X0Y32001D02*X29501D01*
X0D02*Y0D01*
X29501Y32001D02*Y0D01*
X0D02*X29501D01*
G54D18*X200000Y45501D02*Y39501D01*
Y45501D02*X202250Y43251D01*
X204500Y45501D01*
Y39501D01*
X208551Y42501D02*X209301Y41751D01*
X207051Y42501D02*X208551D01*
X206301Y41751D02*X207051Y42501D01*
X206301Y41751D02*Y40251D01*
X207051Y39501D01*
X209301Y42501D02*Y40251D01*
X210051Y39501D01*
X207051D02*X208551D01*
X209301Y40251D01*
X211853Y42501D02*X214853Y39501D01*
X211853D02*X214853Y42501D01*
X216654Y44001D02*Y43251D01*
Y41751D02*Y39501D01*
X218906Y41751D02*Y39501D01*
Y41751D02*X219656Y42501D01*
X220406D01*
X221156Y41751D01*
Y39501D01*
Y41751D02*X221906Y42501D01*
X222656D01*
X223406Y41751D01*
Y39501D01*
X218156Y42501D02*X218906Y41751D01*
X225207Y42501D02*Y40251D01*
X225957Y39501D01*
X227457D01*
X228207Y40251D01*
Y42501D02*Y40251D01*
X230759Y41751D02*Y39501D01*
Y41751D02*X231509Y42501D01*
X232259D01*
X233009Y41751D01*
Y39501D01*
Y41751D02*X233759Y42501D01*
X234509D01*
X235259Y41751D01*
Y39501D01*
X230009Y42501D02*X230759Y41751D01*
X240510Y45501D02*Y39501D01*
X242760Y45501D02*X243510Y44751D01*
Y40251D01*
X242760Y39501D02*X243510Y40251D01*
X239760Y39501D02*X242760D01*
X239760Y45501D02*X242760D01*
X245312Y44001D02*Y43251D01*
Y41751D02*Y39501D01*
X247563Y41751D02*Y39501D01*
Y41751D02*X248313Y42501D01*
X249063D01*
X249813Y41751D01*
Y39501D01*
Y41751D02*X250563Y42501D01*
X251313D01*
X252063Y41751D01*
Y39501D01*
X246813Y42501D02*X247563Y41751D01*
X254615Y39501D02*X256865D01*
X253865Y40251D02*X254615Y39501D01*
X253865Y41751D02*Y40251D01*
Y41751D02*X254615Y42501D01*
X256115D01*
X256865Y41751D01*
X253865Y41001D02*X256865D01*
Y41751D02*Y41001D01*
X259416Y41751D02*Y39501D01*
Y41751D02*X260166Y42501D01*
X260916D01*
X261666Y41751D01*
Y39501D01*
X258666Y42501D02*X259416Y41751D01*
X264218Y39501D02*X266468D01*
X267218Y40251D01*
X266468Y41001D02*X267218Y40251D01*
X264218Y41001D02*X266468D01*
X263468Y41751D02*X264218Y41001D01*
X263468Y41751D02*X264218Y42501D01*
X266468D01*
X267218Y41751D01*
X263468Y40251D02*X264218Y39501D01*
X269019Y44001D02*Y43251D01*
Y41751D02*Y39501D01*
X270521Y41751D02*Y40251D01*
Y41751D02*X271271Y42501D01*
X272771D01*
X273521Y41751D01*
Y40251D01*
X272771Y39501D02*X273521Y40251D01*
X271271Y39501D02*X272771D01*
X270521Y40251D02*X271271Y39501D01*
X276072Y41751D02*Y39501D01*
Y41751D02*X276822Y42501D01*
X277572D01*
X278322Y41751D01*
Y39501D01*
X275322Y42501D02*X276072Y41751D01*
X280874Y39501D02*X283124D01*
X283874Y40251D01*
X283124Y41001D02*X283874Y40251D01*
X280874Y41001D02*X283124D01*
X280124Y41751D02*X280874Y41001D01*
X280124Y41751D02*X280874Y42501D01*
X283124D01*
X283874Y41751D01*
X280124Y40251D02*X280874Y39501D01*
X285675Y43251D02*X286425D01*
X285675Y41751D02*X286425D01*
X290927Y44751D02*X291677Y45501D01*
X293927D01*
X294677Y44751D01*
Y43251D01*
X290927Y39501D02*X294677Y43251D01*
X290927Y39501D02*X294677D01*
X296478D02*X299478Y42501D01*
Y44751D02*Y42501D01*
X298728Y45501D02*X299478Y44751D01*
X297228Y45501D02*X298728D01*
X296478Y44751D02*X297228Y45501D01*
X296478Y44751D02*Y43251D01*
X297228Y42501D01*
X299478D01*
X301280Y45501D02*X304280D01*
X301280D02*Y42501D01*
X302030Y43251D01*
X303530D01*
X304280Y42501D01*
Y40251D01*
X303530Y39501D02*X304280Y40251D01*
X302030Y39501D02*X303530D01*
X301280Y40251D02*X302030Y39501D01*
X309531Y41751D02*Y39501D01*
Y41751D02*X310281Y42501D01*
X311031D01*
X311781Y41751D01*
Y39501D01*
Y41751D02*X312531Y42501D01*
X313281D01*
X314031Y41751D01*
Y39501D01*
X308781Y42501D02*X309531Y41751D01*
X315833Y44001D02*Y43251D01*
Y41751D02*Y39501D01*
X317334Y45501D02*Y40251D01*
X318084Y39501D01*
X320336D02*X322586D01*
X323336Y40251D01*
X322586Y41001D02*X323336Y40251D01*
X320336Y41001D02*X322586D01*
X319586Y41751D02*X320336Y41001D01*
X319586Y41751D02*X320336Y42501D01*
X322586D01*
X323336Y41751D01*
X319586Y40251D02*X320336Y39501D01*
X327837Y42501D02*Y40251D01*
X328587Y39501D01*
X329337D01*
X330087Y40251D01*
Y42501D02*Y40251D01*
X330837Y39501D01*
X331587D01*
X332337Y40251D01*
Y42501D02*Y40251D01*
X334139Y44001D02*Y43251D01*
Y41751D02*Y39501D01*
X338640Y45501D02*Y39501D01*
X337890D02*X338640Y40251D01*
X336390Y39501D02*X337890D01*
X335640Y40251D02*X336390Y39501D01*
X335640Y41751D02*Y40251D01*
Y41751D02*X336390Y42501D01*
X337890D01*
X338640Y41751D01*
X341192Y39501D02*X343442D01*
X340442Y40251D02*X341192Y39501D01*
X340442Y41751D02*Y40251D01*
Y41751D02*X341192Y42501D01*
X342692D01*
X343442Y41751D01*
X340442Y41001D02*X343442D01*
Y41751D02*Y41001D01*
X345243Y38001D02*X346743Y39501D01*
X351245Y44751D02*X351995Y45501D01*
X353495D01*
X354245Y44751D01*
Y40251D01*
X353495Y39501D02*X354245Y40251D01*
X351995Y39501D02*X353495D01*
X351245Y40251D02*X351995Y39501D01*
Y42501D02*X354245D01*
X356046Y44751D02*X356796Y45501D01*
X359046D01*
X359796Y44751D01*
Y43251D01*
X356046Y39501D02*X359796Y43251D01*
X356046Y39501D02*X359796D01*
X361598Y40251D02*X362348Y39501D01*
X361598Y44751D02*Y40251D01*
Y44751D02*X362348Y45501D01*
X363848D01*
X364598Y44751D01*
Y40251D01*
X363848Y39501D02*X364598Y40251D01*
X362348Y39501D02*X363848D01*
X361598Y41001D02*X364598Y44001D01*
X369849Y41751D02*Y39501D01*
Y41751D02*X370599Y42501D01*
X371349D01*
X372099Y41751D01*
Y39501D01*
Y41751D02*X372849Y42501D01*
X373599D01*
X374349Y41751D01*
Y39501D01*
X369099Y42501D02*X369849Y41751D01*
X376151Y44001D02*Y43251D01*
Y41751D02*Y39501D01*
X377652Y45501D02*Y40251D01*
X378402Y39501D01*
X380654D02*X382904D01*
X383654Y40251D01*
X382904Y41001D02*X383654Y40251D01*
X380654Y41001D02*X382904D01*
X379904Y41751D02*X380654Y41001D01*
X379904Y41751D02*X380654Y42501D01*
X382904D01*
X383654Y41751D01*
X379904Y40251D02*X380654Y39501D01*
X388155Y45501D02*Y39501D01*
Y41751D02*X388905Y42501D01*
X390405D01*
X391155Y41751D01*
Y39501D01*
X392957Y44001D02*Y43251D01*
Y41751D02*Y39501D01*
X396708Y42501D02*X397458Y41751D01*
X395208Y42501D02*X396708D01*
X394458Y41751D02*X395208Y42501D01*
X394458Y41751D02*Y40251D01*
X395208Y39501D01*
X396708D01*
X397458Y40251D01*
X394458Y38001D02*X395208Y37251D01*
X396708D01*
X397458Y38001D01*
Y42501D02*Y38001D01*
X399260Y45501D02*Y39501D01*
Y41751D02*X400010Y42501D01*
X401510D01*
X402260Y41751D01*
Y39501D01*
X0Y-9500D02*X3000D01*
X3750Y-8750D01*
Y-7250D02*Y-8750D01*
X3000Y-6500D02*X3750Y-7250D01*
X750Y-6500D02*X3000D01*
X750Y-3500D02*Y-9500D01*
X0Y-3500D02*X3000D01*
X3750Y-4250D01*
Y-5750D01*
X3000Y-6500D02*X3750Y-5750D01*
X5551Y-7250D02*Y-8750D01*
Y-7250D02*X6301Y-6500D01*
X7801D01*
X8551Y-7250D01*
Y-8750D01*
X7801Y-9500D02*X8551Y-8750D01*
X6301Y-9500D02*X7801D01*
X5551Y-8750D02*X6301Y-9500D01*
X12603Y-6500D02*X13353Y-7250D01*
X11103Y-6500D02*X12603D01*
X10353Y-7250D02*X11103Y-6500D01*
X10353Y-7250D02*Y-8750D01*
X11103Y-9500D01*
X13353Y-6500D02*Y-8750D01*
X14103Y-9500D01*
X11103D02*X12603D01*
X13353Y-8750D01*
X16654Y-7250D02*Y-9500D01*
Y-7250D02*X17404Y-6500D01*
X18904D01*
X15904D02*X16654Y-7250D01*
X23706Y-3500D02*Y-9500D01*
X22956D02*X23706Y-8750D01*
X21456Y-9500D02*X22956D01*
X20706Y-8750D02*X21456Y-9500D01*
X20706Y-7250D02*Y-8750D01*
Y-7250D02*X21456Y-6500D01*
X22956D01*
X23706Y-7250D01*
X28207D02*Y-8750D01*
Y-7250D02*X28957Y-6500D01*
X30457D01*
X31207Y-7250D01*
Y-8750D01*
X30457Y-9500D02*X31207Y-8750D01*
X28957Y-9500D02*X30457D01*
X28207Y-8750D02*X28957Y-9500D01*
X33009Y-6500D02*Y-8750D01*
X33759Y-9500D01*
X35259D01*
X36009Y-8750D01*
Y-6500D02*Y-8750D01*
X38560Y-3500D02*Y-8750D01*
X39310Y-9500D01*
X37810Y-5750D02*X39310D01*
X40812Y-3500D02*Y-8750D01*
X41562Y-9500D01*
X43063Y-5000D02*Y-5750D01*
Y-7250D02*Y-9500D01*
X45315Y-7250D02*Y-9500D01*
Y-7250D02*X46065Y-6500D01*
X46815D01*
X47565Y-7250D01*
Y-9500D01*
X44565Y-6500D02*X45315Y-7250D01*
X50116Y-9500D02*X52366D01*
X49366Y-8750D02*X50116Y-9500D01*
X49366Y-7250D02*Y-8750D01*
Y-7250D02*X50116Y-6500D01*
X51616D01*
X52366Y-7250D01*
X49366Y-8000D02*X52366D01*
Y-7250D02*Y-8000D01*
X56868Y-5000D02*Y-5750D01*
Y-7250D02*Y-9500D01*
X59119D02*X61369D01*
X62119Y-8750D01*
X61369Y-8000D02*X62119Y-8750D01*
X59119Y-8000D02*X61369D01*
X58369Y-7250D02*X59119Y-8000D01*
X58369Y-7250D02*X59119Y-6500D01*
X61369D01*
X62119Y-7250D01*
X58369Y-8750D02*X59119Y-9500D01*
X67371Y-3500D02*Y-8750D01*
X68121Y-9500D01*
X66621Y-5750D02*X68121D01*
X69622Y-3500D02*Y-9500D01*
Y-7250D02*X70372Y-6500D01*
X71872D01*
X72622Y-7250D01*
Y-9500D01*
X75174D02*X77424D01*
X74424Y-8750D02*X75174Y-9500D01*
X74424Y-7250D02*Y-8750D01*
Y-7250D02*X75174Y-6500D01*
X76674D01*
X77424Y-7250D01*
X74424Y-8000D02*X77424D01*
Y-7250D02*Y-8000D01*
X82675Y-6500D02*X84925D01*
X81925Y-7250D02*X82675Y-6500D01*
X81925Y-7250D02*Y-8750D01*
X82675Y-9500D01*
X84925D01*
X87477D02*X89727D01*
X86727Y-8750D02*X87477Y-9500D01*
X86727Y-7250D02*Y-8750D01*
Y-7250D02*X87477Y-6500D01*
X88977D01*
X89727Y-7250D01*
X86727Y-8000D02*X89727D01*
Y-7250D02*Y-8000D01*
X92278Y-7250D02*Y-9500D01*
Y-7250D02*X93028Y-6500D01*
X93778D01*
X94528Y-7250D01*
Y-9500D01*
X91528Y-6500D02*X92278Y-7250D01*
X97080Y-3500D02*Y-8750D01*
X97830Y-9500D01*
X96330Y-5750D02*X97830D01*
X100081Y-9500D02*X102331D01*
X99331Y-8750D02*X100081Y-9500D01*
X99331Y-7250D02*Y-8750D01*
Y-7250D02*X100081Y-6500D01*
X101581D01*
X102331Y-7250D01*
X99331Y-8000D02*X102331D01*
Y-7250D02*Y-8000D01*
X104883Y-7250D02*Y-9500D01*
Y-7250D02*X105633Y-6500D01*
X107133D01*
X104133D02*X104883Y-7250D01*
X108934Y-3500D02*Y-8750D01*
X109684Y-9500D01*
X111186Y-5000D02*Y-5750D01*
Y-7250D02*Y-9500D01*
X113437Y-7250D02*Y-9500D01*
Y-7250D02*X114187Y-6500D01*
X114937D01*
X115687Y-7250D01*
Y-9500D01*
X112687Y-6500D02*X113437Y-7250D01*
X118239Y-9500D02*X120489D01*
X117489Y-8750D02*X118239Y-9500D01*
X117489Y-7250D02*Y-8750D01*
Y-7250D02*X118239Y-6500D01*
X119739D01*
X120489Y-7250D01*
X117489Y-8000D02*X120489D01*
Y-7250D02*Y-8000D01*
X124990Y-7250D02*Y-8750D01*
Y-7250D02*X125740Y-6500D01*
X127240D01*
X127990Y-7250D01*
Y-8750D01*
X127240Y-9500D02*X127990Y-8750D01*
X125740Y-9500D02*X127240D01*
X124990Y-8750D02*X125740Y-9500D01*
X130542Y-4250D02*Y-9500D01*
Y-4250D02*X131292Y-3500D01*
X132042D01*
X129792Y-6500D02*X131292D01*
X136993Y-3500D02*Y-8750D01*
X137743Y-9500D01*
X136243Y-5750D02*X137743D01*
X139245Y-3500D02*Y-9500D01*
Y-7250D02*X139995Y-6500D01*
X141495D01*
X142245Y-7250D01*
Y-9500D01*
X144046Y-5000D02*Y-5750D01*
Y-7250D02*Y-9500D01*
X146298D02*X148548D01*
X149298Y-8750D01*
X148548Y-8000D02*X149298Y-8750D01*
X146298Y-8000D02*X148548D01*
X145548Y-7250D02*X146298Y-8000D01*
X145548Y-7250D02*X146298Y-6500D01*
X148548D01*
X149298Y-7250D01*
X145548Y-8750D02*X146298Y-9500D01*
X154549D02*X156049D01*
X155299Y-3500D02*Y-9500D01*
X153799Y-5000D02*X155299Y-3500D01*
X157851Y-8750D02*X158601Y-9500D01*
X157851Y-4250D02*Y-8750D01*
Y-4250D02*X158601Y-3500D01*
X160101D01*
X160851Y-4250D01*
Y-8750D01*
X160101Y-9500D02*X160851Y-8750D01*
X158601Y-9500D02*X160101D01*
X157851Y-8000D02*X160851Y-5000D01*
X166102Y-7250D02*Y-9500D01*
Y-7250D02*X166852Y-6500D01*
X167602D01*
X168352Y-7250D01*
Y-9500D01*
Y-7250D02*X169102Y-6500D01*
X169852D01*
X170602Y-7250D01*
Y-9500D01*
X165352Y-6500D02*X166102Y-7250D01*
X172404Y-5000D02*Y-5750D01*
Y-7250D02*Y-9500D01*
X173905Y-3500D02*Y-8750D01*
X174655Y-9500D01*
X179607Y-7250D02*Y-9500D01*
Y-7250D02*X180357Y-6500D01*
X181857D01*
X178857D02*X179607Y-7250D01*
X184408Y-9500D02*X186658D01*
X183658Y-8750D02*X184408Y-9500D01*
X183658Y-7250D02*Y-8750D01*
Y-7250D02*X184408Y-6500D01*
X185908D01*
X186658Y-7250D01*
X183658Y-8000D02*X186658D01*
Y-7250D02*Y-8000D01*
X189210Y-6500D02*X191460D01*
X188460Y-7250D02*X189210Y-6500D01*
X188460Y-7250D02*Y-8750D01*
X189210Y-9500D01*
X191460D01*
X194011Y-3500D02*Y-8750D01*
X194761Y-9500D01*
X193261Y-5750D02*X194761D01*
X198513Y-6500D02*X199263Y-7250D01*
X197013Y-6500D02*X198513D01*
X196263Y-7250D02*X197013Y-6500D01*
X196263Y-7250D02*Y-8750D01*
X197013Y-9500D01*
X199263Y-6500D02*Y-8750D01*
X200013Y-9500D01*
X197013D02*X198513D01*
X199263Y-8750D01*
X202564Y-7250D02*Y-9500D01*
Y-7250D02*X203314Y-6500D01*
X204064D01*
X204814Y-7250D01*
Y-9500D01*
X201814Y-6500D02*X202564Y-7250D01*
X208866Y-6500D02*X209616Y-7250D01*
X207366Y-6500D02*X208866D01*
X206616Y-7250D02*X207366Y-6500D01*
X206616Y-7250D02*Y-8750D01*
X207366Y-9500D01*
X208866D01*
X209616Y-8750D01*
X206616Y-11000D02*X207366Y-11750D01*
X208866D01*
X209616Y-11000D01*
Y-6500D02*Y-11000D01*
X211417Y-3500D02*Y-8750D01*
X212167Y-9500D01*
X214419D02*X216669D01*
X213669Y-8750D02*X214419Y-9500D01*
X213669Y-7250D02*Y-8750D01*
Y-7250D02*X214419Y-6500D01*
X215919D01*
X216669Y-7250D01*
X213669Y-8000D02*X216669D01*
Y-7250D02*Y-8000D01*
X221170Y-6500D02*X224170D01*
X228672Y-8750D02*X229422Y-9500D01*
X228672Y-4250D02*Y-8750D01*
Y-4250D02*X229422Y-3500D01*
X230922D01*
X231672Y-4250D01*
Y-8750D01*
X230922Y-9500D02*X231672Y-8750D01*
X229422Y-9500D02*X230922D01*
X228672Y-8000D02*X231672Y-5000D01*
X233473Y-11000D02*X234973Y-9500D01*
X236775Y-8750D02*X237525Y-9500D01*
X236775Y-4250D02*Y-8750D01*
Y-4250D02*X237525Y-3500D01*
X239025D01*
X239775Y-4250D01*
Y-8750D01*
X239025Y-9500D02*X239775Y-8750D01*
X237525Y-9500D02*X239025D01*
X236775Y-8000D02*X239775Y-5000D01*
X245026Y-3500D02*Y-8750D01*
X245776Y-9500D01*
X244276Y-5750D02*X245776D01*
X247278Y-7250D02*Y-8750D01*
Y-7250D02*X248028Y-6500D01*
X249528D01*
X250278Y-7250D01*
Y-8750D01*
X249528Y-9500D02*X250278Y-8750D01*
X248028Y-9500D02*X249528D01*
X247278Y-8750D02*X248028Y-9500D01*
X254779Y-4250D02*X255529Y-3500D01*
X257779D01*
X258529Y-4250D01*
Y-5750D01*
X254779Y-9500D02*X258529Y-5750D01*
X254779Y-9500D02*X258529D01*
X260331D02*X263331Y-6500D01*
Y-4250D02*Y-6500D01*
X262581Y-3500D02*X263331Y-4250D01*
X261081Y-3500D02*X262581D01*
X260331Y-4250D02*X261081Y-3500D01*
X260331Y-4250D02*Y-5750D01*
X261081Y-6500D01*
X263331D01*
X265132Y-3500D02*X268132D01*
X265132D02*Y-6500D01*
X265882Y-5750D01*
X267382D01*
X268132Y-6500D01*
Y-8750D01*
X267382Y-9500D02*X268132Y-8750D01*
X265882Y-9500D02*X267382D01*
X265132Y-8750D02*X265882Y-9500D01*
X269934Y-11000D02*X271434Y-9500D01*
X273235Y-4250D02*X273985Y-3500D01*
X275485D01*
X276235Y-4250D01*
Y-8750D01*
X275485Y-9500D02*X276235Y-8750D01*
X273985Y-9500D02*X275485D01*
X273235Y-8750D02*X273985Y-9500D01*
Y-6500D02*X276235D01*
X278037Y-4250D02*X278787Y-3500D01*
X281037D01*
X281787Y-4250D01*
Y-5750D01*
X278037Y-9500D02*X281787Y-5750D01*
X278037Y-9500D02*X281787D01*
X283588Y-8750D02*X284338Y-9500D01*
X283588Y-4250D02*Y-8750D01*
Y-4250D02*X284338Y-3500D01*
X285838D01*
X286588Y-4250D01*
Y-8750D01*
X285838Y-9500D02*X286588Y-8750D01*
X284338Y-9500D02*X285838D01*
X283588Y-8000D02*X286588Y-5000D01*
X291840Y-7250D02*Y-9500D01*
Y-7250D02*X292590Y-6500D01*
X293340D01*
X294090Y-7250D01*
Y-9500D01*
Y-7250D02*X294840Y-6500D01*
X295590D01*
X296340Y-7250D01*
Y-9500D01*
X291090Y-6500D02*X291840Y-7250D01*
X298141Y-5000D02*Y-5750D01*
Y-7250D02*Y-9500D01*
X299643Y-3500D02*Y-8750D01*
X300393Y-9500D01*
X302644D02*X304894D01*
X305644Y-8750D01*
X304894Y-8000D02*X305644Y-8750D01*
X302644Y-8000D02*X304894D01*
X301894Y-7250D02*X302644Y-8000D01*
X301894Y-7250D02*X302644Y-6500D01*
X304894D01*
X305644Y-7250D01*
X301894Y-8750D02*X302644Y-9500D01*
X200750Y60501D02*Y54501D01*
X203000Y60501D02*X203750Y59751D01*
Y55251D01*
X203000Y54501D02*X203750Y55251D01*
X200000Y54501D02*X203000D01*
X200000Y60501D02*X203000D01*
X207801Y57501D02*X208551Y56751D01*
X206301Y57501D02*X207801D01*
X205551Y56751D02*X206301Y57501D01*
X205551Y56751D02*Y55251D01*
X206301Y54501D01*
X208551Y57501D02*Y55251D01*
X209301Y54501D01*
X206301D02*X207801D01*
X208551Y55251D01*
X211853Y60501D02*Y55251D01*
X212603Y54501D01*
X211103Y58251D02*X212603D01*
X214854Y54501D02*X217104D01*
X214104Y55251D02*X214854Y54501D01*
X214104Y56751D02*Y55251D01*
Y56751D02*X214854Y57501D01*
X216354D01*
X217104Y56751D01*
X214104Y56001D02*X217104D01*
Y56751D02*Y56001D01*
X218906Y58251D02*X219656D01*
X218906Y56751D02*X219656D01*
X227157Y60501D02*X227907Y59751D01*
X224907Y60501D02*X227157D01*
X224157Y59751D02*X224907Y60501D01*
X224157Y59751D02*Y58251D01*
X224907Y57501D01*
X227157D01*
X227907Y56751D01*
Y55251D01*
X227157Y54501D02*X227907Y55251D01*
X224907Y54501D02*X227157D01*
X224157Y55251D02*X224907Y54501D01*
X229709Y57501D02*Y55251D01*
X230459Y54501D01*
X231959D01*
X232709Y55251D01*
Y57501D02*Y55251D01*
X235260Y56751D02*Y54501D01*
Y56751D02*X236010Y57501D01*
X236760D01*
X237510Y56751D01*
Y54501D01*
X234510Y57501D02*X235260Y56751D01*
X242012Y55251D02*X242762Y54501D01*
X242012Y59751D02*Y55251D01*
Y59751D02*X242762Y60501D01*
X244262D01*
X245012Y59751D01*
Y55251D01*
X244262Y54501D02*X245012Y55251D01*
X242762Y54501D02*X244262D01*
X242012Y56001D02*X245012Y59001D01*
X246813Y59751D02*X247563Y60501D01*
X249813D01*
X250563Y59751D01*
Y58251D01*
X246813Y54501D02*X250563Y58251D01*
X246813Y54501D02*X250563D01*
X255065Y59751D02*Y55251D01*
Y59751D02*X255815Y60501D01*
X257315D01*
X258065Y59751D01*
Y55251D01*
X257315Y54501D02*X258065Y55251D01*
X255815Y54501D02*X257315D01*
X255065Y55251D02*X255815Y54501D01*
X260616Y57501D02*X262866D01*
X259866Y56751D02*X260616Y57501D01*
X259866Y56751D02*Y55251D01*
X260616Y54501D01*
X262866D01*
X265418Y60501D02*Y55251D01*
X266168Y54501D01*
X264668Y58251D02*X266168D01*
X270369Y59751D02*X271119Y60501D01*
X273369D01*
X274119Y59751D01*
Y58251D01*
X270369Y54501D02*X274119Y58251D01*
X270369Y54501D02*X274119D01*
X275921Y55251D02*X276671Y54501D01*
X275921Y59751D02*Y55251D01*
Y59751D02*X276671Y60501D01*
X278171D01*
X278921Y59751D01*
Y55251D01*
X278171Y54501D02*X278921Y55251D01*
X276671Y54501D02*X278171D01*
X275921Y56001D02*X278921Y59001D01*
X281472Y54501D02*X282972D01*
X282222Y60501D02*Y54501D01*
X280722Y59001D02*X282222Y60501D01*
X285524Y54501D02*X287024D01*
X286274Y60501D02*Y54501D01*
X284774Y59001D02*X286274Y60501D01*
X292275Y54501D02*X293775D01*
X293025Y60501D02*Y54501D01*
X291525Y59001D02*X293025Y60501D01*
X295577Y54501D02*X298577Y57501D01*
Y59751D02*Y57501D01*
X297827Y60501D02*X298577Y59751D01*
X296327Y60501D02*X297827D01*
X295577Y59751D02*X296327Y60501D01*
X295577Y59751D02*Y58251D01*
X296327Y57501D01*
X298577D01*
X300378Y58251D02*X301128D01*
X300378Y56751D02*X301128D01*
X302930Y57501D02*X305930Y60501D01*
X302930Y57501D02*X306680D01*
X305930Y60501D02*Y54501D01*
X309231D02*X310731D01*
X309981Y60501D02*Y54501D01*
X308481Y59001D02*X309981Y60501D01*
X312533Y58251D02*X313283D01*
X312533Y56751D02*X313283D01*
X315084Y57501D02*X318084Y60501D01*
X315084Y57501D02*X318834D01*
X318084Y60501D02*Y54501D01*
X320636Y59751D02*X321386Y60501D01*
X322886D01*
X323636Y59751D01*
Y55251D01*
X322886Y54501D02*X323636Y55251D01*
X321386Y54501D02*X322886D01*
X320636Y55251D02*X321386Y54501D01*
Y57501D02*X323636D01*
X331137Y60501D02*X331887Y59751D01*
X328887Y60501D02*X331137D01*
X328137Y59751D02*X328887Y60501D01*
X328137Y59751D02*Y55251D01*
X328887Y54501D01*
X331137D01*
X331887Y55251D01*
Y56751D02*Y55251D01*
X331137Y57501D02*X331887Y56751D01*
X329637Y57501D02*X331137D01*
X333689Y60501D02*Y54501D01*
Y60501D02*X335939Y58251D01*
X338189Y60501D01*
Y54501D01*
X339990Y60501D02*X342990D01*
X341490D02*Y54501D01*
X347492Y60501D02*Y55251D01*
X348242Y54501D01*
X349742D01*
X350492Y55251D01*
Y60501D02*Y55251D01*
X352293Y60501D02*X355293D01*
X353793D02*Y54501D01*
X357845D02*X360095D01*
X357095Y55251D02*X357845Y54501D01*
X357095Y59751D02*Y55251D01*
Y59751D02*X357845Y60501D01*
X360095D01*
X200000Y74751D02*Y69501D01*
Y74751D02*X200750Y75501D01*
X203000D01*
X203750Y74751D01*
Y69501D01*
X200000Y72501D02*X203750D01*
X205551D02*Y70251D01*
X206301Y69501D01*
X207801D01*
X208551Y70251D01*
Y72501D02*Y70251D01*
X211103Y75501D02*Y70251D01*
X211853Y69501D01*
X210353Y73251D02*X211853D01*
X213354Y75501D02*Y69501D01*
Y71751D02*X214104Y72501D01*
X215604D01*
X216354Y71751D01*
Y69501D01*
X218156Y71751D02*Y70251D01*
Y71751D02*X218906Y72501D01*
X220406D01*
X221156Y71751D01*
Y70251D01*
X220406Y69501D02*X221156Y70251D01*
X218906Y69501D02*X220406D01*
X218156Y70251D02*X218906Y69501D01*
X223707Y71751D02*Y69501D01*
Y71751D02*X224457Y72501D01*
X225957D01*
X222957D02*X223707Y71751D01*
X227759Y73251D02*X228509D01*
X227759Y71751D02*X228509D01*
X233760D02*Y69501D01*
Y71751D02*X234510Y72501D01*
X236010D01*
X233010D02*X233760Y71751D01*
X237812Y72501D02*Y70251D01*
X238562Y69501D01*
X240062D01*
X240812Y70251D01*
Y72501D02*Y70251D01*
X245613Y75501D02*Y69501D01*
X244863D02*X245613Y70251D01*
X243363Y69501D02*X244863D01*
X242613Y70251D02*X243363Y69501D01*
X242613Y71751D02*Y70251D01*
Y71751D02*X243363Y72501D01*
X244863D01*
X245613Y71751D01*
X247415D02*Y70251D01*
Y71751D02*X248165Y72501D01*
X249665D01*
X250415Y71751D01*
Y70251D01*
X249665Y69501D02*X250415Y70251D01*
X248165Y69501D02*X249665D01*
X247415Y70251D02*X248165Y69501D01*
X252216Y75501D02*Y70251D01*
X252966Y69501D01*
X255218Y74751D02*Y69501D01*
Y74751D02*X255968Y75501D01*
X256718D01*
X254468Y72501D02*X255968D01*
X200000Y90501D02*X203000D01*
X201500D02*Y84501D01*
X204801Y89001D02*Y88251D01*
Y86751D02*Y84501D01*
X207053Y90501D02*Y85251D01*
X207803Y84501D01*
X206303Y88251D02*X207803D01*
X209304Y90501D02*Y85251D01*
X210054Y84501D01*
X212306D02*X214556D01*
X211556Y85251D02*X212306Y84501D01*
X211556Y86751D02*Y85251D01*
Y86751D02*X212306Y87501D01*
X213806D01*
X214556Y86751D01*
X211556Y86001D02*X214556D01*
Y86751D02*Y86001D01*
X216357Y88251D02*X217107D01*
X216357Y86751D02*X217107D01*
X221609Y85251D02*X222359Y84501D01*
X221609Y89751D02*X222359Y90501D01*
X221609Y89751D02*Y85251D01*
X224160Y87501D02*Y85251D01*
X224910Y84501D01*
X226410D01*
X227160Y85251D01*
Y87501D02*Y85251D01*
X229712Y86751D02*Y84501D01*
Y86751D02*X230462Y87501D01*
X231212D01*
X231962Y86751D01*
Y84501D01*
X228962Y87501D02*X229712Y86751D01*
X233763Y90501D02*Y84501D01*
Y86751D02*X236013Y84501D01*
X233763Y86751D02*X235263Y88251D01*
X238565Y86751D02*Y84501D01*
Y86751D02*X239315Y87501D01*
X240065D01*
X240815Y86751D01*
Y84501D01*
X237815Y87501D02*X238565Y86751D01*
X242616D02*Y85251D01*
Y86751D02*X243366Y87501D01*
X244866D01*
X245616Y86751D01*
Y85251D01*
X244866Y84501D02*X245616Y85251D01*
X243366Y84501D02*X244866D01*
X242616Y85251D02*X243366Y84501D01*
X247418Y87501D02*Y85251D01*
X248168Y84501D01*
X248918D01*
X249668Y85251D01*
Y87501D02*Y85251D01*
X250418Y84501D01*
X251168D01*
X251918Y85251D01*
Y87501D02*Y85251D01*
X254469Y86751D02*Y84501D01*
Y86751D02*X255219Y87501D01*
X255969D01*
X256719Y86751D01*
Y84501D01*
X253719Y87501D02*X254469Y86751D01*
X258521Y90501D02*X259271Y89751D01*
Y85251D01*
X258521Y84501D02*X259271Y85251D01*
X263772Y87501D02*X266772D01*
X271274Y90501D02*Y84501D01*
Y90501D02*X274274D01*
X271274Y87501D02*X273524D01*
X278325D02*X279075Y86751D01*
X276825Y87501D02*X278325D01*
X276075Y86751D02*X276825Y87501D01*
X276075Y86751D02*Y85251D01*
X276825Y84501D01*
X279075Y87501D02*Y85251D01*
X279825Y84501D01*
X276825D02*X278325D01*
X279075Y85251D01*
X281627Y90501D02*Y84501D01*
Y85251D02*X282377Y84501D01*
X283877D01*
X284627Y85251D01*
Y86751D02*Y85251D01*
X283877Y87501D02*X284627Y86751D01*
X282377Y87501D02*X283877D01*
X281627Y86751D02*X282377Y87501D01*
X287178Y86751D02*Y84501D01*
Y86751D02*X287928Y87501D01*
X289428D01*
X286428D02*X287178Y86751D01*
X291230Y89001D02*Y88251D01*
Y86751D02*Y84501D01*
X293481Y87501D02*X295731D01*
X292731Y86751D02*X293481Y87501D01*
X292731Y86751D02*Y85251D01*
X293481Y84501D01*
X295731D01*
X299783Y87501D02*X300533Y86751D01*
X298283Y87501D02*X299783D01*
X297533Y86751D02*X298283Y87501D01*
X297533Y86751D02*Y85251D01*
X298283Y84501D01*
X300533Y87501D02*Y85251D01*
X301283Y84501D01*
X298283D02*X299783D01*
X300533Y85251D01*
X303834Y90501D02*Y85251D01*
X304584Y84501D01*
X303084Y88251D02*X304584D01*
X306086Y89001D02*Y88251D01*
Y86751D02*Y84501D01*
X307587Y86751D02*Y85251D01*
Y86751D02*X308337Y87501D01*
X309837D01*
X310587Y86751D01*
Y85251D01*
X309837Y84501D02*X310587Y85251D01*
X308337Y84501D02*X309837D01*
X307587Y85251D02*X308337Y84501D01*
X313139Y86751D02*Y84501D01*
Y86751D02*X313889Y87501D01*
X314639D01*
X315389Y86751D01*
Y84501D01*
X312389Y87501D02*X313139Y86751D01*
X320640Y90501D02*Y84501D01*
X322890Y90501D02*X323640Y89751D01*
Y85251D01*
X322890Y84501D02*X323640Y85251D01*
X319890Y84501D02*X322890D01*
X319890Y90501D02*X322890D01*
X326192Y86751D02*Y84501D01*
Y86751D02*X326942Y87501D01*
X328442D01*
X325442D02*X326192Y86751D01*
X332493Y87501D02*X333243Y86751D01*
X330993Y87501D02*X332493D01*
X330243Y86751D02*X330993Y87501D01*
X330243Y86751D02*Y85251D01*
X330993Y84501D01*
X333243Y87501D02*Y85251D01*
X333993Y84501D01*
X330993D02*X332493D01*
X333243Y85251D01*
X335795Y87501D02*Y85251D01*
X336545Y84501D01*
X337295D01*
X338045Y85251D01*
Y87501D02*Y85251D01*
X338795Y84501D01*
X339545D01*
X340295Y85251D01*
Y87501D02*Y85251D01*
X342096Y89001D02*Y88251D01*
Y86751D02*Y84501D01*
X344348Y86751D02*Y84501D01*
Y86751D02*X345098Y87501D01*
X345848D01*
X346598Y86751D01*
Y84501D01*
X343598Y87501D02*X344348Y86751D01*
X350649Y87501D02*X351399Y86751D01*
X349149Y87501D02*X350649D01*
X348399Y86751D02*X349149Y87501D01*
X348399Y86751D02*Y85251D01*
X349149Y84501D01*
X350649D01*
X351399Y85251D01*
X348399Y83001D02*X349149Y82251D01*
X350649D01*
X351399Y83001D01*
Y87501D02*Y83001D01*
M02*
