%FSLAX23Y23*%
%MOIN*%
G04 EasyPC Gerber Version 13.0.2 Build 2807 *
%ADD12C,0.00500*%
%ADD16C,0.10000*%
X0Y0D02*
D02*
D12*
X502Y587D02*
X518Y624D01*
X534Y587*
X509Y603D02*
X527D01*
X553Y587D02*
Y624D01*
X574*
X581Y621*
X584Y615*
X581Y609*
X574Y606*
X553*
X502Y712D02*
X518Y749D01*
X534Y712*
X509Y728D02*
X527D01*
X553Y712D02*
Y749D01*
X574*
X581Y746*
X584Y740*
X581Y734*
X574Y731*
X553*
X563Y512D02*
X578Y549D01*
X594Y512*
X569Y527D02*
X588D01*
X613Y512D02*
Y549D01*
X644*
X638Y531D02*
X613D01*
X603Y712D02*
X618Y749D01*
X634Y712*
X609Y728D02*
X627D01*
X653Y712D02*
Y749D01*
X684*
X678Y731D02*
X653D01*
X643Y512D02*
X658Y549D01*
X674Y512*
X649Y527D02*
X668D01*
X693Y512D02*
Y549D01*
X724*
X718Y531D02*
X693D01*
X703Y587D02*
X718Y624D01*
X734Y587*
X709Y603D02*
X728D01*
X753Y587D02*
Y624D01*
X774*
X781Y621*
X784Y615*
X781Y609*
X774Y606*
X753*
X703Y712D02*
X718Y749D01*
X734Y712*
X709Y728D02*
X728D01*
X753Y712D02*
Y749D01*
X774*
X781Y746*
X784Y740*
X781Y734*
X774Y731*
X753*
X1063Y512D02*
X1078Y549D01*
X1094Y512*
X1069Y527D02*
X1088D01*
X1113Y512D02*
Y549D01*
X1144*
X1138Y531D02*
X1113D01*
X1103Y712D02*
X1118Y749D01*
X1134Y712*
X1109Y728D02*
X1127D01*
X1153Y712D02*
Y749D01*
X1184*
X1178Y731D02*
X1153D01*
X1143Y512D02*
X1158Y549D01*
X1174Y512*
X1149Y527D02*
X1168D01*
X1192Y512D02*
Y549D01*
X1224*
X1218Y531D02*
X1192D01*
D02*
D16*
X403Y527D03*
Y653D03*
X463Y453D03*
X502Y653D03*
X543Y453D03*
X603Y527D03*
Y653D03*
X963Y453D03*
X1002Y653D03*
X1043Y453D03*
X0Y0D02*
M02*
