%FSLAX23Y23*%
%MOIN*%
G04 EasyPC Gerber Version 13.0.2 Build 2807 *
%ADD10C,0.00100*%
%ADD12C,0.00500*%
%ADD11C,0.00800*%
X0Y0D02*
D02*
D10*
X3Y209D02*
Y273D01*
Y253D02*
X67Y269D01*
Y237*
X3Y253*
X63Y238D02*
X67D01*
X59Y238D02*
X67D01*
X55Y240D02*
X67D01*
X51Y240D02*
X67D01*
X46Y242D02*
X67D01*
X43Y243D02*
X67D01*
X39Y244D02*
X67D01*
X35Y245D02*
X67D01*
X31Y246D02*
X67D01*
X27Y247D02*
X67D01*
X23Y248D02*
X67D01*
X19Y248D02*
X67D01*
X15Y250D02*
X67D01*
X11Y250D02*
X67D01*
X7Y252D02*
X67D01*
X3Y253D02*
X67D01*
X7Y254D02*
X67D01*
X11Y255D02*
X67D01*
X15Y256D02*
X67D01*
X19Y257D02*
X67D01*
X23Y258D02*
X67D01*
X27Y259D02*
X67D01*
X31Y260D02*
X67D01*
X35Y261D02*
X67D01*
X39Y262D02*
X67D01*
X43Y263D02*
X67D01*
X46Y264D02*
X67D01*
X51Y265D02*
X67D01*
X55Y266D02*
X67D01*
X59Y267D02*
X67D01*
X63Y268D02*
X67D01*
X1503Y239D02*
Y273D01*
Y253D02*
X1438Y237D01*
Y269*
X1503Y253*
X1438Y238D02*
X1443D01*
X1438Y238D02*
X1447D01*
X1438Y240D02*
X1450D01*
X1438Y240D02*
X1455D01*
X1438Y242D02*
X1459D01*
X1438Y243D02*
X1463D01*
X1438Y244D02*
X1466D01*
X1438Y245D02*
X1470D01*
X1438Y246D02*
X1475D01*
X1438Y247D02*
X1479D01*
X1438Y248D02*
X1483D01*
X1438Y248D02*
X1486D01*
X1438Y250D02*
X1490D01*
X1438Y250D02*
X1495D01*
X1438Y252D02*
X1499D01*
X1438Y253D02*
X1503D01*
X1438Y254D02*
X1499D01*
X1438Y255D02*
X1495D01*
X1438Y256D02*
X1490D01*
X1438Y257D02*
X1486D01*
X1438Y258D02*
X1483D01*
X1438Y259D02*
X1479D01*
X1438Y260D02*
X1475D01*
X1438Y261D02*
X1470D01*
X1438Y262D02*
X1466D01*
X1438Y263D02*
X1463D01*
X1438Y264D02*
X1459D01*
X1438Y265D02*
X1455D01*
X1438Y266D02*
X1450D01*
X1438Y267D02*
X1447D01*
X1438Y268D02*
X1443D01*
D02*
D11*
X35Y253D02*
X428D01*
X1470D02*
X1073D01*
D02*
D12*
X456Y229D02*
X469D01*
X463D02*
Y267D01*
X456Y261*
X500Y233D02*
X506Y229D01*
X516*
X522Y233*
X525Y239*
Y242*
X522Y248*
X516Y251*
X500*
Y267*
X525*
X553Y233D02*
X559Y229D01*
X566*
X572Y233*
X575Y239*
Y258*
X572Y264*
X566Y267*
X559*
X553Y264*
X550Y258*
Y239*
X553Y233*
X572Y264*
X603Y233D02*
X609Y229D01*
X616*
X622Y233*
X625Y239*
Y258*
X622Y264*
X616Y267*
X609*
X603Y264*
X600Y258*
Y239*
X603Y233*
X622Y264*
X653Y229D02*
X656Y233D01*
X653Y236*
X650Y233*
X653Y229*
X703Y233D02*
X709Y229D01*
X716*
X722Y233*
X725Y239*
Y258*
X722Y264*
X716Y267*
X709*
X703Y264*
X700Y258*
Y239*
X703Y233*
X722Y264*
X753Y233D02*
X759Y229D01*
X766*
X772Y233*
X775Y239*
Y258*
X772Y264*
X766Y267*
X759*
X753Y264*
X750Y258*
Y239*
X753Y233*
X772Y264*
X856Y254D02*
X869D01*
X863Y261D02*
Y233D01*
X866Y229*
X869*
X872Y233*
X900Y229D02*
Y267D01*
Y245D02*
X903Y251D01*
X909Y254*
X916*
X922Y251*
X925Y245*
Y229*
X950Y239D02*
X953Y233D01*
X959Y229*
X966*
X972Y233*
X975Y239*
Y245*
X972Y251*
X966Y254*
X959*
X953Y251*
X950Y245*
Y239*
X1000Y254D02*
Y239D01*
X1003Y233*
X1009Y229*
X1016*
X1022Y233*
X1025Y239*
Y254D02*
Y229D01*
X0Y0D02*
M02*
