M48
T01C0.0935
T02C0.0350
%
T01
X+000000Y+001000
X+000000Y-001000
X+001250Y-001000
X+001250Y+001000
X+004550Y+001000
X+004550Y-001000
X+005800Y-001000
X+005800Y+001000
T02
X+000000Y+000000
X+002000Y+000400
X+002000Y-000400
X+004550Y+000000
X+006550Y+000400
X+006550Y-000400
X-000150Y-003400
X+001850Y-003000
X+001850Y-003800
X+004600Y-003400
X+006600Y-003000
X+006600Y-003800
M30
