G75*
G70*
%OFA0B0*%
%FSLAX24Y24*%
%IPPOS*%
%LPD*%
%AMOC8*
5,1,8,0,0,1.08239X$1,22.5*
%
%ADD10C,0.0010*%
D10*
X009939Y001488D02*
X009930Y001592D01*
X011130Y001592D01*
X011121Y001488D01*
X011094Y001387D01*
X011050Y001292D01*
X010990Y001207D01*
X010916Y001133D01*
X010830Y001073D01*
X010735Y001029D01*
X010325Y001029D01*
X010230Y001073D01*
X010144Y001133D01*
X010070Y001207D01*
X010010Y001292D01*
X009966Y001387D01*
X009939Y001488D01*
X009939Y001490D02*
X011121Y001490D01*
X011122Y001498D02*
X009938Y001498D01*
X009938Y001507D02*
X011123Y001507D01*
X011123Y001516D02*
X009937Y001516D01*
X009936Y001524D02*
X011124Y001524D01*
X011125Y001533D02*
X009935Y001533D01*
X009935Y001541D02*
X011126Y001541D01*
X011126Y001550D02*
X009934Y001550D01*
X009933Y001558D02*
X011127Y001558D01*
X011128Y001567D02*
X009932Y001567D01*
X009932Y001575D02*
X011129Y001575D01*
X011129Y001584D02*
X009931Y001584D01*
X009930Y001592D02*
X009939Y001697D01*
X009966Y001798D01*
X010010Y001892D01*
X010010Y001891D02*
X011050Y001891D01*
X011050Y001892D02*
X011094Y001798D01*
X011121Y001697D01*
X011130Y001592D01*
X011129Y001601D02*
X009931Y001601D01*
X009931Y001610D02*
X011128Y001610D01*
X011128Y001618D02*
X009932Y001618D01*
X009933Y001627D02*
X011127Y001627D01*
X011126Y001635D02*
X009934Y001635D01*
X009934Y001644D02*
X011125Y001644D01*
X011125Y001652D02*
X009935Y001652D01*
X009936Y001661D02*
X011124Y001661D01*
X011123Y001669D02*
X009937Y001669D01*
X009937Y001678D02*
X011122Y001678D01*
X011122Y001686D02*
X009938Y001686D01*
X009939Y001695D02*
X011121Y001695D01*
X011119Y001704D02*
X009941Y001704D01*
X009943Y001712D02*
X011117Y001712D01*
X011114Y001721D02*
X009946Y001721D01*
X009948Y001729D02*
X011112Y001729D01*
X011110Y001738D02*
X009950Y001738D01*
X009952Y001746D02*
X011108Y001746D01*
X011105Y001755D02*
X009955Y001755D01*
X009957Y001763D02*
X011103Y001763D01*
X011101Y001772D02*
X009959Y001772D01*
X009962Y001780D02*
X011098Y001780D01*
X011096Y001789D02*
X009964Y001789D01*
X009966Y001797D02*
X011094Y001797D01*
X011090Y001806D02*
X009970Y001806D01*
X009974Y001815D02*
X011086Y001815D01*
X011082Y001823D02*
X009978Y001823D01*
X009982Y001832D02*
X011078Y001832D01*
X011074Y001840D02*
X009986Y001840D01*
X009990Y001849D02*
X011070Y001849D01*
X011066Y001857D02*
X009994Y001857D01*
X009998Y001866D02*
X011062Y001866D01*
X011058Y001874D02*
X010002Y001874D01*
X010006Y001883D02*
X011054Y001883D01*
X011050Y001892D02*
X010990Y001978D01*
X010916Y002052D01*
X010830Y002112D01*
X010735Y002156D01*
X010325Y002156D01*
X010426Y002183D01*
X010530Y002192D01*
X010634Y002183D01*
X010735Y002156D01*
X010753Y002148D02*
X010307Y002148D01*
X010325Y002156D02*
X010230Y002112D01*
X010144Y002052D01*
X010070Y001978D01*
X010010Y001892D01*
X010016Y001900D02*
X011044Y001900D01*
X011038Y001909D02*
X010022Y001909D01*
X010028Y001917D02*
X011032Y001917D01*
X011026Y001926D02*
X010034Y001926D01*
X010040Y001934D02*
X011020Y001934D01*
X011014Y001943D02*
X010046Y001943D01*
X010052Y001951D02*
X011008Y001951D01*
X011002Y001960D02*
X010058Y001960D01*
X010064Y001968D02*
X010996Y001968D01*
X010990Y001977D02*
X010069Y001977D01*
X010078Y001985D02*
X010982Y001985D01*
X010974Y001994D02*
X010086Y001994D01*
X010095Y002003D02*
X010965Y002003D01*
X010957Y002011D02*
X010103Y002011D01*
X010112Y002020D02*
X010948Y002020D01*
X010940Y002028D02*
X010120Y002028D01*
X010129Y002037D02*
X010931Y002037D01*
X010923Y002045D02*
X010137Y002045D01*
X010147Y002054D02*
X010913Y002054D01*
X010901Y002062D02*
X010159Y002062D01*
X010171Y002071D02*
X010889Y002071D01*
X010877Y002079D02*
X010183Y002079D01*
X010196Y002088D02*
X010864Y002088D01*
X010852Y002096D02*
X010208Y002096D01*
X010220Y002105D02*
X010840Y002105D01*
X010827Y002114D02*
X010233Y002114D01*
X010252Y002122D02*
X010808Y002122D01*
X010790Y002131D02*
X010270Y002131D01*
X010288Y002139D02*
X010772Y002139D01*
X010703Y002165D02*
X010357Y002165D01*
X010389Y002173D02*
X010671Y002173D01*
X010639Y002182D02*
X010421Y002182D01*
X010508Y002190D02*
X010552Y002190D01*
X011937Y002071D02*
X013123Y002071D01*
X013122Y002079D02*
X011938Y002079D01*
X011938Y002088D02*
X013122Y002088D01*
X013121Y002096D02*
X011939Y002096D01*
X011939Y002097D02*
X011930Y001992D01*
X011930Y001192D01*
X011939Y001088D01*
X011966Y000987D01*
X012010Y000892D01*
X012070Y000807D01*
X012144Y000733D01*
X012230Y000673D01*
X012325Y000629D01*
X012426Y000602D01*
X012530Y000592D01*
X012634Y000602D01*
X012735Y000629D01*
X012830Y000673D01*
X012916Y000733D01*
X012990Y000807D01*
X013050Y000892D01*
X013094Y000987D01*
X013121Y001088D01*
X013130Y001192D01*
X013130Y001992D01*
X013121Y002097D01*
X013094Y002198D01*
X013050Y002292D01*
X012990Y002378D01*
X012916Y002452D01*
X012830Y002512D01*
X012735Y002556D01*
X012634Y002583D01*
X012530Y002592D01*
X012426Y002583D01*
X012325Y002556D01*
X012230Y002512D01*
X012144Y002452D01*
X012070Y002378D01*
X012010Y002292D01*
X011966Y002198D01*
X011939Y002097D01*
X011941Y002105D02*
X013119Y002105D01*
X013116Y002114D02*
X011944Y002114D01*
X011946Y002122D02*
X013114Y002122D01*
X013112Y002131D02*
X011948Y002131D01*
X011951Y002139D02*
X013109Y002139D01*
X013107Y002148D02*
X011953Y002148D01*
X011955Y002156D02*
X013105Y002156D01*
X013103Y002165D02*
X011957Y002165D01*
X011960Y002173D02*
X013100Y002173D01*
X013098Y002182D02*
X011962Y002182D01*
X011964Y002190D02*
X013096Y002190D01*
X013093Y002199D02*
X011967Y002199D01*
X011971Y002208D02*
X013089Y002208D01*
X013085Y002216D02*
X011975Y002216D01*
X011979Y002225D02*
X013081Y002225D01*
X013077Y002233D02*
X011983Y002233D01*
X011987Y002242D02*
X013073Y002242D01*
X013069Y002250D02*
X011991Y002250D01*
X011995Y002259D02*
X013065Y002259D01*
X013061Y002267D02*
X011999Y002267D01*
X012003Y002276D02*
X013057Y002276D01*
X013053Y002284D02*
X012007Y002284D01*
X012011Y002293D02*
X013049Y002293D01*
X013043Y002302D02*
X012017Y002302D01*
X012023Y002310D02*
X013037Y002310D01*
X013031Y002319D02*
X012029Y002319D01*
X012035Y002327D02*
X013025Y002327D01*
X013019Y002336D02*
X012041Y002336D01*
X012047Y002344D02*
X013013Y002344D01*
X013007Y002353D02*
X012053Y002353D01*
X012059Y002361D02*
X013001Y002361D01*
X012995Y002370D02*
X012065Y002370D01*
X012071Y002378D02*
X012989Y002378D01*
X012981Y002387D02*
X012079Y002387D01*
X012088Y002396D02*
X012972Y002396D01*
X012964Y002404D02*
X012096Y002404D01*
X012105Y002413D02*
X012955Y002413D01*
X012947Y002421D02*
X012113Y002421D01*
X012122Y002430D02*
X012938Y002430D01*
X012930Y002438D02*
X012130Y002438D01*
X012139Y002447D02*
X012921Y002447D01*
X012911Y002455D02*
X012149Y002455D01*
X012161Y002464D02*
X012899Y002464D01*
X012887Y002472D02*
X012173Y002472D01*
X012186Y002481D02*
X012874Y002481D01*
X012862Y002489D02*
X012198Y002489D01*
X012210Y002498D02*
X012850Y002498D01*
X012838Y002507D02*
X012222Y002507D01*
X012237Y002515D02*
X012823Y002515D01*
X012805Y002524D02*
X012255Y002524D01*
X012273Y002532D02*
X012787Y002532D01*
X012768Y002541D02*
X012292Y002541D01*
X012310Y002549D02*
X012750Y002549D01*
X012729Y002558D02*
X012331Y002558D01*
X012363Y002566D02*
X012697Y002566D01*
X012666Y002575D02*
X012395Y002575D01*
X012428Y002583D02*
X012632Y002583D01*
X012535Y002592D02*
X012525Y002592D01*
X011936Y002062D02*
X013124Y002062D01*
X013125Y002054D02*
X011935Y002054D01*
X011935Y002045D02*
X013125Y002045D01*
X013126Y002037D02*
X011934Y002037D01*
X011933Y002028D02*
X013127Y002028D01*
X013128Y002020D02*
X011932Y002020D01*
X011932Y002011D02*
X013128Y002011D01*
X013129Y002003D02*
X011931Y002003D01*
X011930Y001994D02*
X013130Y001994D01*
X013130Y001985D02*
X011930Y001985D01*
X011930Y001977D02*
X013130Y001977D01*
X013130Y001968D02*
X011930Y001968D01*
X011930Y001960D02*
X013130Y001960D01*
X013130Y001951D02*
X011930Y001951D01*
X011930Y001943D02*
X013130Y001943D01*
X013130Y001934D02*
X011930Y001934D01*
X011930Y001926D02*
X013130Y001926D01*
X013130Y001917D02*
X011930Y001917D01*
X011930Y001909D02*
X013130Y001909D01*
X013130Y001900D02*
X011930Y001900D01*
X011930Y001891D02*
X013130Y001891D01*
X013130Y001883D02*
X011930Y001883D01*
X011930Y001874D02*
X013130Y001874D01*
X013130Y001866D02*
X011930Y001866D01*
X011930Y001857D02*
X013130Y001857D01*
X013130Y001849D02*
X011930Y001849D01*
X011930Y001840D02*
X013130Y001840D01*
X013130Y001832D02*
X011930Y001832D01*
X011930Y001823D02*
X013130Y001823D01*
X013130Y001815D02*
X011930Y001815D01*
X011930Y001806D02*
X013130Y001806D01*
X013130Y001797D02*
X011930Y001797D01*
X011930Y001789D02*
X013130Y001789D01*
X013130Y001780D02*
X011930Y001780D01*
X011930Y001772D02*
X013130Y001772D01*
X013130Y001763D02*
X011930Y001763D01*
X011930Y001755D02*
X013130Y001755D01*
X013130Y001746D02*
X011930Y001746D01*
X011930Y001738D02*
X013130Y001738D01*
X013130Y001729D02*
X011930Y001729D01*
X011930Y001721D02*
X013130Y001721D01*
X013130Y001712D02*
X011930Y001712D01*
X011930Y001704D02*
X013130Y001704D01*
X013130Y001695D02*
X011930Y001695D01*
X011930Y001686D02*
X013130Y001686D01*
X013130Y001678D02*
X011930Y001678D01*
X011930Y001669D02*
X013130Y001669D01*
X013130Y001661D02*
X011930Y001661D01*
X011930Y001652D02*
X013130Y001652D01*
X013130Y001644D02*
X011930Y001644D01*
X011930Y001635D02*
X013130Y001635D01*
X013130Y001627D02*
X011930Y001627D01*
X011930Y001618D02*
X013130Y001618D01*
X013130Y001610D02*
X011930Y001610D01*
X011930Y001601D02*
X013130Y001601D01*
X013130Y001592D02*
X011930Y001592D01*
X011930Y001584D02*
X013130Y001584D01*
X013130Y001575D02*
X011930Y001575D01*
X011930Y001567D02*
X013130Y001567D01*
X013130Y001558D02*
X011930Y001558D01*
X011930Y001550D02*
X013130Y001550D01*
X013130Y001541D02*
X011930Y001541D01*
X011930Y001533D02*
X013130Y001533D01*
X013130Y001524D02*
X011930Y001524D01*
X011930Y001516D02*
X013130Y001516D01*
X013130Y001507D02*
X011930Y001507D01*
X011930Y001498D02*
X013130Y001498D01*
X013130Y001490D02*
X011930Y001490D01*
X011930Y001481D02*
X013130Y001481D01*
X013130Y001473D02*
X011930Y001473D01*
X011930Y001464D02*
X013130Y001464D01*
X013130Y001456D02*
X011930Y001456D01*
X011930Y001447D02*
X013130Y001447D01*
X013130Y001439D02*
X011930Y001439D01*
X011930Y001430D02*
X013130Y001430D01*
X013130Y001422D02*
X011930Y001422D01*
X011930Y001413D02*
X013130Y001413D01*
X013130Y001404D02*
X011930Y001404D01*
X011930Y001396D02*
X013130Y001396D01*
X013130Y001387D02*
X011930Y001387D01*
X011930Y001379D02*
X013130Y001379D01*
X013130Y001370D02*
X011930Y001370D01*
X011930Y001362D02*
X013130Y001362D01*
X013130Y001353D02*
X011930Y001353D01*
X011930Y001345D02*
X013130Y001345D01*
X013130Y001336D02*
X011930Y001336D01*
X011930Y001328D02*
X013130Y001328D01*
X013130Y001319D02*
X011930Y001319D01*
X011930Y001311D02*
X013130Y001311D01*
X013130Y001302D02*
X011930Y001302D01*
X011930Y001293D02*
X013130Y001293D01*
X013130Y001285D02*
X011930Y001285D01*
X011930Y001276D02*
X013130Y001276D01*
X013130Y001268D02*
X011930Y001268D01*
X011930Y001259D02*
X013130Y001259D01*
X013130Y001251D02*
X011930Y001251D01*
X011930Y001242D02*
X013130Y001242D01*
X013130Y001234D02*
X011930Y001234D01*
X011930Y001225D02*
X013130Y001225D01*
X013130Y001217D02*
X011930Y001217D01*
X011930Y001208D02*
X013130Y001208D01*
X013130Y001199D02*
X011930Y001199D01*
X011930Y001191D02*
X013130Y001191D01*
X013129Y001182D02*
X011931Y001182D01*
X011932Y001174D02*
X013128Y001174D01*
X013128Y001165D02*
X011932Y001165D01*
X011933Y001157D02*
X013127Y001157D01*
X013126Y001148D02*
X011934Y001148D01*
X011935Y001140D02*
X013125Y001140D01*
X013125Y001131D02*
X011935Y001131D01*
X011936Y001123D02*
X013124Y001123D01*
X013123Y001114D02*
X011937Y001114D01*
X011938Y001105D02*
X013122Y001105D01*
X013122Y001097D02*
X011938Y001097D01*
X011939Y001088D02*
X013121Y001088D01*
X013119Y001080D02*
X011941Y001080D01*
X011944Y001071D02*
X013116Y001071D01*
X013114Y001063D02*
X011946Y001063D01*
X011948Y001054D02*
X013112Y001054D01*
X013109Y001046D02*
X011951Y001046D01*
X011953Y001037D02*
X013107Y001037D01*
X013105Y001029D02*
X011955Y001029D01*
X011957Y001020D02*
X013103Y001020D01*
X013100Y001011D02*
X011960Y001011D01*
X011962Y001003D02*
X013098Y001003D01*
X013096Y000994D02*
X011964Y000994D01*
X011967Y000986D02*
X013093Y000986D01*
X013089Y000977D02*
X011971Y000977D01*
X011975Y000969D02*
X013085Y000969D01*
X013081Y000960D02*
X011979Y000960D01*
X011983Y000952D02*
X013077Y000952D01*
X013073Y000943D02*
X011987Y000943D01*
X011991Y000935D02*
X013069Y000935D01*
X013065Y000926D02*
X011995Y000926D01*
X011999Y000918D02*
X013061Y000918D01*
X013057Y000909D02*
X012003Y000909D01*
X012007Y000900D02*
X013053Y000900D01*
X013049Y000892D02*
X012011Y000892D01*
X012017Y000883D02*
X013043Y000883D01*
X013037Y000875D02*
X012023Y000875D01*
X012029Y000866D02*
X013031Y000866D01*
X013025Y000858D02*
X012035Y000858D01*
X012041Y000849D02*
X013019Y000849D01*
X013013Y000841D02*
X012047Y000841D01*
X012053Y000832D02*
X013007Y000832D01*
X013001Y000824D02*
X012059Y000824D01*
X012065Y000815D02*
X012995Y000815D01*
X012989Y000806D02*
X012071Y000806D01*
X012079Y000798D02*
X012981Y000798D01*
X012972Y000789D02*
X012088Y000789D01*
X012096Y000781D02*
X012964Y000781D01*
X012955Y000772D02*
X012105Y000772D01*
X012113Y000764D02*
X012947Y000764D01*
X012938Y000755D02*
X012122Y000755D01*
X012130Y000747D02*
X012930Y000747D01*
X012921Y000738D02*
X012139Y000738D01*
X012149Y000730D02*
X012911Y000730D01*
X012899Y000721D02*
X012161Y000721D01*
X012173Y000712D02*
X012887Y000712D01*
X012874Y000704D02*
X012186Y000704D01*
X012198Y000695D02*
X012862Y000695D01*
X012850Y000687D02*
X012210Y000687D01*
X012222Y000678D02*
X012838Y000678D01*
X012823Y000670D02*
X012237Y000670D01*
X012255Y000661D02*
X012805Y000661D01*
X012787Y000653D02*
X012273Y000653D01*
X012292Y000644D02*
X012768Y000644D01*
X012750Y000636D02*
X012310Y000636D01*
X012331Y000627D02*
X012729Y000627D01*
X012697Y000619D02*
X012363Y000619D01*
X012394Y000610D02*
X012665Y000610D01*
X012632Y000601D02*
X012428Y000601D01*
X012525Y000593D02*
X012535Y000593D01*
X010772Y001046D02*
X010288Y001046D01*
X010270Y001054D02*
X010790Y001054D01*
X010808Y001063D02*
X010252Y001063D01*
X010233Y001071D02*
X010827Y001071D01*
X010840Y001080D02*
X010220Y001080D01*
X010208Y001088D02*
X010852Y001088D01*
X010864Y001097D02*
X010196Y001097D01*
X010183Y001105D02*
X010877Y001105D01*
X010889Y001114D02*
X010171Y001114D01*
X010159Y001123D02*
X010901Y001123D01*
X010913Y001131D02*
X010147Y001131D01*
X010137Y001140D02*
X010923Y001140D01*
X010931Y001148D02*
X010129Y001148D01*
X010120Y001157D02*
X010940Y001157D01*
X010948Y001165D02*
X010112Y001165D01*
X010103Y001174D02*
X010957Y001174D01*
X010965Y001182D02*
X010095Y001182D01*
X010086Y001191D02*
X010974Y001191D01*
X010982Y001199D02*
X010078Y001199D01*
X010070Y001208D02*
X010991Y001208D01*
X010996Y001217D02*
X010064Y001217D01*
X010058Y001225D02*
X011002Y001225D01*
X011008Y001234D02*
X010052Y001234D01*
X010046Y001242D02*
X011014Y001242D01*
X011020Y001251D02*
X010040Y001251D01*
X010034Y001259D02*
X011026Y001259D01*
X011032Y001268D02*
X010028Y001268D01*
X010022Y001276D02*
X011038Y001276D01*
X011044Y001285D02*
X010016Y001285D01*
X010010Y001293D02*
X011050Y001293D01*
X011054Y001302D02*
X010006Y001302D01*
X010002Y001311D02*
X011058Y001311D01*
X011062Y001319D02*
X009998Y001319D01*
X009994Y001328D02*
X011066Y001328D01*
X011070Y001336D02*
X009990Y001336D01*
X009986Y001345D02*
X011074Y001345D01*
X011078Y001353D02*
X009982Y001353D01*
X009978Y001362D02*
X011082Y001362D01*
X011086Y001370D02*
X009974Y001370D01*
X009970Y001379D02*
X011090Y001379D01*
X011094Y001387D02*
X009966Y001387D01*
X009964Y001396D02*
X011096Y001396D01*
X011098Y001404D02*
X009962Y001404D01*
X009959Y001413D02*
X011101Y001413D01*
X011103Y001422D02*
X009957Y001422D01*
X009955Y001430D02*
X011105Y001430D01*
X011108Y001439D02*
X009952Y001439D01*
X009950Y001447D02*
X011110Y001447D01*
X011112Y001456D02*
X009948Y001456D01*
X009946Y001464D02*
X011114Y001464D01*
X011117Y001473D02*
X009943Y001473D01*
X009941Y001481D02*
X011119Y001481D01*
X010753Y001037D02*
X010307Y001037D01*
X010325Y001029D02*
X010426Y001002D01*
X010530Y000992D01*
X010634Y001002D01*
X010735Y001029D01*
X010703Y001020D02*
X010357Y001020D01*
X010389Y001011D02*
X010671Y001011D01*
X010639Y001003D02*
X010421Y001003D01*
X010508Y000994D02*
X010552Y000994D01*
M02*
