G75*
G70*
%OFA0B0*%
%FSLAX24Y24*%
%IPPOS*%
%LPD*%
%AMOC8*
5,1,8,0,0,1.08239X$1,22.5*
%
%ADD10C,0.0000*%
%ADD11C,0.0040*%
D10*
X000813Y000592D02*
X000815Y000635D01*
X000821Y000678D01*
X000831Y000720D01*
X000845Y000761D01*
X000862Y000800D01*
X000883Y000838D01*
X000907Y000873D01*
X000935Y000907D01*
X000965Y000937D01*
X000999Y000965D01*
X001034Y000989D01*
X001072Y001010D01*
X001111Y001027D01*
X001152Y001041D01*
X001194Y001051D01*
X001237Y001057D01*
X001280Y001059D01*
X001323Y001057D01*
X001366Y001051D01*
X001408Y001041D01*
X001449Y001027D01*
X001488Y001010D01*
X001526Y000989D01*
X001561Y000965D01*
X001595Y000937D01*
X001625Y000907D01*
X001653Y000873D01*
X001677Y000838D01*
X001698Y000800D01*
X001715Y000761D01*
X001729Y000720D01*
X001739Y000678D01*
X001745Y000635D01*
X001747Y000592D01*
X001745Y000549D01*
X001739Y000506D01*
X001729Y000464D01*
X001715Y000423D01*
X001698Y000384D01*
X001677Y000346D01*
X001653Y000311D01*
X001625Y000277D01*
X001595Y000247D01*
X001561Y000219D01*
X001526Y000195D01*
X001488Y000174D01*
X001449Y000157D01*
X001408Y000143D01*
X001366Y000133D01*
X001323Y000127D01*
X001280Y000125D01*
X001237Y000127D01*
X001194Y000133D01*
X001152Y000143D01*
X001111Y000157D01*
X001072Y000174D01*
X001034Y000195D01*
X000999Y000219D01*
X000965Y000247D01*
X000935Y000277D01*
X000907Y000311D01*
X000883Y000346D01*
X000862Y000384D01*
X000845Y000423D01*
X000831Y000464D01*
X000821Y000506D01*
X000815Y000549D01*
X000813Y000592D01*
X002063Y000592D02*
X002065Y000635D01*
X002071Y000678D01*
X002081Y000720D01*
X002095Y000761D01*
X002112Y000800D01*
X002133Y000838D01*
X002157Y000873D01*
X002185Y000907D01*
X002215Y000937D01*
X002249Y000965D01*
X002284Y000989D01*
X002322Y001010D01*
X002361Y001027D01*
X002402Y001041D01*
X002444Y001051D01*
X002487Y001057D01*
X002530Y001059D01*
X002573Y001057D01*
X002616Y001051D01*
X002658Y001041D01*
X002699Y001027D01*
X002738Y001010D01*
X002776Y000989D01*
X002811Y000965D01*
X002845Y000937D01*
X002875Y000907D01*
X002903Y000873D01*
X002927Y000838D01*
X002948Y000800D01*
X002965Y000761D01*
X002979Y000720D01*
X002989Y000678D01*
X002995Y000635D01*
X002997Y000592D01*
X002995Y000549D01*
X002989Y000506D01*
X002979Y000464D01*
X002965Y000423D01*
X002948Y000384D01*
X002927Y000346D01*
X002903Y000311D01*
X002875Y000277D01*
X002845Y000247D01*
X002811Y000219D01*
X002776Y000195D01*
X002738Y000174D01*
X002699Y000157D01*
X002658Y000143D01*
X002616Y000133D01*
X002573Y000127D01*
X002530Y000125D01*
X002487Y000127D01*
X002444Y000133D01*
X002402Y000143D01*
X002361Y000157D01*
X002322Y000174D01*
X002284Y000195D01*
X002249Y000219D01*
X002215Y000247D01*
X002185Y000277D01*
X002157Y000311D01*
X002133Y000346D01*
X002112Y000384D01*
X002095Y000423D01*
X002081Y000464D01*
X002071Y000506D01*
X002065Y000549D01*
X002063Y000592D01*
X003105Y001192D02*
X003107Y001218D01*
X003113Y001244D01*
X003122Y001268D01*
X003135Y001291D01*
X003152Y001311D01*
X003171Y001329D01*
X003193Y001344D01*
X003216Y001355D01*
X003241Y001363D01*
X003267Y001367D01*
X003293Y001367D01*
X003319Y001363D01*
X003344Y001355D01*
X003368Y001344D01*
X003389Y001329D01*
X003408Y001311D01*
X003425Y001291D01*
X003438Y001268D01*
X003447Y001244D01*
X003453Y001218D01*
X003455Y001192D01*
X003453Y001166D01*
X003447Y001140D01*
X003438Y001116D01*
X003425Y001093D01*
X003408Y001073D01*
X003389Y001055D01*
X003367Y001040D01*
X003344Y001029D01*
X003319Y001021D01*
X003293Y001017D01*
X003267Y001017D01*
X003241Y001021D01*
X003216Y001029D01*
X003192Y001040D01*
X003171Y001055D01*
X003152Y001073D01*
X003135Y001093D01*
X003122Y001116D01*
X003113Y001140D01*
X003107Y001166D01*
X003105Y001192D01*
X001105Y001592D02*
X001107Y001618D01*
X001113Y001644D01*
X001122Y001668D01*
X001135Y001691D01*
X001152Y001711D01*
X001171Y001729D01*
X001193Y001744D01*
X001216Y001755D01*
X001241Y001763D01*
X001267Y001767D01*
X001293Y001767D01*
X001319Y001763D01*
X001344Y001755D01*
X001368Y001744D01*
X001389Y001729D01*
X001408Y001711D01*
X001425Y001691D01*
X001438Y001668D01*
X001447Y001644D01*
X001453Y001618D01*
X001455Y001592D01*
X001453Y001566D01*
X001447Y001540D01*
X001438Y001516D01*
X001425Y001493D01*
X001408Y001473D01*
X001389Y001455D01*
X001367Y001440D01*
X001344Y001429D01*
X001319Y001421D01*
X001293Y001417D01*
X001267Y001417D01*
X001241Y001421D01*
X001216Y001429D01*
X001192Y001440D01*
X001171Y001455D01*
X001152Y001473D01*
X001135Y001493D01*
X001122Y001516D01*
X001113Y001540D01*
X001107Y001566D01*
X001105Y001592D01*
X003105Y001992D02*
X003107Y002018D01*
X003113Y002044D01*
X003122Y002068D01*
X003135Y002091D01*
X003152Y002111D01*
X003171Y002129D01*
X003193Y002144D01*
X003216Y002155D01*
X003241Y002163D01*
X003267Y002167D01*
X003293Y002167D01*
X003319Y002163D01*
X003344Y002155D01*
X003368Y002144D01*
X003389Y002129D01*
X003408Y002111D01*
X003425Y002091D01*
X003438Y002068D01*
X003447Y002044D01*
X003453Y002018D01*
X003455Y001992D01*
X003453Y001966D01*
X003447Y001940D01*
X003438Y001916D01*
X003425Y001893D01*
X003408Y001873D01*
X003389Y001855D01*
X003367Y001840D01*
X003344Y001829D01*
X003319Y001821D01*
X003293Y001817D01*
X003267Y001817D01*
X003241Y001821D01*
X003216Y001829D01*
X003192Y001840D01*
X003171Y001855D01*
X003152Y001873D01*
X003135Y001893D01*
X003122Y001916D01*
X003113Y001940D01*
X003107Y001966D01*
X003105Y001992D01*
X002063Y002592D02*
X002065Y002635D01*
X002071Y002678D01*
X002081Y002720D01*
X002095Y002761D01*
X002112Y002800D01*
X002133Y002838D01*
X002157Y002873D01*
X002185Y002907D01*
X002215Y002937D01*
X002249Y002965D01*
X002284Y002989D01*
X002322Y003010D01*
X002361Y003027D01*
X002402Y003041D01*
X002444Y003051D01*
X002487Y003057D01*
X002530Y003059D01*
X002573Y003057D01*
X002616Y003051D01*
X002658Y003041D01*
X002699Y003027D01*
X002738Y003010D01*
X002776Y002989D01*
X002811Y002965D01*
X002845Y002937D01*
X002875Y002907D01*
X002903Y002873D01*
X002927Y002838D01*
X002948Y002800D01*
X002965Y002761D01*
X002979Y002720D01*
X002989Y002678D01*
X002995Y002635D01*
X002997Y002592D01*
X002995Y002549D01*
X002989Y002506D01*
X002979Y002464D01*
X002965Y002423D01*
X002948Y002384D01*
X002927Y002346D01*
X002903Y002311D01*
X002875Y002277D01*
X002845Y002247D01*
X002811Y002219D01*
X002776Y002195D01*
X002738Y002174D01*
X002699Y002157D01*
X002658Y002143D01*
X002616Y002133D01*
X002573Y002127D01*
X002530Y002125D01*
X002487Y002127D01*
X002444Y002133D01*
X002402Y002143D01*
X002361Y002157D01*
X002322Y002174D01*
X002284Y002195D01*
X002249Y002219D01*
X002215Y002247D01*
X002185Y002277D01*
X002157Y002311D01*
X002133Y002346D01*
X002112Y002384D01*
X002095Y002423D01*
X002081Y002464D01*
X002071Y002506D01*
X002065Y002549D01*
X002063Y002592D01*
X000813Y002592D02*
X000815Y002635D01*
X000821Y002678D01*
X000831Y002720D01*
X000845Y002761D01*
X000862Y002800D01*
X000883Y002838D01*
X000907Y002873D01*
X000935Y002907D01*
X000965Y002937D01*
X000999Y002965D01*
X001034Y002989D01*
X001072Y003010D01*
X001111Y003027D01*
X001152Y003041D01*
X001194Y003051D01*
X001237Y003057D01*
X001280Y003059D01*
X001323Y003057D01*
X001366Y003051D01*
X001408Y003041D01*
X001449Y003027D01*
X001488Y003010D01*
X001526Y002989D01*
X001561Y002965D01*
X001595Y002937D01*
X001625Y002907D01*
X001653Y002873D01*
X001677Y002838D01*
X001698Y002800D01*
X001715Y002761D01*
X001729Y002720D01*
X001739Y002678D01*
X001745Y002635D01*
X001747Y002592D01*
X001745Y002549D01*
X001739Y002506D01*
X001729Y002464D01*
X001715Y002423D01*
X001698Y002384D01*
X001677Y002346D01*
X001653Y002311D01*
X001625Y002277D01*
X001595Y002247D01*
X001561Y002219D01*
X001526Y002195D01*
X001488Y002174D01*
X001449Y002157D01*
X001408Y002143D01*
X001366Y002133D01*
X001323Y002127D01*
X001280Y002125D01*
X001237Y002127D01*
X001194Y002133D01*
X001152Y002143D01*
X001111Y002157D01*
X001072Y002174D01*
X001034Y002195D01*
X000999Y002219D01*
X000965Y002247D01*
X000935Y002277D01*
X000907Y002311D01*
X000883Y002346D01*
X000862Y002384D01*
X000845Y002423D01*
X000831Y002464D01*
X000821Y002506D01*
X000815Y002549D01*
X000813Y002592D01*
X005605Y001592D02*
X005607Y001618D01*
X005613Y001644D01*
X005622Y001668D01*
X005635Y001691D01*
X005652Y001711D01*
X005671Y001729D01*
X005693Y001744D01*
X005716Y001755D01*
X005741Y001763D01*
X005767Y001767D01*
X005793Y001767D01*
X005819Y001763D01*
X005844Y001755D01*
X005868Y001744D01*
X005889Y001729D01*
X005908Y001711D01*
X005925Y001691D01*
X005938Y001668D01*
X005947Y001644D01*
X005953Y001618D01*
X005955Y001592D01*
X005953Y001566D01*
X005947Y001540D01*
X005938Y001516D01*
X005925Y001493D01*
X005908Y001473D01*
X005889Y001455D01*
X005867Y001440D01*
X005844Y001429D01*
X005819Y001421D01*
X005793Y001417D01*
X005767Y001417D01*
X005741Y001421D01*
X005716Y001429D01*
X005692Y001440D01*
X005671Y001455D01*
X005652Y001473D01*
X005635Y001493D01*
X005622Y001516D01*
X005613Y001540D01*
X005607Y001566D01*
X005605Y001592D01*
X007605Y001192D02*
X007607Y001218D01*
X007613Y001244D01*
X007622Y001268D01*
X007635Y001291D01*
X007652Y001311D01*
X007671Y001329D01*
X007693Y001344D01*
X007716Y001355D01*
X007741Y001363D01*
X007767Y001367D01*
X007793Y001367D01*
X007819Y001363D01*
X007844Y001355D01*
X007868Y001344D01*
X007889Y001329D01*
X007908Y001311D01*
X007925Y001291D01*
X007938Y001268D01*
X007947Y001244D01*
X007953Y001218D01*
X007955Y001192D01*
X007953Y001166D01*
X007947Y001140D01*
X007938Y001116D01*
X007925Y001093D01*
X007908Y001073D01*
X007889Y001055D01*
X007867Y001040D01*
X007844Y001029D01*
X007819Y001021D01*
X007793Y001017D01*
X007767Y001017D01*
X007741Y001021D01*
X007716Y001029D01*
X007692Y001040D01*
X007671Y001055D01*
X007652Y001073D01*
X007635Y001093D01*
X007622Y001116D01*
X007613Y001140D01*
X007607Y001166D01*
X007605Y001192D01*
X010215Y001592D02*
X010217Y001627D01*
X010223Y001662D01*
X010233Y001696D01*
X010246Y001729D01*
X010263Y001760D01*
X010284Y001788D01*
X010307Y001815D01*
X010334Y001838D01*
X010362Y001859D01*
X010393Y001876D01*
X010426Y001889D01*
X010460Y001899D01*
X010495Y001905D01*
X010530Y001907D01*
X010565Y001905D01*
X010600Y001899D01*
X010634Y001889D01*
X010667Y001876D01*
X010698Y001859D01*
X010726Y001838D01*
X010753Y001815D01*
X010776Y001788D01*
X010797Y001760D01*
X010814Y001729D01*
X010827Y001696D01*
X010837Y001662D01*
X010843Y001627D01*
X010845Y001592D01*
X010843Y001557D01*
X010837Y001522D01*
X010827Y001488D01*
X010814Y001455D01*
X010797Y001424D01*
X010776Y001396D01*
X010753Y001369D01*
X010726Y001346D01*
X010698Y001325D01*
X010667Y001308D01*
X010634Y001295D01*
X010600Y001285D01*
X010565Y001279D01*
X010530Y001277D01*
X010495Y001279D01*
X010460Y001285D01*
X010426Y001295D01*
X010393Y001308D01*
X010362Y001325D01*
X010334Y001346D01*
X010307Y001369D01*
X010284Y001396D01*
X010263Y001424D01*
X010246Y001455D01*
X010233Y001488D01*
X010223Y001522D01*
X010217Y001557D01*
X010215Y001592D01*
X012215Y001192D02*
X012217Y001227D01*
X012223Y001262D01*
X012233Y001296D01*
X012246Y001329D01*
X012263Y001360D01*
X012284Y001388D01*
X012307Y001415D01*
X012334Y001438D01*
X012362Y001459D01*
X012393Y001476D01*
X012426Y001489D01*
X012460Y001499D01*
X012495Y001505D01*
X012530Y001507D01*
X012565Y001505D01*
X012600Y001499D01*
X012634Y001489D01*
X012667Y001476D01*
X012698Y001459D01*
X012726Y001438D01*
X012753Y001415D01*
X012776Y001388D01*
X012797Y001360D01*
X012814Y001329D01*
X012827Y001296D01*
X012837Y001262D01*
X012843Y001227D01*
X012845Y001192D01*
X012843Y001157D01*
X012837Y001122D01*
X012827Y001088D01*
X012814Y001055D01*
X012797Y001024D01*
X012776Y000996D01*
X012753Y000969D01*
X012726Y000946D01*
X012698Y000925D01*
X012667Y000908D01*
X012634Y000895D01*
X012600Y000885D01*
X012565Y000879D01*
X012530Y000877D01*
X012495Y000879D01*
X012460Y000885D01*
X012426Y000895D01*
X012393Y000908D01*
X012362Y000925D01*
X012334Y000946D01*
X012307Y000969D01*
X012284Y000996D01*
X012263Y001024D01*
X012246Y001055D01*
X012233Y001088D01*
X012223Y001122D01*
X012217Y001157D01*
X012215Y001192D01*
X012215Y001992D02*
X012217Y002027D01*
X012223Y002062D01*
X012233Y002096D01*
X012246Y002129D01*
X012263Y002160D01*
X012284Y002188D01*
X012307Y002215D01*
X012334Y002238D01*
X012362Y002259D01*
X012393Y002276D01*
X012426Y002289D01*
X012460Y002299D01*
X012495Y002305D01*
X012530Y002307D01*
X012565Y002305D01*
X012600Y002299D01*
X012634Y002289D01*
X012667Y002276D01*
X012698Y002259D01*
X012726Y002238D01*
X012753Y002215D01*
X012776Y002188D01*
X012797Y002160D01*
X012814Y002129D01*
X012827Y002096D01*
X012837Y002062D01*
X012843Y002027D01*
X012845Y001992D01*
X012843Y001957D01*
X012837Y001922D01*
X012827Y001888D01*
X012814Y001855D01*
X012797Y001824D01*
X012776Y001796D01*
X012753Y001769D01*
X012726Y001746D01*
X012698Y001725D01*
X012667Y001708D01*
X012634Y001695D01*
X012600Y001685D01*
X012565Y001679D01*
X012530Y001677D01*
X012495Y001679D01*
X012460Y001685D01*
X012426Y001695D01*
X012393Y001708D01*
X012362Y001725D01*
X012334Y001746D01*
X012307Y001769D01*
X012284Y001796D01*
X012263Y001824D01*
X012246Y001855D01*
X012233Y001888D01*
X012223Y001922D01*
X012217Y001957D01*
X012215Y001992D01*
X007605Y001992D02*
X007607Y002018D01*
X007613Y002044D01*
X007622Y002068D01*
X007635Y002091D01*
X007652Y002111D01*
X007671Y002129D01*
X007693Y002144D01*
X007716Y002155D01*
X007741Y002163D01*
X007767Y002167D01*
X007793Y002167D01*
X007819Y002163D01*
X007844Y002155D01*
X007868Y002144D01*
X007889Y002129D01*
X007908Y002111D01*
X007925Y002091D01*
X007938Y002068D01*
X007947Y002044D01*
X007953Y002018D01*
X007955Y001992D01*
X007953Y001966D01*
X007947Y001940D01*
X007938Y001916D01*
X007925Y001893D01*
X007908Y001873D01*
X007889Y001855D01*
X007867Y001840D01*
X007844Y001829D01*
X007819Y001821D01*
X007793Y001817D01*
X007767Y001817D01*
X007741Y001821D01*
X007716Y001829D01*
X007692Y001840D01*
X007671Y001855D01*
X007652Y001873D01*
X007635Y001893D01*
X007622Y001916D01*
X007613Y001940D01*
X007607Y001966D01*
X007605Y001992D01*
D11*
X006317Y002112D02*
X006010Y002112D01*
X006317Y002419D01*
X006317Y002496D01*
X006241Y002573D01*
X006087Y002573D01*
X006010Y002496D01*
X005857Y002573D02*
X005550Y002112D01*
X005857Y002112D02*
X005550Y002573D01*
X010050Y002362D02*
X010357Y002823D01*
X010510Y002746D02*
X010587Y002823D01*
X010741Y002823D01*
X010817Y002746D01*
X010817Y002669D01*
X010741Y002593D01*
X010817Y002516D01*
X010817Y002439D01*
X010741Y002362D01*
X010587Y002362D01*
X010510Y002439D01*
X010357Y002362D02*
X010050Y002823D01*
X010664Y002593D02*
X010741Y002593D01*
X000760Y001380D02*
X000760Y001073D01*
X000453Y001073D02*
X000300Y001226D01*
X000760Y001226D01*
X000760Y000919D02*
X000300Y000612D01*
X000300Y000919D02*
X000760Y000612D01*
M02*
