G04 FreePCB version 1.355*
G04 C:\FreePCB\CAM\top_silk.grb*
G04 top silk layer *
G04 Scale: 100 percent, Rotated: No, Reflected: No *
%FSLAX24Y24*%
%MOIN*%
%LN top silk *%
G04 Rounded Rectangle Macro, params: W/2, H/2, R *
%AMRNDREC*
21,1,$1+$1,$2+$2-$3-$3,0,0,0*
21,1,$1+$1-$3-$3,$2+$2,0,0,0*
1,1,$3+$3,$1-$3,$2-$3*
1,1,$3+$3,$3-$1,$2-$3*
1,1,$3+$3,$1-$3,$3-$2*
1,1,$3+$3,$3-$1,$3-$2*%
G04 Rectangular Thermal Macro, params: W/2, H/2, T/2 *
%AMRECTHERM*
$4=$3/2*
21,1,$1-$3,$2-$3,0-$1/2-$4,0-$2/2-$4,0*
21,1,$1-$3,$2-$3,0-$1/2-$4,$2/2+$4,0*
21,1,$1-$3,$2-$3,$1/2+$4,0-$2/2-$4,0*
21,1,$1-$3,$2-$3,$1/2+$4,$2/2+$4,0*%
%ADD10C,0.005000*%
G90*
G70D02*

G04 Step and Repeat for panelization *

G04 ----------------------- Draw board outline (positive)*
%LPD*%
G54D10*
G01X0Y6000D02*
G01X0Y0D01*
G04 end of side 1*
G01X26000Y0D01*
G04 end of side 2*
G01X26000Y6000D01*
G04 end of side 3*
G01X0Y6000D01*

G04 -------------- Draw Parts, Pads, Traces, Vias and Text (positive)*
%LPD*%
G04 Draw part LIB_1*
G04 draw part outline for part LIB_1*
G04 draw value for part LIB_1*
G54D10*
G01X1159Y4527D02*
G01X1159Y4050D01*
G01X1318Y4527D02*
G01X1000Y4527D01*
G01X1818Y4459D02*
G01X1840Y4413D01*
G01X1772Y4504D02*
G01X1818Y4459D01*
G01X1727Y4527D02*
G01X1772Y4504D01*
G01X1636Y4527D02*
G01X1727Y4527D01*
G01X1636Y4527D02*
G01X1590Y4504D01*
G01X1590Y4504D02*
G01X1545Y4459D01*
G01X1545Y4459D02*
G01X1522Y4413D01*
G01X1522Y4413D02*
G01X1500Y4345D01*
G01X1500Y4345D02*
G01X1500Y4231D01*
G01X1500Y4231D02*
G01X1522Y4163D01*
G01X1522Y4163D02*
G01X1545Y4118D01*
G01X1545Y4118D02*
G01X1590Y4072D01*
G01X1590Y4072D02*
G01X1636Y4050D01*
G01X1727Y4050D02*
G01X1636Y4050D01*
G01X1772Y4072D02*
G01X1727Y4050D01*
G01X1818Y4118D02*
G01X1772Y4072D01*
G01X1840Y4163D02*
G01X1818Y4118D01*
G01X2045Y4436D02*
G01X2045Y4413D01*
G01X2068Y4481D02*
G01X2045Y4436D01*
G01X2090Y4504D02*
G01X2068Y4481D01*
G01X2136Y4527D02*
G01X2090Y4504D01*
G01X2227Y4527D02*
G01X2136Y4527D01*
G01X2227Y4527D02*
G01X2272Y4504D01*
G01X2272Y4504D02*
G01X2295Y4481D01*
G01X2295Y4481D02*
G01X2318Y4436D01*
G01X2318Y4436D02*
G01X2318Y4390D01*
G01X2318Y4390D02*
G01X2295Y4345D01*
G01X2295Y4345D02*
G01X2250Y4277D01*
G01X2250Y4277D02*
G01X2022Y4050D01*
G01X2340Y4050D02*
G01X2022Y4050D01*
G01X2659Y4527D02*
G01X2590Y4504D01*
G01X2590Y4504D02*
G01X2545Y4436D01*
G01X2545Y4436D02*
G01X2522Y4322D01*
G01X2522Y4322D02*
G01X2522Y4254D01*
G01X2522Y4254D02*
G01X2545Y4140D01*
G01X2545Y4140D02*
G01X2590Y4072D01*
G01X2590Y4072D02*
G01X2659Y4050D01*
G01X2704Y4050D02*
G01X2659Y4050D01*
G01X2772Y4072D02*
G01X2704Y4050D01*
G01X2818Y4140D02*
G01X2772Y4072D01*
G01X2840Y4254D02*
G01X2818Y4140D01*
G01X2840Y4322D02*
G01X2840Y4254D01*
G01X2818Y4436D02*
G01X2840Y4322D01*
G01X2772Y4504D02*
G01X2818Y4436D01*
G01X2704Y4527D02*
G01X2772Y4504D01*
G01X2659Y4527D02*
G01X2704Y4527D01*
G01X3318Y4527D02*
G01X3068Y4527D01*
G01X3318Y4527D02*
G01X3181Y4345D01*
G01X3250Y4345D02*
G01X3181Y4345D01*
G01X3250Y4345D02*
G01X3295Y4322D01*
G01X3295Y4322D02*
G01X3318Y4300D01*
G01X3318Y4300D02*
G01X3340Y4231D01*
G01X3340Y4231D02*
G01X3340Y4186D01*
G01X3340Y4186D02*
G01X3318Y4118D01*
G01X3318Y4118D02*
G01X3272Y4072D01*
G01X3272Y4072D02*
G01X3204Y4050D01*
G01X3136Y4050D02*
G01X3204Y4050D01*
G01X3068Y4072D02*
G01X3136Y4050D01*
G01X3045Y4095D02*
G01X3068Y4072D01*
G01X3022Y4140D02*
G01X3045Y4095D01*
G01X3659Y4527D02*
G01X3590Y4504D01*
G01X3590Y4504D02*
G01X3545Y4436D01*
G01X3545Y4436D02*
G01X3522Y4322D01*
G01X3522Y4322D02*
G01X3522Y4254D01*
G01X3522Y4254D02*
G01X3545Y4140D01*
G01X3545Y4140D02*
G01X3590Y4072D01*
G01X3590Y4072D02*
G01X3659Y4050D01*
G01X3704Y4050D02*
G01X3659Y4050D01*
G01X3772Y4072D02*
G01X3704Y4050D01*
G01X3818Y4140D02*
G01X3772Y4072D01*
G01X3840Y4254D02*
G01X3818Y4140D01*
G01X3840Y4322D02*
G01X3840Y4254D01*
G01X3818Y4436D02*
G01X3840Y4322D01*
G01X3772Y4504D02*
G01X3818Y4436D01*
G01X3704Y4527D02*
G01X3772Y4504D01*
G01X3659Y4527D02*
G01X3704Y4527D01*
G01X4431Y4254D02*
G01X4022Y4254D01*
G01X4613Y4527D02*
G01X4613Y4050D01*
G01X4613Y4527D02*
G01X4795Y4050D01*
G01X4977Y4527D02*
G01X4795Y4050D01*
G01X4977Y4527D02*
G01X4977Y4050D01*
G01X5477Y4459D02*
G01X5500Y4413D01*
G01X5431Y4504D02*
G01X5477Y4459D01*
G01X5386Y4527D02*
G01X5431Y4504D01*
G01X5295Y4527D02*
G01X5386Y4527D01*
G01X5295Y4527D02*
G01X5250Y4504D01*
G01X5250Y4504D02*
G01X5204Y4459D01*
G01X5204Y4459D02*
G01X5181Y4413D01*
G01X5181Y4413D02*
G01X5159Y4345D01*
G01X5159Y4345D02*
G01X5159Y4231D01*
G01X5159Y4231D02*
G01X5181Y4163D01*
G01X5181Y4163D02*
G01X5204Y4118D01*
G01X5204Y4118D02*
G01X5250Y4072D01*
G01X5250Y4072D02*
G01X5295Y4050D01*
G01X5386Y4050D02*
G01X5295Y4050D01*
G01X5431Y4072D02*
G01X5386Y4050D01*
G01X5477Y4118D02*
G01X5431Y4072D01*
G01X5500Y4163D02*
G01X5477Y4118D01*
G01X5681Y4527D02*
G01X5681Y4050D01*
G01X5886Y4527D02*
G01X5681Y4527D01*
G01X5886Y4527D02*
G01X5954Y4504D01*
G01X5954Y4504D02*
G01X5977Y4481D01*
G01X5977Y4481D02*
G01X6000Y4436D01*
G01X6000Y4436D02*
G01X6000Y4368D01*
G01X6000Y4368D02*
G01X5977Y4322D01*
G01X5977Y4322D02*
G01X5954Y4300D01*
G01X5954Y4300D02*
G01X5886Y4277D01*
G01X5681Y4277D02*
G01X5886Y4277D01*
G04 Draw part LIB_2*
G04 draw part outline for part LIB_2*
G04 draw value for part LIB_2*
G01X8209Y4527D02*
G01X8209Y4050D01*
G01X8368Y4527D02*
G01X8050Y4527D01*
G01X8868Y4459D02*
G01X8890Y4413D01*
G01X8822Y4504D02*
G01X8868Y4459D01*
G01X8777Y4527D02*
G01X8822Y4504D01*
G01X8686Y4527D02*
G01X8777Y4527D01*
G01X8686Y4527D02*
G01X8640Y4504D01*
G01X8640Y4504D02*
G01X8595Y4459D01*
G01X8595Y4459D02*
G01X8572Y4413D01*
G01X8572Y4413D02*
G01X8550Y4345D01*
G01X8550Y4345D02*
G01X8550Y4231D01*
G01X8550Y4231D02*
G01X8572Y4163D01*
G01X8572Y4163D02*
G01X8595Y4118D01*
G01X8595Y4118D02*
G01X8640Y4072D01*
G01X8640Y4072D02*
G01X8686Y4050D01*
G01X8777Y4050D02*
G01X8686Y4050D01*
G01X8822Y4072D02*
G01X8777Y4050D01*
G01X8868Y4118D02*
G01X8822Y4072D01*
G01X8890Y4163D02*
G01X8868Y4118D01*
G01X9095Y4436D02*
G01X9095Y4413D01*
G01X9118Y4481D02*
G01X9095Y4436D01*
G01X9140Y4504D02*
G01X9118Y4481D01*
G01X9186Y4527D02*
G01X9140Y4504D01*
G01X9277Y4527D02*
G01X9186Y4527D01*
G01X9277Y4527D02*
G01X9322Y4504D01*
G01X9322Y4504D02*
G01X9345Y4481D01*
G01X9345Y4481D02*
G01X9368Y4436D01*
G01X9368Y4436D02*
G01X9368Y4390D01*
G01X9368Y4390D02*
G01X9345Y4345D01*
G01X9345Y4345D02*
G01X9300Y4277D01*
G01X9300Y4277D02*
G01X9072Y4050D01*
G01X9390Y4050D02*
G01X9072Y4050D01*
G01X9709Y4527D02*
G01X9640Y4504D01*
G01X9640Y4504D02*
G01X9595Y4436D01*
G01X9595Y4436D02*
G01X9572Y4322D01*
G01X9572Y4322D02*
G01X9572Y4254D01*
G01X9572Y4254D02*
G01X9595Y4140D01*
G01X9595Y4140D02*
G01X9640Y4072D01*
G01X9640Y4072D02*
G01X9709Y4050D01*
G01X9754Y4050D02*
G01X9709Y4050D01*
G01X9822Y4072D02*
G01X9754Y4050D01*
G01X9868Y4140D02*
G01X9822Y4072D01*
G01X9890Y4254D02*
G01X9868Y4140D01*
G01X9890Y4322D02*
G01X9890Y4254D01*
G01X9868Y4436D02*
G01X9890Y4322D01*
G01X9822Y4504D02*
G01X9868Y4436D01*
G01X9754Y4527D02*
G01X9822Y4504D01*
G01X9709Y4527D02*
G01X9754Y4527D01*
G01X10368Y4527D02*
G01X10118Y4527D01*
G01X10368Y4527D02*
G01X10231Y4345D01*
G01X10300Y4345D02*
G01X10231Y4345D01*
G01X10300Y4345D02*
G01X10345Y4322D01*
G01X10345Y4322D02*
G01X10368Y4300D01*
G01X10368Y4300D02*
G01X10390Y4231D01*
G01X10390Y4231D02*
G01X10390Y4186D01*
G01X10390Y4186D02*
G01X10368Y4118D01*
G01X10368Y4118D02*
G01X10322Y4072D01*
G01X10322Y4072D02*
G01X10254Y4050D01*
G01X10186Y4050D02*
G01X10254Y4050D01*
G01X10118Y4072D02*
G01X10186Y4050D01*
G01X10095Y4095D02*
G01X10118Y4072D01*
G01X10072Y4140D02*
G01X10095Y4095D01*
G01X10709Y4527D02*
G01X10640Y4504D01*
G01X10640Y4504D02*
G01X10595Y4436D01*
G01X10595Y4436D02*
G01X10572Y4322D01*
G01X10572Y4322D02*
G01X10572Y4254D01*
G01X10572Y4254D02*
G01X10595Y4140D01*
G01X10595Y4140D02*
G01X10640Y4072D01*
G01X10640Y4072D02*
G01X10709Y4050D01*
G01X10754Y4050D02*
G01X10709Y4050D01*
G01X10822Y4072D02*
G01X10754Y4050D01*
G01X10868Y4140D02*
G01X10822Y4072D01*
G01X10890Y4254D02*
G01X10868Y4140D01*
G01X10890Y4322D02*
G01X10890Y4254D01*
G01X10868Y4436D02*
G01X10890Y4322D01*
G01X10822Y4504D02*
G01X10868Y4436D01*
G01X10754Y4527D02*
G01X10822Y4504D01*
G01X10709Y4527D02*
G01X10754Y4527D01*
G01X11481Y4254D02*
G01X11072Y4254D01*
G01X11663Y4527D02*
G01X11663Y4050D01*
G01X11663Y4527D02*
G01X11845Y4050D01*
G01X12027Y4527D02*
G01X11845Y4050D01*
G01X12027Y4527D02*
G01X12027Y4050D01*
G01X12527Y4459D02*
G01X12550Y4413D01*
G01X12481Y4504D02*
G01X12527Y4459D01*
G01X12436Y4527D02*
G01X12481Y4504D01*
G01X12345Y4527D02*
G01X12436Y4527D01*
G01X12345Y4527D02*
G01X12300Y4504D01*
G01X12300Y4504D02*
G01X12254Y4459D01*
G01X12254Y4459D02*
G01X12231Y4413D01*
G01X12231Y4413D02*
G01X12209Y4345D01*
G01X12209Y4345D02*
G01X12209Y4231D01*
G01X12209Y4231D02*
G01X12231Y4163D01*
G01X12231Y4163D02*
G01X12254Y4118D01*
G01X12254Y4118D02*
G01X12300Y4072D01*
G01X12300Y4072D02*
G01X12345Y4050D01*
G01X12436Y4050D02*
G01X12345Y4050D01*
G01X12481Y4072D02*
G01X12436Y4050D01*
G01X12527Y4118D02*
G01X12481Y4072D01*
G01X12550Y4163D02*
G01X12527Y4118D01*
G01X12731Y4527D02*
G01X12731Y4050D01*
G01X12936Y4527D02*
G01X12731Y4527D01*
G01X12936Y4527D02*
G01X13004Y4504D01*
G01X13004Y4504D02*
G01X13027Y4481D01*
G01X13027Y4481D02*
G01X13050Y4436D01*
G01X13050Y4436D02*
G01X13050Y4368D01*
G01X13050Y4368D02*
G01X13027Y4322D01*
G01X13027Y4322D02*
G01X13004Y4300D01*
G01X13004Y4300D02*
G01X12936Y4277D01*
G01X12731Y4277D02*
G01X12936Y4277D01*
G01X13640Y4254D02*
G01X13231Y4254D01*
G01X13822Y4527D02*
G01X13822Y4050D01*
G01X13822Y4527D02*
G01X14140Y4050D01*
G01X14140Y4527D02*
G01X14140Y4050D01*
G01X14322Y4527D02*
G01X14322Y4050D01*
G01X14595Y4050D02*
G01X14322Y4050D01*
G04 Draw part LIB_3*
G04 draw part outline for part LIB_3*
G04 draw value for part LIB_3*
G01X16804Y4527D02*
G01X16804Y4050D01*
G01X16963Y4527D02*
G01X16645Y4527D01*
G01X17463Y4459D02*
G01X17486Y4413D01*
G01X17418Y4504D02*
G01X17463Y4459D01*
G01X17372Y4527D02*
G01X17418Y4504D01*
G01X17281Y4527D02*
G01X17372Y4527D01*
G01X17281Y4527D02*
G01X17236Y4504D01*
G01X17236Y4504D02*
G01X17190Y4459D01*
G01X17190Y4459D02*
G01X17168Y4413D01*
G01X17168Y4413D02*
G01X17145Y4345D01*
G01X17145Y4345D02*
G01X17145Y4231D01*
G01X17145Y4231D02*
G01X17168Y4163D01*
G01X17168Y4163D02*
G01X17190Y4118D01*
G01X17190Y4118D02*
G01X17236Y4072D01*
G01X17236Y4072D02*
G01X17281Y4050D01*
G01X17372Y4050D02*
G01X17281Y4050D01*
G01X17418Y4072D02*
G01X17372Y4050D01*
G01X17463Y4118D02*
G01X17418Y4072D01*
G01X17486Y4163D02*
G01X17463Y4118D01*
G01X17690Y4436D02*
G01X17690Y4413D01*
G01X17713Y4481D02*
G01X17690Y4436D01*
G01X17736Y4504D02*
G01X17713Y4481D01*
G01X17781Y4527D02*
G01X17736Y4504D01*
G01X17872Y4527D02*
G01X17781Y4527D01*
G01X17872Y4527D02*
G01X17918Y4504D01*
G01X17918Y4504D02*
G01X17940Y4481D01*
G01X17940Y4481D02*
G01X17963Y4436D01*
G01X17963Y4436D02*
G01X17963Y4390D01*
G01X17963Y4390D02*
G01X17940Y4345D01*
G01X17940Y4345D02*
G01X17895Y4277D01*
G01X17895Y4277D02*
G01X17668Y4050D01*
G01X17986Y4050D02*
G01X17668Y4050D01*
G01X18304Y4527D02*
G01X18236Y4504D01*
G01X18236Y4504D02*
G01X18190Y4436D01*
G01X18190Y4436D02*
G01X18168Y4322D01*
G01X18168Y4322D02*
G01X18168Y4254D01*
G01X18168Y4254D02*
G01X18190Y4140D01*
G01X18190Y4140D02*
G01X18236Y4072D01*
G01X18236Y4072D02*
G01X18304Y4050D01*
G01X18349Y4050D02*
G01X18304Y4050D01*
G01X18418Y4072D02*
G01X18349Y4050D01*
G01X18463Y4140D02*
G01X18418Y4072D01*
G01X18486Y4254D02*
G01X18463Y4140D01*
G01X18486Y4322D02*
G01X18486Y4254D01*
G01X18463Y4436D02*
G01X18486Y4322D01*
G01X18418Y4504D02*
G01X18463Y4436D01*
G01X18349Y4527D02*
G01X18418Y4504D01*
G01X18304Y4527D02*
G01X18349Y4527D01*
G01X18963Y4527D02*
G01X18713Y4527D01*
G01X18963Y4527D02*
G01X18827Y4345D01*
G01X18895Y4345D02*
G01X18827Y4345D01*
G01X18895Y4345D02*
G01X18940Y4322D01*
G01X18940Y4322D02*
G01X18963Y4300D01*
G01X18963Y4300D02*
G01X18986Y4231D01*
G01X18986Y4231D02*
G01X18986Y4186D01*
G01X18986Y4186D02*
G01X18963Y4118D01*
G01X18963Y4118D02*
G01X18918Y4072D01*
G01X18918Y4072D02*
G01X18849Y4050D01*
G01X18781Y4050D02*
G01X18849Y4050D01*
G01X18713Y4072D02*
G01X18781Y4050D01*
G01X18690Y4095D02*
G01X18713Y4072D01*
G01X18668Y4140D02*
G01X18690Y4095D01*
G01X19304Y4527D02*
G01X19236Y4504D01*
G01X19236Y4504D02*
G01X19190Y4436D01*
G01X19190Y4436D02*
G01X19168Y4322D01*
G01X19168Y4322D02*
G01X19168Y4254D01*
G01X19168Y4254D02*
G01X19190Y4140D01*
G01X19190Y4140D02*
G01X19236Y4072D01*
G01X19236Y4072D02*
G01X19304Y4050D01*
G01X19349Y4050D02*
G01X19304Y4050D01*
G01X19418Y4072D02*
G01X19349Y4050D01*
G01X19463Y4140D02*
G01X19418Y4072D01*
G01X19486Y4254D02*
G01X19463Y4140D01*
G01X19486Y4322D02*
G01X19486Y4254D01*
G01X19463Y4436D02*
G01X19486Y4322D01*
G01X19418Y4504D02*
G01X19463Y4436D01*
G01X19349Y4527D02*
G01X19418Y4504D01*
G01X19304Y4527D02*
G01X19349Y4527D01*
G01X20077Y4254D02*
G01X19668Y4254D01*
G01X20259Y4527D02*
G01X20259Y4050D01*
G01X20259Y4527D02*
G01X20440Y4050D01*
G01X20622Y4527D02*
G01X20440Y4050D01*
G01X20622Y4527D02*
G01X20622Y4050D01*
G01X21122Y4459D02*
G01X21145Y4413D01*
G01X21077Y4504D02*
G01X21122Y4459D01*
G01X21031Y4527D02*
G01X21077Y4504D01*
G01X20940Y4527D02*
G01X21031Y4527D01*
G01X20940Y4527D02*
G01X20895Y4504D01*
G01X20895Y4504D02*
G01X20849Y4459D01*
G01X20849Y4459D02*
G01X20827Y4413D01*
G01X20827Y4413D02*
G01X20804Y4345D01*
G01X20804Y4345D02*
G01X20804Y4231D01*
G01X20804Y4231D02*
G01X20827Y4163D01*
G01X20827Y4163D02*
G01X20849Y4118D01*
G01X20849Y4118D02*
G01X20895Y4072D01*
G01X20895Y4072D02*
G01X20940Y4050D01*
G01X21031Y4050D02*
G01X20940Y4050D01*
G01X21077Y4072D02*
G01X21031Y4050D01*
G01X21122Y4118D02*
G01X21077Y4072D01*
G01X21145Y4163D02*
G01X21122Y4118D01*
G01X21327Y4527D02*
G01X21327Y4050D01*
G01X21531Y4527D02*
G01X21327Y4527D01*
G01X21531Y4527D02*
G01X21599Y4504D01*
G01X21599Y4504D02*
G01X21622Y4481D01*
G01X21622Y4481D02*
G01X21645Y4436D01*
G01X21645Y4436D02*
G01X21645Y4368D01*
G01X21645Y4368D02*
G01X21622Y4322D01*
G01X21622Y4322D02*
G01X21599Y4300D01*
G01X21599Y4300D02*
G01X21531Y4277D01*
G01X21327Y4277D02*
G01X21531Y4277D01*
G01X22236Y4254D02*
G01X21827Y4254D01*
G01X22418Y4527D02*
G01X22418Y4050D01*
G01X22418Y4527D02*
G01X22736Y4050D01*
G01X22736Y4527D02*
G01X22736Y4050D01*
G01X22918Y4527D02*
G01X22918Y4050D01*
G01X23190Y4050D02*
G01X22918Y4050D01*
G01X23781Y4254D02*
G01X23372Y4254D01*
G01X24145Y4527D02*
G01X23963Y4050D01*
G01X24145Y4527D02*
G01X24327Y4050D01*
G01X24259Y4209D02*
G01X24031Y4209D01*
G01X24509Y4527D02*
G01X24509Y4050D01*
G01X24781Y4050D02*
G01X24509Y4050D01*
G01X25122Y4527D02*
G01X25122Y4050D01*
G01X25281Y4527D02*
G01X24963Y4527D01*

G04 Draw traces*

G04 Draw Text*
M00*
M02*
