G04 ================== begin FILE IDENTIFICATION RECORD ==================*
G04 Layout Name:  C:/OrCAD_Data/TAGCONNECT/TESTBOARD/TEST.brd*
G04 Film Name:    SCREEN*
G04 File Format:  Gerber RS274X*
G04 File Origin:  Cadence Allegro 16.2-s012*
G04 Origin Date:  Tue Aug 25 21:11:41 2009*
G04 *
G04 Layer:  REF DES/SILKSCREEN_TOP*
G04 Layer:  PACKAGE GEOMETRY/SILKSCREEN_TOP*
G04 Layer:  PACKAGE GEOMETRY/DISPLAY_TOP*
G04 Layer:  BOARD GEOMETRY/OUTLINE*
G04 Layer:  BOARD GEOMETRY/SILKSCREEN_TOP*
G04 *
G04 Offset:    (0.00 0.00)*
G04 Mirror:    No*
G04 Mode:      Positive*
G04 Rotation:  0*
G04 FullContactRelief:  No*
G04 UndefLineWidth:     0.00*
G04 ================== end FILE IDENTIFICATION RECORD ====================*
%FSLAX35Y35*MOIN*%
%IR0*IPPOS*OFA0.00000B0.00000*MIA0B0*SFA1.00000B1.00000*%
%ADD10C,.008*%
G75*
%LPD*%
G75*
G54D10*
G01X480000Y394000D02*
Y456000D01*
X620000D01*
Y394000D01*
X480000D01*
G01X495600Y418000D02*
X496400D01*
G01X496000D02*
Y415000D01*
G01X495600D02*
X496400D01*
G01X499333Y417750D02*
X499133Y417900D01*
X498900Y418000D01*
X498633D01*
X498333Y417850D01*
X498100Y417600D01*
X497933Y417300D01*
X497800Y416800D01*
X497767Y416350D01*
X497833Y415900D01*
X497933Y415600D01*
X498133Y415300D01*
X498367Y415100D01*
X498600Y415000D01*
X498833D01*
X499067Y415100D01*
X499267Y415250D01*
X499433Y415450D01*
G01X501200Y415000D02*
Y418000D01*
X500800Y417400D01*
G01Y415000D02*
X501600D01*
G01X506360Y411520D02*
X506320D01*
Y409520D01*
X508320D01*
Y409560D01*
G01X506360Y423280D02*
X506320D01*
Y425280D01*
X508320D01*
Y425240D01*
G01X522040Y411520D02*
X522080D01*
Y409520D01*
X520080D01*
Y409560D01*
G01X561000Y432000D02*
Y420000D01*
X541000D01*
X537000Y424000D01*
Y428000D01*
X541000Y432000D01*
X561000D01*
G01X520080Y425240D02*
Y425280D01*
X522080D01*
X523020Y426220D01*
G01X522080Y425280D02*
Y423280D01*
X522040D01*
G01X512190Y452040D02*
Y449040D01*
G01X511423Y452040D02*
X512957D01*
G01X514123Y449040D02*
Y452040D01*
X514957D01*
X515223Y451890D01*
X515390Y451690D01*
X515457Y451290D01*
X515390Y450890D01*
X515190Y450640D01*
X514957Y450490D01*
X514123D01*
G01X514957D02*
X515457Y449040D01*
G01X516757Y451540D02*
X516957Y451840D01*
X517190Y451990D01*
X517457Y452040D01*
X517790Y451940D01*
X518023Y451690D01*
X518090Y451390D01*
X518057Y451090D01*
X517923Y450840D01*
X517257Y450340D01*
X516957Y449990D01*
X516757Y449490D01*
X516690Y449040D01*
X518090D01*
G01X511600Y444500D02*
Y447000D01*
G01D02*
X516600D01*
G01X511600Y439500D02*
Y437000D01*
G01D02*
X516600D01*
G01X562833Y421100D02*
X563000Y420800D01*
X563200Y420600D01*
X563433Y420500D01*
X563700Y420600D01*
X563900Y420800D01*
X564100Y421100D01*
X564167Y421500D01*
Y423500D01*
G01X566100Y420500D02*
Y423500D01*
X565700Y422900D01*
G01Y420500D02*
X566500D01*
M02*
