*
G04 Mass Parameters ***
*
G04 Image ***
*
%INZ:\1_DOCS\5_BRDDESIGNS\ORCAD\TESTBD.TOP*%
%ICAS*%
%MOIN*%
%IPPOS*%
%ASAXBY*%
G74*%FSLAN2X34Y34*%
*
G04 Aperture Definitions ***
*
%ADD10C,0.1000*%
%ADD11C,0.0310*%
%ADD12C,0.0420*%
%ADD13C,0.0935*%
%ADD14C,0.0350*%
*
G04 Plot Data ***
*
G54D10*
X0005200Y0011900D03*
X0006450D03*
Y0009900D03*
X0005200D03*
G54D11*
X0005900Y0003850D03*
Y0004350D03*
X0006400Y0003850D03*
Y0004350D03*
X0006900Y0003850D03*
Y0004350D03*
X0012600Y0010550D03*
Y0011050D03*
X0013100Y0010550D03*
Y0011050D03*
X0013600Y0010550D03*
Y0011050D03*
X0013000Y0003550D03*
Y0004050D03*
X0013500Y0003550D03*
Y0004050D03*
X0014000Y0003550D03*
Y0004050D03*
X0005700Y0010650D03*
Y0011150D03*
X0006200Y0010650D03*
Y0011150D03*
X0006700Y0010650D03*
Y0011150D03*
G54D12*
X0012100Y0010800D03*
X0014100Y0011200D03*
Y0010400D03*
X0005200Y0010900D03*
X0007200Y0011300D03*
Y0010500D03*
G54D13*
X0012500Y0004800D03*
X0013750D03*
Y0002800D03*
X0012500D03*
G54D14*
X0005400Y0004100D03*
X0007400Y0004500D03*
Y0003700D03*
X0012500Y0003800D03*
X0014500Y0004200D03*
Y0003400D03*
M02*
