%
T1C0.035F200S100
X005200Y010900
X005400Y004100
X007200Y010500
X007200Y011300
X007400Y003700
X007400Y004500
X012100Y010800
X012500Y003800
X014100Y010400
X014100Y011200
X014500Y003400
X014500Y004200
T2C0.093F200S100
X005200Y009900
X006450Y009900
X006450Y011900
X005200Y011900
X012500Y002800
X013750Y002800
X013750Y004800
X012500Y004800
M30
