G04 start of page 8 for group -3984 idx -3984 *
G04 Title: (unknown), fab *
G04 Creator: pcb 1.99z *
G04 CreationDate: Wed 21 Dec 2011 08:01:34 PM GMT UTC *
G04 For: dijkstra *
G04 Format: Gerber/RS-274X *
G04 PCB-Dimensions: 135000 80000 *
G04 PCB-Coordinate-Origin: lower left *
%MOIN*%
%FSLAX25Y25*%
%LNFAB*%
%ADD28C,0.0100*%
%ADD27C,0.0075*%
%ADD26C,0.0060*%
%ADD25R,0.0080X0.0080*%
G54D25*X105000Y66600D02*Y63400D01*
X103400Y65000D02*X106600D01*
X117500Y66600D02*Y63400D01*
X115900Y65000D02*X119100D01*
X117500Y46600D02*Y43400D01*
X115900Y45000D02*X119100D01*
X105000Y46600D02*Y43400D01*
X103400Y45000D02*X106600D01*
X15000Y122850D02*Y119650D01*
X13400Y121250D02*X16600D01*
G54D26*X140000Y123500D02*Y117500D01*
Y123500D02*X143750Y117500D01*
Y123500D02*Y117500D01*
X145550Y122750D02*Y118250D01*
Y122750D02*X146300Y123500D01*
X147800D01*
X148550Y122750D01*
Y118250D01*
X147800Y117500D02*X148550Y118250D01*
X146300Y117500D02*X147800D01*
X145550Y118250D02*X146300Y117500D01*
X98000Y119750D02*X101000Y123500D01*
X98000Y119750D02*X101750D01*
X101000Y123500D02*Y117500D01*
X45000Y118250D02*X45750Y117500D01*
X45000Y122750D02*Y118250D01*
Y122750D02*X45750Y123500D01*
X47250D01*
X48000Y122750D01*
Y118250D01*
X47250Y117500D02*X48000Y118250D01*
X45750Y117500D02*X47250D01*
X45000Y119000D02*X48000Y122000D01*
X49800Y117500D02*X50550D01*
X52350Y118250D02*X53100Y117500D01*
X52350Y122750D02*Y118250D01*
Y122750D02*X53100Y123500D01*
X54600D01*
X55350Y122750D01*
Y118250D01*
X54600Y117500D02*X55350Y118250D01*
X53100Y117500D02*X54600D01*
X52350Y119000D02*X55350Y122000D01*
X57900Y117500D02*X60150Y120500D01*
Y122750D02*Y120500D01*
X59400Y123500D02*X60150Y122750D01*
X57900Y123500D02*X59400D01*
X57150Y122750D02*X57900Y123500D01*
X57150Y122750D02*Y121250D01*
X57900Y120500D01*
X60150D01*
X61950Y119750D02*X64950Y123500D01*
X61950Y119750D02*X65700D01*
X64950Y123500D02*Y117500D01*
X105000Y55000D02*Y53400D01*
Y55000D02*X106387Y55800D01*
X105000Y55000D02*X103613Y55800D01*
X125000Y59000D02*Y57400D01*
Y59000D02*X126387Y59800D01*
X125000Y59000D02*X123613Y59800D01*
X125000Y51000D02*Y49400D01*
Y51000D02*X126387Y51800D01*
X125000Y51000D02*X123613Y51800D01*
X105000Y20000D02*Y18400D01*
Y20000D02*X106387Y20800D01*
X105000Y20000D02*X103613Y20800D01*
X125000Y24000D02*Y22400D01*
Y24000D02*X126387Y24800D01*
X125000Y24000D02*X123613Y24800D01*
X125000Y16000D02*Y14400D01*
Y16000D02*X126387Y16800D01*
X125000Y16000D02*X123613Y16800D01*
X15000Y136250D02*Y134650D01*
Y136250D02*X16387Y137050D01*
X15000Y136250D02*X13613Y137050D01*
X140000Y138500D02*Y132500D01*
Y138500D02*X143750Y132500D01*
Y138500D02*Y132500D01*
X145550Y137750D02*Y133250D01*
Y137750D02*X146300Y138500D01*
X147800D01*
X148550Y137750D01*
Y133250D01*
X147800Y132500D02*X148550Y133250D01*
X146300Y132500D02*X147800D01*
X145550Y133250D02*X146300Y132500D01*
X100250Y138500D02*X101000Y137750D01*
X98750Y138500D02*X100250D01*
X98000Y137750D02*X98750Y138500D01*
X98000Y137750D02*Y133250D01*
X98750Y132500D01*
X100250Y135800D02*X101000Y135050D01*
X98000Y135800D02*X100250D01*
X98750Y132500D02*X100250D01*
X101000Y133250D01*
Y135050D02*Y133250D01*
X45000D02*X45750Y132500D01*
X45000Y137750D02*Y133250D01*
Y137750D02*X45750Y138500D01*
X47250D01*
X48000Y137750D01*
Y133250D01*
X47250Y132500D02*X48000Y133250D01*
X45750Y132500D02*X47250D01*
X45000Y134000D02*X48000Y137000D01*
X49800Y132500D02*X50550D01*
X52350Y133250D02*X53100Y132500D01*
X52350Y137750D02*Y133250D01*
Y137750D02*X53100Y138500D01*
X54600D01*
X55350Y137750D01*
Y133250D01*
X54600Y132500D02*X55350Y133250D01*
X53100Y132500D02*X54600D01*
X52350Y134000D02*X55350Y137000D01*
X57150Y137750D02*X57900Y138500D01*
X59400D01*
X60150Y137750D01*
X59400Y132500D02*X60150Y133250D01*
X57900Y132500D02*X59400D01*
X57150Y133250D02*X57900Y132500D01*
Y135800D02*X59400D01*
X60150Y137750D02*Y136550D01*
Y135050D02*Y133250D01*
Y135050D02*X59400Y135800D01*
X60150Y136550D02*X59400Y135800D01*
X62700Y132500D02*X64950Y135500D01*
Y137750D02*Y135500D01*
X64200Y138500D02*X64950Y137750D01*
X62700Y138500D02*X64200D01*
X61950Y137750D02*X62700Y138500D01*
X61950Y137750D02*Y136250D01*
X62700Y135500D01*
X64950D01*
X3000Y153500D02*X3750Y152750D01*
X750Y153500D02*X3000D01*
X0Y152750D02*X750Y153500D01*
X0Y152750D02*Y151250D01*
X750Y150500D01*
X3000D01*
X3750Y149750D01*
Y148250D01*
X3000Y147500D02*X3750Y148250D01*
X750Y147500D02*X3000D01*
X0Y148250D02*X750Y147500D01*
X5550Y150500D02*Y148250D01*
X6300Y147500D01*
X8550Y150500D02*Y146000D01*
X7800Y145250D02*X8550Y146000D01*
X6300Y145250D02*X7800D01*
X5550Y146000D02*X6300Y145250D01*
Y147500D02*X7800D01*
X8550Y148250D01*
X11100Y149750D02*Y147500D01*
Y149750D02*X11850Y150500D01*
X12600D01*
X13350Y149750D01*
Y147500D01*
Y149750D02*X14100Y150500D01*
X14850D01*
X15600Y149750D01*
Y147500D01*
X10350Y150500D02*X11100Y149750D01*
X17400Y153500D02*Y147500D01*
Y148250D02*X18150Y147500D01*
X19650D01*
X20400Y148250D01*
Y149750D02*Y148250D01*
X19650Y150500D02*X20400Y149750D01*
X18150Y150500D02*X19650D01*
X17400Y149750D02*X18150Y150500D01*
X22200Y149750D02*Y148250D01*
Y149750D02*X22950Y150500D01*
X24450D01*
X25200Y149750D01*
Y148250D01*
X24450Y147500D02*X25200Y148250D01*
X22950Y147500D02*X24450D01*
X22200Y148250D02*X22950Y147500D01*
X27000Y153500D02*Y148250D01*
X27750Y147500D01*
X0Y145750D02*X29250D01*
X41750Y153500D02*Y147500D01*
X43700Y153500D02*X44750Y152450D01*
Y148550D01*
X43700Y147500D02*X44750Y148550D01*
X41000Y147500D02*X43700D01*
X41000Y153500D02*X43700D01*
G54D27*X46550Y152000D02*Y151850D01*
G54D26*Y149750D02*Y147500D01*
X50300Y150500D02*X51050Y149750D01*
X48800Y150500D02*X50300D01*
X48050Y149750D02*X48800Y150500D01*
X48050Y149750D02*Y148250D01*
X48800Y147500D01*
X51050Y150500D02*Y148250D01*
X51800Y147500D01*
X48800D02*X50300D01*
X51050Y148250D01*
X54350Y149750D02*Y147500D01*
Y149750D02*X55100Y150500D01*
X55850D01*
X56600Y149750D01*
Y147500D01*
Y149750D02*X57350Y150500D01*
X58100D01*
X58850Y149750D01*
Y147500D01*
X53600Y150500D02*X54350Y149750D01*
X60650Y147500D02*X61400D01*
X65900Y148250D02*X66650Y147500D01*
X65900Y152750D02*X66650Y153500D01*
X65900Y152750D02*Y148250D01*
X68450Y153500D02*X69950D01*
X69200D02*Y147500D01*
X68450D02*X69950D01*
X72500Y149750D02*Y147500D01*
Y149750D02*X73250Y150500D01*
X74000D01*
X74750Y149750D01*
Y147500D01*
X71750Y150500D02*X72500Y149750D01*
X77300Y150500D02*X79550D01*
X76550Y149750D02*X77300Y150500D01*
X76550Y149750D02*Y148250D01*
X77300Y147500D01*
X79550D01*
X81350Y153500D02*Y147500D01*
Y149750D02*X82100Y150500D01*
X83600D01*
X84350Y149750D01*
Y147500D01*
X86150Y153500D02*X86900Y152750D01*
Y148250D01*
X86150Y147500D02*X86900Y148250D01*
X41000Y145750D02*X88700D01*
X96050Y147500D02*X98000D01*
X95000Y148550D02*X96050Y147500D01*
X95000Y152450D02*Y148550D01*
Y152450D02*X96050Y153500D01*
X98000D01*
X99800Y149750D02*Y148250D01*
Y149750D02*X100550Y150500D01*
X102050D01*
X102800Y149750D01*
Y148250D01*
X102050Y147500D02*X102800Y148250D01*
X100550Y147500D02*X102050D01*
X99800Y148250D02*X100550Y147500D01*
X104600Y150500D02*Y148250D01*
X105350Y147500D01*
X106850D01*
X107600Y148250D01*
Y150500D02*Y148250D01*
X110150Y149750D02*Y147500D01*
Y149750D02*X110900Y150500D01*
X111650D01*
X112400Y149750D01*
Y147500D01*
X109400Y150500D02*X110150Y149750D01*
X114950Y153500D02*Y148250D01*
X115700Y147500D01*
X114200Y151250D02*X115700D01*
X95000Y145750D02*X117200D01*
X130750Y153500D02*Y147500D01*
X130000Y153500D02*X133000D01*
X133750Y152750D01*
Y151250D01*
X133000Y150500D02*X133750Y151250D01*
X130750Y150500D02*X133000D01*
X135550Y153500D02*Y148250D01*
X136300Y147500D01*
X140050Y150500D02*X140800Y149750D01*
X138550Y150500D02*X140050D01*
X137800Y149750D02*X138550Y150500D01*
X137800Y149750D02*Y148250D01*
X138550Y147500D01*
X140800Y150500D02*Y148250D01*
X141550Y147500D01*
X138550D02*X140050D01*
X140800Y148250D01*
X144100Y153500D02*Y148250D01*
X144850Y147500D01*
X143350Y151250D02*X144850D01*
X147100Y147500D02*X149350D01*
X146350Y148250D02*X147100Y147500D01*
X146350Y149750D02*Y148250D01*
Y149750D02*X147100Y150500D01*
X148600D01*
X149350Y149750D01*
X146350Y149000D02*X149350D01*
Y149750D02*Y149000D01*
X154150Y153500D02*Y147500D01*
X153400D02*X154150Y148250D01*
X151900Y147500D02*X153400D01*
X151150Y148250D02*X151900Y147500D01*
X151150Y149750D02*Y148250D01*
Y149750D02*X151900Y150500D01*
X153400D01*
X154150Y149750D01*
X157450Y150500D02*Y149750D01*
Y148250D02*Y147500D01*
X155950Y152750D02*Y152000D01*
Y152750D02*X156700Y153500D01*
X158200D01*
X158950Y152750D01*
Y152000D01*
X157450Y150500D02*X158950Y152000D01*
X130000Y145750D02*X160750D01*
X0Y168500D02*X3000D01*
X1500D02*Y162500D01*
X4800Y168500D02*Y162500D01*
Y164750D02*X5550Y165500D01*
X7050D01*
X7800Y164750D01*
Y162500D01*
X10350D02*X12600D01*
X9600Y163250D02*X10350Y162500D01*
X9600Y164750D02*Y163250D01*
Y164750D02*X10350Y165500D01*
X11850D01*
X12600Y164750D01*
X9600Y164000D02*X12600D01*
Y164750D02*Y164000D01*
X15150Y164750D02*Y162500D01*
Y164750D02*X15900Y165500D01*
X17400D01*
X14400D02*X15150Y164750D01*
X19950Y162500D02*X22200D01*
X19200Y163250D02*X19950Y162500D01*
X19200Y164750D02*Y163250D01*
Y164750D02*X19950Y165500D01*
X21450D01*
X22200Y164750D01*
X19200Y164000D02*X22200D01*
Y164750D02*Y164000D01*
X28950Y165500D02*X29700Y164750D01*
X27450Y165500D02*X28950D01*
X26700Y164750D02*X27450Y165500D01*
X26700Y164750D02*Y163250D01*
X27450Y162500D01*
X29700Y165500D02*Y163250D01*
X30450Y162500D01*
X27450D02*X28950D01*
X29700Y163250D01*
X33000Y164750D02*Y162500D01*
Y164750D02*X33750Y165500D01*
X35250D01*
X32250D02*X33000Y164750D01*
X37800Y162500D02*X40050D01*
X37050Y163250D02*X37800Y162500D01*
X37050Y164750D02*Y163250D01*
Y164750D02*X37800Y165500D01*
X39300D01*
X40050Y164750D01*
X37050Y164000D02*X40050D01*
Y164750D02*Y164000D01*
X44550Y167750D02*X45300Y168500D01*
X47550D01*
X48300Y167750D01*
Y166250D01*
X44550Y162500D02*X48300Y166250D01*
X44550Y162500D02*X48300D01*
X55800Y168500D02*Y162500D01*
X55050D02*X55800Y163250D01*
X53550Y162500D02*X55050D01*
X52800Y163250D02*X53550Y162500D01*
X52800Y164750D02*Y163250D01*
Y164750D02*X53550Y165500D01*
X55050D01*
X55800Y164750D01*
G54D27*X57600Y167000D02*Y166850D01*
G54D26*Y164750D02*Y162500D01*
X59850Y167750D02*Y162500D01*
Y167750D02*X60600Y168500D01*
X61350D01*
X59100Y165500D02*X60600D01*
X63600Y167750D02*Y162500D01*
Y167750D02*X64350Y168500D01*
X65100D01*
X62850Y165500D02*X64350D01*
X67350Y162500D02*X69600D01*
X66600Y163250D02*X67350Y162500D01*
X66600Y164750D02*Y163250D01*
Y164750D02*X67350Y165500D01*
X68850D01*
X69600Y164750D01*
X66600Y164000D02*X69600D01*
Y164750D02*Y164000D01*
X72150Y164750D02*Y162500D01*
Y164750D02*X72900Y165500D01*
X74400D01*
X71400D02*X72150Y164750D01*
X76950Y162500D02*X79200D01*
X76200Y163250D02*X76950Y162500D01*
X76200Y164750D02*Y163250D01*
Y164750D02*X76950Y165500D01*
X78450D01*
X79200Y164750D01*
X76200Y164000D02*X79200D01*
Y164750D02*Y164000D01*
X81750Y164750D02*Y162500D01*
Y164750D02*X82500Y165500D01*
X83250D01*
X84000Y164750D01*
Y162500D01*
X81000Y165500D02*X81750Y164750D01*
X86550Y168500D02*Y163250D01*
X87300Y162500D01*
X85800Y166250D02*X87300D01*
X94500Y168500D02*Y162500D01*
X93750D02*X94500Y163250D01*
X92250Y162500D02*X93750D01*
X91500Y163250D02*X92250Y162500D01*
X91500Y164750D02*Y163250D01*
Y164750D02*X92250Y165500D01*
X93750D01*
X94500Y164750D01*
X97050D02*Y162500D01*
Y164750D02*X97800Y165500D01*
X99300D01*
X96300D02*X97050Y164750D01*
G54D27*X101100Y167000D02*Y166850D01*
G54D26*Y164750D02*Y162500D01*
X102600Y168500D02*Y163250D01*
X103350Y162500D01*
X104850Y168500D02*Y163250D01*
X105600Y162500D01*
X110550D02*X112800D01*
X113550Y163250D01*
X112800Y164000D02*X113550Y163250D01*
X110550Y164000D02*X112800D01*
X109800Y164750D02*X110550Y164000D01*
X109800Y164750D02*X110550Y165500D01*
X112800D01*
X113550Y164750D01*
X109800Y163250D02*X110550Y162500D01*
G54D27*X115350Y167000D02*Y166850D01*
G54D26*Y164750D02*Y162500D01*
X116850Y165500D02*X119850D01*
X116850Y162500D02*X119850Y165500D01*
X116850Y162500D02*X119850D01*
X122400D02*X124650D01*
X121650Y163250D02*X122400Y162500D01*
X121650Y164750D02*Y163250D01*
Y164750D02*X122400Y165500D01*
X123900D01*
X124650Y164750D01*
X121650Y164000D02*X124650D01*
Y164750D02*Y164000D01*
X127200Y162500D02*X129450D01*
X130200Y163250D01*
X129450Y164000D02*X130200Y163250D01*
X127200Y164000D02*X129450D01*
X126450Y164750D02*X127200Y164000D01*
X126450Y164750D02*X127200Y165500D01*
X129450D01*
X130200Y164750D01*
X126450Y163250D02*X127200Y162500D01*
X134700Y165500D02*Y163250D01*
X135450Y162500D01*
X136950D01*
X137700Y163250D01*
Y165500D02*Y163250D01*
X140250Y162500D02*X142500D01*
X143250Y163250D01*
X142500Y164000D02*X143250Y163250D01*
X140250Y164000D02*X142500D01*
X139500Y164750D02*X140250Y164000D01*
X139500Y164750D02*X140250Y165500D01*
X142500D01*
X143250Y164750D01*
X139500Y163250D02*X140250Y162500D01*
X145800D02*X148050D01*
X145050Y163250D02*X145800Y162500D01*
X145050Y164750D02*Y163250D01*
Y164750D02*X145800Y165500D01*
X147300D01*
X148050Y164750D01*
X145050Y164000D02*X148050D01*
Y164750D02*Y164000D01*
X152850Y168500D02*Y162500D01*
X152100D02*X152850Y163250D01*
X150600Y162500D02*X152100D01*
X149850Y163250D02*X150600Y162500D01*
X149850Y164750D02*Y163250D01*
Y164750D02*X150600Y165500D01*
X152100D01*
X152850Y164750D01*
G54D27*X157350Y167000D02*Y166850D01*
G54D26*Y164750D02*Y162500D01*
X159600Y164750D02*Y162500D01*
Y164750D02*X160350Y165500D01*
X161100D01*
X161850Y164750D01*
Y162500D01*
X158850Y165500D02*X159600Y164750D01*
X167100Y168500D02*Y163250D01*
X167850Y162500D01*
X166350Y166250D02*X167850D01*
X169350Y168500D02*Y162500D01*
Y164750D02*X170100Y165500D01*
X171600D01*
X172350Y164750D01*
Y162500D01*
G54D27*X174150Y167000D02*Y166850D01*
G54D26*Y164750D02*Y162500D01*
X176400D02*X178650D01*
X179400Y163250D01*
X178650Y164000D02*X179400Y163250D01*
X176400Y164000D02*X178650D01*
X175650Y164750D02*X176400Y164000D01*
X175650Y164750D02*X176400Y165500D01*
X178650D01*
X179400Y164750D01*
X175650Y163250D02*X176400Y162500D01*
X183900Y168500D02*Y163250D01*
X184650Y162500D01*
X188400Y165500D02*X189150Y164750D01*
X186900Y165500D02*X188400D01*
X186150Y164750D02*X186900Y165500D01*
X186150Y164750D02*Y163250D01*
X186900Y162500D01*
X189150Y165500D02*Y163250D01*
X189900Y162500D01*
X186900D02*X188400D01*
X189150Y163250D01*
X191700Y165500D02*Y163250D01*
X192450Y162500D01*
X194700Y165500D02*Y161000D01*
X193950Y160250D02*X194700Y161000D01*
X192450Y160250D02*X193950D01*
X191700Y161000D02*X192450Y160250D01*
Y162500D02*X193950D01*
X194700Y163250D01*
X196500Y164750D02*Y163250D01*
Y164750D02*X197250Y165500D01*
X198750D01*
X199500Y164750D01*
Y163250D01*
X198750Y162500D02*X199500Y163250D01*
X197250Y162500D02*X198750D01*
X196500Y163250D02*X197250Y162500D01*
X201300Y165500D02*Y163250D01*
X202050Y162500D01*
X203550D01*
X204300Y163250D01*
Y165500D02*Y163250D01*
X206850Y168500D02*Y163250D01*
X207600Y162500D01*
X206100Y166250D02*X207600D01*
X209100Y161000D02*X210600Y162500D01*
X215100Y167300D02*X216300Y168500D01*
Y162500D01*
X215100D02*X217350D01*
X219150Y163250D02*X219900Y162500D01*
X219150Y167750D02*Y163250D01*
Y167750D02*X219900Y168500D01*
X221400D01*
X222150Y167750D01*
Y163250D01*
X221400Y162500D02*X222150Y163250D01*
X219900Y162500D02*X221400D01*
X219150Y164000D02*X222150Y167000D01*
X226650Y168500D02*Y162500D01*
Y164750D02*X227400Y165500D01*
X228900D01*
X229650Y164750D01*
Y162500D01*
X231450Y164750D02*Y163250D01*
Y164750D02*X232200Y165500D01*
X233700D01*
X234450Y164750D01*
Y163250D01*
X233700Y162500D02*X234450Y163250D01*
X232200Y162500D02*X233700D01*
X231450Y163250D02*X232200Y162500D01*
X236250Y168500D02*Y163250D01*
X237000Y162500D01*
X239250D02*X241500D01*
X238500Y163250D02*X239250Y162500D01*
X238500Y164750D02*Y163250D01*
Y164750D02*X239250Y165500D01*
X240750D01*
X241500Y164750D01*
X238500Y164000D02*X241500D01*
Y164750D02*Y164000D01*
X244050Y162500D02*X246300D01*
X247050Y163250D01*
X246300Y164000D02*X247050Y163250D01*
X244050Y164000D02*X246300D01*
X243300Y164750D02*X244050Y164000D01*
X243300Y164750D02*X244050Y165500D01*
X246300D01*
X247050Y164750D01*
X243300Y163250D02*X244050Y162500D01*
X252300Y168500D02*Y163250D01*
X253050Y162500D01*
X251550Y166250D02*X253050D01*
X254550Y164750D02*Y163250D01*
Y164750D02*X255300Y165500D01*
X256800D01*
X257550Y164750D01*
Y163250D01*
X256800Y162500D02*X257550Y163250D01*
X255300Y162500D02*X256800D01*
X254550Y163250D02*X255300Y162500D01*
X260100Y168500D02*Y163250D01*
X260850Y162500D01*
X259350Y166250D02*X260850D01*
X264600Y165500D02*X265350Y164750D01*
X263100Y165500D02*X264600D01*
X262350Y164750D02*X263100Y165500D01*
X262350Y164750D02*Y163250D01*
X263100Y162500D01*
X265350Y165500D02*Y163250D01*
X266100Y162500D01*
X263100D02*X264600D01*
X265350Y163250D01*
X267900Y168500D02*Y163250D01*
X268650Y162500D01*
G54D28*X0Y80000D02*X135000D01*
X0D02*Y0D01*
X135000Y80000D02*Y0D01*
X0D02*X135000D01*
G54D26*X200000Y93500D02*Y87500D01*
Y93500D02*X202250Y90500D01*
X204500Y93500D01*
Y87500D01*
X208550Y90500D02*X209300Y89750D01*
X207050Y90500D02*X208550D01*
X206300Y89750D02*X207050Y90500D01*
X206300Y89750D02*Y88250D01*
X207050Y87500D01*
X209300Y90500D02*Y88250D01*
X210050Y87500D01*
X207050D02*X208550D01*
X209300Y88250D01*
X211850Y90500D02*X214850Y87500D01*
X211850D02*X214850Y90500D01*
G54D27*X216650Y92000D02*Y91850D01*
G54D26*Y89750D02*Y87500D01*
X218900Y89750D02*Y87500D01*
Y89750D02*X219650Y90500D01*
X220400D01*
X221150Y89750D01*
Y87500D01*
Y89750D02*X221900Y90500D01*
X222650D01*
X223400Y89750D01*
Y87500D01*
X218150Y90500D02*X218900Y89750D01*
X225200Y90500D02*Y88250D01*
X225950Y87500D01*
X227450D01*
X228200Y88250D01*
Y90500D02*Y88250D01*
X230750Y89750D02*Y87500D01*
Y89750D02*X231500Y90500D01*
X232250D01*
X233000Y89750D01*
Y87500D01*
Y89750D02*X233750Y90500D01*
X234500D01*
X235250Y89750D01*
Y87500D01*
X230000Y90500D02*X230750Y89750D01*
X240500Y93500D02*Y87500D01*
X242450Y93500D02*X243500Y92450D01*
Y88550D01*
X242450Y87500D02*X243500Y88550D01*
X239750Y87500D02*X242450D01*
X239750Y93500D02*X242450D01*
G54D27*X245300Y92000D02*Y91850D01*
G54D26*Y89750D02*Y87500D01*
X247550Y89750D02*Y87500D01*
Y89750D02*X248300Y90500D01*
X249050D01*
X249800Y89750D01*
Y87500D01*
Y89750D02*X250550Y90500D01*
X251300D01*
X252050Y89750D01*
Y87500D01*
X246800Y90500D02*X247550Y89750D01*
X254600Y87500D02*X256850D01*
X253850Y88250D02*X254600Y87500D01*
X253850Y89750D02*Y88250D01*
Y89750D02*X254600Y90500D01*
X256100D01*
X256850Y89750D01*
X253850Y89000D02*X256850D01*
Y89750D02*Y89000D01*
X259400Y89750D02*Y87500D01*
Y89750D02*X260150Y90500D01*
X260900D01*
X261650Y89750D01*
Y87500D01*
X258650Y90500D02*X259400Y89750D01*
X264200Y87500D02*X266450D01*
X267200Y88250D01*
X266450Y89000D02*X267200Y88250D01*
X264200Y89000D02*X266450D01*
X263450Y89750D02*X264200Y89000D01*
X263450Y89750D02*X264200Y90500D01*
X266450D01*
X267200Y89750D01*
X263450Y88250D02*X264200Y87500D01*
G54D27*X269000Y92000D02*Y91850D01*
G54D26*Y89750D02*Y87500D01*
X270500Y89750D02*Y88250D01*
Y89750D02*X271250Y90500D01*
X272750D01*
X273500Y89750D01*
Y88250D01*
X272750Y87500D02*X273500Y88250D01*
X271250Y87500D02*X272750D01*
X270500Y88250D02*X271250Y87500D01*
X276050Y89750D02*Y87500D01*
Y89750D02*X276800Y90500D01*
X277550D01*
X278300Y89750D01*
Y87500D01*
X275300Y90500D02*X276050Y89750D01*
X280850Y87500D02*X283100D01*
X283850Y88250D01*
X283100Y89000D02*X283850Y88250D01*
X280850Y89000D02*X283100D01*
X280100Y89750D02*X280850Y89000D01*
X280100Y89750D02*X280850Y90500D01*
X283100D01*
X283850Y89750D01*
X280100Y88250D02*X280850Y87500D01*
X285650Y91250D02*X286400D01*
X285650Y89750D02*X286400D01*
X290900Y92300D02*X292100Y93500D01*
Y87500D01*
X290900D02*X293150D01*
X294950Y92750D02*X295700Y93500D01*
X297200D01*
X297950Y92750D01*
X297200Y87500D02*X297950Y88250D01*
X295700Y87500D02*X297200D01*
X294950Y88250D02*X295700Y87500D01*
Y90800D02*X297200D01*
X297950Y92750D02*Y91550D01*
Y90050D02*Y88250D01*
Y90050D02*X297200Y90800D01*
X297950Y91550D02*X297200Y90800D01*
X299750Y93500D02*X302750D01*
X299750D02*Y90500D01*
X300500Y91250D01*
X302000D01*
X302750Y90500D01*
Y88250D01*
X302000Y87500D02*X302750Y88250D01*
X300500Y87500D02*X302000D01*
X299750Y88250D02*X300500Y87500D01*
X304550Y88250D02*X305300Y87500D01*
X304550Y92750D02*Y88250D01*
Y92750D02*X305300Y93500D01*
X306800D01*
X307550Y92750D01*
Y88250D01*
X306800Y87500D02*X307550Y88250D01*
X305300Y87500D02*X306800D01*
X304550Y89000D02*X307550Y92000D01*
X309350Y87500D02*X310100D01*
X311900Y88250D02*X312650Y87500D01*
X311900Y92750D02*Y88250D01*
Y92750D02*X312650Y93500D01*
X314150D01*
X314900Y92750D01*
Y88250D01*
X314150Y87500D02*X314900Y88250D01*
X312650Y87500D02*X314150D01*
X311900Y89000D02*X314900Y92000D01*
X316700Y88250D02*X317450Y87500D01*
X316700Y92750D02*Y88250D01*
Y92750D02*X317450Y93500D01*
X318950D01*
X319700Y92750D01*
Y88250D01*
X318950Y87500D02*X319700Y88250D01*
X317450Y87500D02*X318950D01*
X316700Y89000D02*X319700Y92000D01*
X321500Y88250D02*X322250Y87500D01*
X321500Y92750D02*Y88250D01*
Y92750D02*X322250Y93500D01*
X323750D01*
X324500Y92750D01*
Y88250D01*
X323750Y87500D02*X324500Y88250D01*
X322250Y87500D02*X323750D01*
X321500Y89000D02*X324500Y92000D01*
X326300Y88250D02*X327050Y87500D01*
X326300Y92750D02*Y88250D01*
Y92750D02*X327050Y93500D01*
X328550D01*
X329300Y92750D01*
Y88250D01*
X328550Y87500D02*X329300Y88250D01*
X327050Y87500D02*X328550D01*
X326300Y89000D02*X329300Y92000D01*
X331100Y88250D02*X331850Y87500D01*
X331100Y92750D02*Y88250D01*
Y92750D02*X331850Y93500D01*
X333350D01*
X334100Y92750D01*
Y88250D01*
X333350Y87500D02*X334100Y88250D01*
X331850Y87500D02*X333350D01*
X331100Y89000D02*X334100Y92000D01*
X335900Y88250D02*X336650Y87500D01*
X335900Y92750D02*Y88250D01*
Y92750D02*X336650Y93500D01*
X338150D01*
X338900Y92750D01*
Y88250D01*
X338150Y87500D02*X338900Y88250D01*
X336650Y87500D02*X338150D01*
X335900Y89000D02*X338900Y92000D01*
X344150Y89750D02*Y87500D01*
Y89750D02*X344900Y90500D01*
X345650D01*
X346400Y89750D01*
Y87500D01*
Y89750D02*X347150Y90500D01*
X347900D01*
X348650Y89750D01*
Y87500D01*
X343400Y90500D02*X344150Y89750D01*
G54D27*X350450Y92000D02*Y91850D01*
G54D26*Y89750D02*Y87500D01*
X351950Y93500D02*Y88250D01*
X352700Y87500D01*
X354950D02*X357200D01*
X357950Y88250D01*
X357200Y89000D02*X357950Y88250D01*
X354950Y89000D02*X357200D01*
X354200Y89750D02*X354950Y89000D01*
X354200Y89750D02*X354950Y90500D01*
X357200D01*
X357950Y89750D01*
X354200Y88250D02*X354950Y87500D01*
X362450Y90500D02*Y88250D01*
X363200Y87500D01*
X363950D01*
X364700Y88250D01*
Y90500D02*Y88250D01*
X365450Y87500D01*
X366200D01*
X366950Y88250D01*
Y90500D02*Y88250D01*
G54D27*X368750Y92000D02*Y91850D01*
G54D26*Y89750D02*Y87500D01*
X373250Y93500D02*Y87500D01*
X372500D02*X373250Y88250D01*
X371000Y87500D02*X372500D01*
X370250Y88250D02*X371000Y87500D01*
X370250Y89750D02*Y88250D01*
Y89750D02*X371000Y90500D01*
X372500D01*
X373250Y89750D01*
X375800Y87500D02*X378050D01*
X375050Y88250D02*X375800Y87500D01*
X375050Y89750D02*Y88250D01*
Y89750D02*X375800Y90500D01*
X377300D01*
X378050Y89750D01*
X375050Y89000D02*X378050D01*
Y89750D02*Y89000D01*
X379850Y86000D02*X381350Y87500D01*
X385850Y88250D02*X386600Y87500D01*
X385850Y89450D02*Y88250D01*
Y89450D02*X386900Y90500D01*
X387800D01*
X388850Y89450D01*
Y88250D01*
X388100Y87500D02*X388850Y88250D01*
X386600Y87500D02*X388100D01*
X385850Y91550D02*X386900Y90500D01*
X385850Y92750D02*Y91550D01*
Y92750D02*X386600Y93500D01*
X388100D01*
X388850Y92750D01*
Y91550D01*
X387800Y90500D02*X388850Y91550D01*
X390650Y88250D02*X391400Y87500D01*
X390650Y92750D02*Y88250D01*
Y92750D02*X391400Y93500D01*
X392900D01*
X393650Y92750D01*
Y88250D01*
X392900Y87500D02*X393650Y88250D01*
X391400Y87500D02*X392900D01*
X390650Y89000D02*X393650Y92000D01*
X395450Y88250D02*X396200Y87500D01*
X395450Y92750D02*Y88250D01*
Y92750D02*X396200Y93500D01*
X397700D01*
X398450Y92750D01*
Y88250D01*
X397700Y87500D02*X398450Y88250D01*
X396200Y87500D02*X397700D01*
X395450Y89000D02*X398450Y92000D01*
X400250Y87500D02*X401000D01*
X402800Y88250D02*X403550Y87500D01*
X402800Y92750D02*Y88250D01*
Y92750D02*X403550Y93500D01*
X405050D01*
X405800Y92750D01*
Y88250D01*
X405050Y87500D02*X405800Y88250D01*
X403550Y87500D02*X405050D01*
X402800Y89000D02*X405800Y92000D01*
X407600Y88250D02*X408350Y87500D01*
X407600Y92750D02*Y88250D01*
Y92750D02*X408350Y93500D01*
X409850D01*
X410600Y92750D01*
Y88250D01*
X409850Y87500D02*X410600Y88250D01*
X408350Y87500D02*X409850D01*
X407600Y89000D02*X410600Y92000D01*
X412400Y88250D02*X413150Y87500D01*
X412400Y92750D02*Y88250D01*
Y92750D02*X413150Y93500D01*
X414650D01*
X415400Y92750D01*
Y88250D01*
X414650Y87500D02*X415400Y88250D01*
X413150Y87500D02*X414650D01*
X412400Y89000D02*X415400Y92000D01*
X417200Y88250D02*X417950Y87500D01*
X417200Y92750D02*Y88250D01*
Y92750D02*X417950Y93500D01*
X419450D01*
X420200Y92750D01*
Y88250D01*
X419450Y87500D02*X420200Y88250D01*
X417950Y87500D02*X419450D01*
X417200Y89000D02*X420200Y92000D01*
X422000Y88250D02*X422750Y87500D01*
X422000Y92750D02*Y88250D01*
Y92750D02*X422750Y93500D01*
X424250D01*
X425000Y92750D01*
Y88250D01*
X424250Y87500D02*X425000Y88250D01*
X422750Y87500D02*X424250D01*
X422000Y89000D02*X425000Y92000D01*
X426800Y88250D02*X427550Y87500D01*
X426800Y92750D02*Y88250D01*
Y92750D02*X427550Y93500D01*
X429050D01*
X429800Y92750D01*
Y88250D01*
X429050Y87500D02*X429800Y88250D01*
X427550Y87500D02*X429050D01*
X426800Y89000D02*X429800Y92000D01*
X435050Y89750D02*Y87500D01*
Y89750D02*X435800Y90500D01*
X436550D01*
X437300Y89750D01*
Y87500D01*
Y89750D02*X438050Y90500D01*
X438800D01*
X439550Y89750D01*
Y87500D01*
X434300Y90500D02*X435050Y89750D01*
G54D27*X441350Y92000D02*Y91850D01*
G54D26*Y89750D02*Y87500D01*
X442850Y93500D02*Y88250D01*
X443600Y87500D01*
X445850D02*X448100D01*
X448850Y88250D01*
X448100Y89000D02*X448850Y88250D01*
X445850Y89000D02*X448100D01*
X445100Y89750D02*X445850Y89000D01*
X445100Y89750D02*X445850Y90500D01*
X448100D01*
X448850Y89750D01*
X445100Y88250D02*X445850Y87500D01*
X453350Y93500D02*Y87500D01*
Y89750D02*X454100Y90500D01*
X455600D01*
X456350Y89750D01*
Y87500D01*
G54D27*X458150Y92000D02*Y91850D01*
G54D26*Y89750D02*Y87500D01*
X461900Y90500D02*X462650Y89750D01*
X460400Y90500D02*X461900D01*
X459650Y89750D02*X460400Y90500D01*
X459650Y89750D02*Y88250D01*
X460400Y87500D01*
X461900D01*
X462650Y88250D01*
X459650Y86000D02*X460400Y85250D01*
X461900D01*
X462650Y86000D01*
Y90500D02*Y86000D01*
X464450Y93500D02*Y87500D01*
Y89750D02*X465200Y90500D01*
X466700D01*
X467450Y89750D01*
Y87500D01*
X0Y-9500D02*X3000D01*
X3750Y-8750D01*
Y-6950D02*Y-8750D01*
X3000Y-6200D02*X3750Y-6950D01*
X750Y-6200D02*X3000D01*
X750Y-3500D02*Y-9500D01*
X0Y-3500D02*X3000D01*
X3750Y-4250D01*
Y-5450D01*
X3000Y-6200D02*X3750Y-5450D01*
X5550Y-7250D02*Y-8750D01*
Y-7250D02*X6300Y-6500D01*
X7800D01*
X8550Y-7250D01*
Y-8750D01*
X7800Y-9500D02*X8550Y-8750D01*
X6300Y-9500D02*X7800D01*
X5550Y-8750D02*X6300Y-9500D01*
X12600Y-6500D02*X13350Y-7250D01*
X11100Y-6500D02*X12600D01*
X10350Y-7250D02*X11100Y-6500D01*
X10350Y-7250D02*Y-8750D01*
X11100Y-9500D01*
X13350Y-6500D02*Y-8750D01*
X14100Y-9500D01*
X11100D02*X12600D01*
X13350Y-8750D01*
X16650Y-7250D02*Y-9500D01*
Y-7250D02*X17400Y-6500D01*
X18900D01*
X15900D02*X16650Y-7250D01*
X23700Y-3500D02*Y-9500D01*
X22950D02*X23700Y-8750D01*
X21450Y-9500D02*X22950D01*
X20700Y-8750D02*X21450Y-9500D01*
X20700Y-7250D02*Y-8750D01*
Y-7250D02*X21450Y-6500D01*
X22950D01*
X23700Y-7250D01*
X28200D02*Y-8750D01*
Y-7250D02*X28950Y-6500D01*
X30450D01*
X31200Y-7250D01*
Y-8750D01*
X30450Y-9500D02*X31200Y-8750D01*
X28950Y-9500D02*X30450D01*
X28200Y-8750D02*X28950Y-9500D01*
X33000Y-6500D02*Y-8750D01*
X33750Y-9500D01*
X35250D01*
X36000Y-8750D01*
Y-6500D02*Y-8750D01*
X38550Y-3500D02*Y-8750D01*
X39300Y-9500D01*
X37800Y-5750D02*X39300D01*
X40800Y-3500D02*Y-8750D01*
X41550Y-9500D01*
G54D27*X43050Y-5000D02*Y-5150D01*
G54D26*Y-7250D02*Y-9500D01*
X45300Y-7250D02*Y-9500D01*
Y-7250D02*X46050Y-6500D01*
X46800D01*
X47550Y-7250D01*
Y-9500D01*
X44550Y-6500D02*X45300Y-7250D01*
X50100Y-9500D02*X52350D01*
X49350Y-8750D02*X50100Y-9500D01*
X49350Y-7250D02*Y-8750D01*
Y-7250D02*X50100Y-6500D01*
X51600D01*
X52350Y-7250D01*
X49350Y-8000D02*X52350D01*
Y-7250D02*Y-8000D01*
G54D27*X56850Y-5000D02*Y-5150D01*
G54D26*Y-7250D02*Y-9500D01*
X59100D02*X61350D01*
X62100Y-8750D01*
X61350Y-8000D02*X62100Y-8750D01*
X59100Y-8000D02*X61350D01*
X58350Y-7250D02*X59100Y-8000D01*
X58350Y-7250D02*X59100Y-6500D01*
X61350D01*
X62100Y-7250D01*
X58350Y-8750D02*X59100Y-9500D01*
X67350Y-3500D02*Y-8750D01*
X68100Y-9500D01*
X66600Y-5750D02*X68100D01*
X69600Y-3500D02*Y-9500D01*
Y-7250D02*X70350Y-6500D01*
X71850D01*
X72600Y-7250D01*
Y-9500D01*
X75150D02*X77400D01*
X74400Y-8750D02*X75150Y-9500D01*
X74400Y-7250D02*Y-8750D01*
Y-7250D02*X75150Y-6500D01*
X76650D01*
X77400Y-7250D01*
X74400Y-8000D02*X77400D01*
Y-7250D02*Y-8000D01*
X82650Y-6500D02*X84900D01*
X81900Y-7250D02*X82650Y-6500D01*
X81900Y-7250D02*Y-8750D01*
X82650Y-9500D01*
X84900D01*
X87450D02*X89700D01*
X86700Y-8750D02*X87450Y-9500D01*
X86700Y-7250D02*Y-8750D01*
Y-7250D02*X87450Y-6500D01*
X88950D01*
X89700Y-7250D01*
X86700Y-8000D02*X89700D01*
Y-7250D02*Y-8000D01*
X92250Y-7250D02*Y-9500D01*
Y-7250D02*X93000Y-6500D01*
X93750D01*
X94500Y-7250D01*
Y-9500D01*
X91500Y-6500D02*X92250Y-7250D01*
X97050Y-3500D02*Y-8750D01*
X97800Y-9500D01*
X96300Y-5750D02*X97800D01*
X100050Y-9500D02*X102300D01*
X99300Y-8750D02*X100050Y-9500D01*
X99300Y-7250D02*Y-8750D01*
Y-7250D02*X100050Y-6500D01*
X101550D01*
X102300Y-7250D01*
X99300Y-8000D02*X102300D01*
Y-7250D02*Y-8000D01*
X104850Y-7250D02*Y-9500D01*
Y-7250D02*X105600Y-6500D01*
X107100D01*
X104100D02*X104850Y-7250D01*
X108900Y-3500D02*Y-8750D01*
X109650Y-9500D01*
G54D27*X111150Y-5000D02*Y-5150D01*
G54D26*Y-7250D02*Y-9500D01*
X113400Y-7250D02*Y-9500D01*
Y-7250D02*X114150Y-6500D01*
X114900D01*
X115650Y-7250D01*
Y-9500D01*
X112650Y-6500D02*X113400Y-7250D01*
X118200Y-9500D02*X120450D01*
X117450Y-8750D02*X118200Y-9500D01*
X117450Y-7250D02*Y-8750D01*
Y-7250D02*X118200Y-6500D01*
X119700D01*
X120450Y-7250D01*
X117450Y-8000D02*X120450D01*
Y-7250D02*Y-8000D01*
X124950Y-7250D02*Y-8750D01*
Y-7250D02*X125700Y-6500D01*
X127200D01*
X127950Y-7250D01*
Y-8750D01*
X127200Y-9500D02*X127950Y-8750D01*
X125700Y-9500D02*X127200D01*
X124950Y-8750D02*X125700Y-9500D01*
X130500Y-4250D02*Y-9500D01*
Y-4250D02*X131250Y-3500D01*
X132000D01*
X129750Y-6500D02*X131250D01*
X136950Y-3500D02*Y-8750D01*
X137700Y-9500D01*
X136200Y-5750D02*X137700D01*
X139200Y-3500D02*Y-9500D01*
Y-7250D02*X139950Y-6500D01*
X141450D01*
X142200Y-7250D01*
Y-9500D01*
G54D27*X144000Y-5000D02*Y-5150D01*
G54D26*Y-7250D02*Y-9500D01*
X146250D02*X148500D01*
X149250Y-8750D01*
X148500Y-8000D02*X149250Y-8750D01*
X146250Y-8000D02*X148500D01*
X145500Y-7250D02*X146250Y-8000D01*
X145500Y-7250D02*X146250Y-6500D01*
X148500D01*
X149250Y-7250D01*
X145500Y-8750D02*X146250Y-9500D01*
X153750Y-8750D02*X154500Y-9500D01*
X153750Y-7550D02*Y-8750D01*
Y-7550D02*X154800Y-6500D01*
X155700D01*
X156750Y-7550D01*
Y-8750D01*
X156000Y-9500D02*X156750Y-8750D01*
X154500Y-9500D02*X156000D01*
X153750Y-5450D02*X154800Y-6500D01*
X153750Y-4250D02*Y-5450D01*
Y-4250D02*X154500Y-3500D01*
X156000D01*
X156750Y-4250D01*
Y-5450D01*
X155700Y-6500D02*X156750Y-5450D01*
X158550Y-9500D02*X159300D01*
X161100Y-8750D02*X161850Y-9500D01*
X161100Y-4250D02*Y-8750D01*
Y-4250D02*X161850Y-3500D01*
X163350D01*
X164100Y-4250D01*
Y-8750D01*
X163350Y-9500D02*X164100Y-8750D01*
X161850Y-9500D02*X163350D01*
X161100Y-8000D02*X164100Y-5000D01*
X165900Y-8750D02*X166650Y-9500D01*
X165900Y-4250D02*Y-8750D01*
Y-4250D02*X166650Y-3500D01*
X168150D01*
X168900Y-4250D01*
Y-8750D01*
X168150Y-9500D02*X168900Y-8750D01*
X166650Y-9500D02*X168150D01*
X165900Y-8000D02*X168900Y-5000D01*
X170700Y-8750D02*X171450Y-9500D01*
X170700Y-4250D02*Y-8750D01*
Y-4250D02*X171450Y-3500D01*
X172950D01*
X173700Y-4250D01*
Y-8750D01*
X172950Y-9500D02*X173700Y-8750D01*
X171450Y-9500D02*X172950D01*
X170700Y-8000D02*X173700Y-5000D01*
X175500Y-8750D02*X176250Y-9500D01*
X175500Y-4250D02*Y-8750D01*
Y-4250D02*X176250Y-3500D01*
X177750D01*
X178500Y-4250D01*
Y-8750D01*
X177750Y-9500D02*X178500Y-8750D01*
X176250Y-9500D02*X177750D01*
X175500Y-8000D02*X178500Y-5000D01*
X180300Y-8750D02*X181050Y-9500D01*
X180300Y-4250D02*Y-8750D01*
Y-4250D02*X181050Y-3500D01*
X182550D01*
X183300Y-4250D01*
Y-8750D01*
X182550Y-9500D02*X183300Y-8750D01*
X181050Y-9500D02*X182550D01*
X180300Y-8000D02*X183300Y-5000D01*
X185100Y-8750D02*X185850Y-9500D01*
X185100Y-4250D02*Y-8750D01*
Y-4250D02*X185850Y-3500D01*
X187350D01*
X188100Y-4250D01*
Y-8750D01*
X187350Y-9500D02*X188100Y-8750D01*
X185850Y-9500D02*X187350D01*
X185100Y-8000D02*X188100Y-5000D01*
X193350Y-7250D02*Y-9500D01*
Y-7250D02*X194100Y-6500D01*
X194850D01*
X195600Y-7250D01*
Y-9500D01*
Y-7250D02*X196350Y-6500D01*
X197100D01*
X197850Y-7250D01*
Y-9500D01*
X192600Y-6500D02*X193350Y-7250D01*
G54D27*X199650Y-5000D02*Y-5150D01*
G54D26*Y-7250D02*Y-9500D01*
X201150Y-3500D02*Y-8750D01*
X201900Y-9500D01*
X206850Y-7250D02*Y-9500D01*
Y-7250D02*X207600Y-6500D01*
X209100D01*
X206100D02*X206850Y-7250D01*
X211650Y-9500D02*X213900D01*
X210900Y-8750D02*X211650Y-9500D01*
X210900Y-7250D02*Y-8750D01*
Y-7250D02*X211650Y-6500D01*
X213150D01*
X213900Y-7250D01*
X210900Y-8000D02*X213900D01*
Y-7250D02*Y-8000D01*
X216450Y-6500D02*X218700D01*
X215700Y-7250D02*X216450Y-6500D01*
X215700Y-7250D02*Y-8750D01*
X216450Y-9500D01*
X218700D01*
X221250Y-3500D02*Y-8750D01*
X222000Y-9500D01*
X220500Y-5750D02*X222000D01*
X225750Y-6500D02*X226500Y-7250D01*
X224250Y-6500D02*X225750D01*
X223500Y-7250D02*X224250Y-6500D01*
X223500Y-7250D02*Y-8750D01*
X224250Y-9500D01*
X226500Y-6500D02*Y-8750D01*
X227250Y-9500D01*
X224250D02*X225750D01*
X226500Y-8750D01*
X229800Y-7250D02*Y-9500D01*
Y-7250D02*X230550Y-6500D01*
X231300D01*
X232050Y-7250D01*
Y-9500D01*
X229050Y-6500D02*X229800Y-7250D01*
X236100Y-6500D02*X236850Y-7250D01*
X234600Y-6500D02*X236100D01*
X233850Y-7250D02*X234600Y-6500D01*
X233850Y-7250D02*Y-8750D01*
X234600Y-9500D01*
X236100D01*
X236850Y-8750D01*
X233850Y-11000D02*X234600Y-11750D01*
X236100D01*
X236850Y-11000D01*
Y-6500D02*Y-11000D01*
X238650Y-3500D02*Y-8750D01*
X239400Y-9500D01*
X241650D02*X243900D01*
X240900Y-8750D02*X241650Y-9500D01*
X240900Y-7250D02*Y-8750D01*
Y-7250D02*X241650Y-6500D01*
X243150D01*
X243900Y-7250D01*
X240900Y-8000D02*X243900D01*
Y-7250D02*Y-8000D01*
X248400Y-6500D02*X251400D01*
X255900Y-8750D02*X256650Y-9500D01*
X255900Y-4250D02*Y-8750D01*
Y-4250D02*X256650Y-3500D01*
X258150D01*
X258900Y-4250D01*
Y-8750D01*
X258150Y-9500D02*X258900Y-8750D01*
X256650Y-9500D02*X258150D01*
X255900Y-8000D02*X258900Y-5000D01*
X260700Y-11000D02*X262200Y-9500D01*
X264000Y-8750D02*X264750Y-9500D01*
X264000Y-4250D02*Y-8750D01*
Y-4250D02*X264750Y-3500D01*
X266250D01*
X267000Y-4250D01*
Y-8750D01*
X266250Y-9500D02*X267000Y-8750D01*
X264750Y-9500D02*X266250D01*
X264000Y-8000D02*X267000Y-5000D01*
X272250Y-3500D02*Y-8750D01*
X273000Y-9500D01*
X271500Y-5750D02*X273000D01*
X274500Y-7250D02*Y-8750D01*
Y-7250D02*X275250Y-6500D01*
X276750D01*
X277500Y-7250D01*
Y-8750D01*
X276750Y-9500D02*X277500Y-8750D01*
X275250Y-9500D02*X276750D01*
X274500Y-8750D02*X275250Y-9500D01*
X282000Y-4700D02*X283200Y-3500D01*
Y-9500D01*
X282000D02*X284250D01*
X286050Y-4250D02*X286800Y-3500D01*
X288300D01*
X289050Y-4250D01*
X288300Y-9500D02*X289050Y-8750D01*
X286800Y-9500D02*X288300D01*
X286050Y-8750D02*X286800Y-9500D01*
Y-6200D02*X288300D01*
X289050Y-4250D02*Y-5450D01*
Y-6950D02*Y-8750D01*
Y-6950D02*X288300Y-6200D01*
X289050Y-5450D02*X288300Y-6200D01*
X290850Y-3500D02*X293850D01*
X290850D02*Y-6500D01*
X291600Y-5750D01*
X293100D01*
X293850Y-6500D01*
Y-8750D01*
X293100Y-9500D02*X293850Y-8750D01*
X291600Y-9500D02*X293100D01*
X290850Y-8750D02*X291600Y-9500D01*
X295650Y-8750D02*X296400Y-9500D01*
X295650Y-4250D02*Y-8750D01*
Y-4250D02*X296400Y-3500D01*
X297900D01*
X298650Y-4250D01*
Y-8750D01*
X297900Y-9500D02*X298650Y-8750D01*
X296400Y-9500D02*X297900D01*
X295650Y-8000D02*X298650Y-5000D01*
X300450Y-9500D02*X301200D01*
X303000Y-8750D02*X303750Y-9500D01*
X303000Y-4250D02*Y-8750D01*
Y-4250D02*X303750Y-3500D01*
X305250D01*
X306000Y-4250D01*
Y-8750D01*
X305250Y-9500D02*X306000Y-8750D01*
X303750Y-9500D02*X305250D01*
X303000Y-8000D02*X306000Y-5000D01*
X307800Y-8750D02*X308550Y-9500D01*
X307800Y-4250D02*Y-8750D01*
Y-4250D02*X308550Y-3500D01*
X310050D01*
X310800Y-4250D01*
Y-8750D01*
X310050Y-9500D02*X310800Y-8750D01*
X308550Y-9500D02*X310050D01*
X307800Y-8000D02*X310800Y-5000D01*
X312600Y-8750D02*X313350Y-9500D01*
X312600Y-4250D02*Y-8750D01*
Y-4250D02*X313350Y-3500D01*
X314850D01*
X315600Y-4250D01*
Y-8750D01*
X314850Y-9500D02*X315600Y-8750D01*
X313350Y-9500D02*X314850D01*
X312600Y-8000D02*X315600Y-5000D01*
X317400Y-8750D02*X318150Y-9500D01*
X317400Y-4250D02*Y-8750D01*
Y-4250D02*X318150Y-3500D01*
X319650D01*
X320400Y-4250D01*
Y-8750D01*
X319650Y-9500D02*X320400Y-8750D01*
X318150Y-9500D02*X319650D01*
X317400Y-8000D02*X320400Y-5000D01*
X322200Y-8750D02*X322950Y-9500D01*
X322200Y-4250D02*Y-8750D01*
Y-4250D02*X322950Y-3500D01*
X324450D01*
X325200Y-4250D01*
Y-8750D01*
X324450Y-9500D02*X325200Y-8750D01*
X322950Y-9500D02*X324450D01*
X322200Y-8000D02*X325200Y-5000D01*
X327000Y-8750D02*X327750Y-9500D01*
X327000Y-4250D02*Y-8750D01*
Y-4250D02*X327750Y-3500D01*
X329250D01*
X330000Y-4250D01*
Y-8750D01*
X329250Y-9500D02*X330000Y-8750D01*
X327750Y-9500D02*X329250D01*
X327000Y-8000D02*X330000Y-5000D01*
X331800Y-11000D02*X333300Y-9500D01*
X335100Y-8750D02*X335850Y-9500D01*
X335100Y-7550D02*Y-8750D01*
Y-7550D02*X336150Y-6500D01*
X337050D01*
X338100Y-7550D01*
Y-8750D01*
X337350Y-9500D02*X338100Y-8750D01*
X335850Y-9500D02*X337350D01*
X335100Y-5450D02*X336150Y-6500D01*
X335100Y-4250D02*Y-5450D01*
Y-4250D02*X335850Y-3500D01*
X337350D01*
X338100Y-4250D01*
Y-5450D01*
X337050Y-6500D02*X338100Y-5450D01*
X339900Y-8750D02*X340650Y-9500D01*
X339900Y-4250D02*Y-8750D01*
Y-4250D02*X340650Y-3500D01*
X342150D01*
X342900Y-4250D01*
Y-8750D01*
X342150Y-9500D02*X342900Y-8750D01*
X340650Y-9500D02*X342150D01*
X339900Y-8000D02*X342900Y-5000D01*
X344700Y-8750D02*X345450Y-9500D01*
X344700Y-4250D02*Y-8750D01*
Y-4250D02*X345450Y-3500D01*
X346950D01*
X347700Y-4250D01*
Y-8750D01*
X346950Y-9500D02*X347700Y-8750D01*
X345450Y-9500D02*X346950D01*
X344700Y-8000D02*X347700Y-5000D01*
X349500Y-9500D02*X350250D01*
X352050Y-8750D02*X352800Y-9500D01*
X352050Y-4250D02*Y-8750D01*
Y-4250D02*X352800Y-3500D01*
X354300D01*
X355050Y-4250D01*
Y-8750D01*
X354300Y-9500D02*X355050Y-8750D01*
X352800Y-9500D02*X354300D01*
X352050Y-8000D02*X355050Y-5000D01*
X356850Y-8750D02*X357600Y-9500D01*
X356850Y-4250D02*Y-8750D01*
Y-4250D02*X357600Y-3500D01*
X359100D01*
X359850Y-4250D01*
Y-8750D01*
X359100Y-9500D02*X359850Y-8750D01*
X357600Y-9500D02*X359100D01*
X356850Y-8000D02*X359850Y-5000D01*
X361650Y-8750D02*X362400Y-9500D01*
X361650Y-4250D02*Y-8750D01*
Y-4250D02*X362400Y-3500D01*
X363900D01*
X364650Y-4250D01*
Y-8750D01*
X363900Y-9500D02*X364650Y-8750D01*
X362400Y-9500D02*X363900D01*
X361650Y-8000D02*X364650Y-5000D01*
X366450Y-8750D02*X367200Y-9500D01*
X366450Y-4250D02*Y-8750D01*
Y-4250D02*X367200Y-3500D01*
X368700D01*
X369450Y-4250D01*
Y-8750D01*
X368700Y-9500D02*X369450Y-8750D01*
X367200Y-9500D02*X368700D01*
X366450Y-8000D02*X369450Y-5000D01*
X371250Y-8750D02*X372000Y-9500D01*
X371250Y-4250D02*Y-8750D01*
Y-4250D02*X372000Y-3500D01*
X373500D01*
X374250Y-4250D01*
Y-8750D01*
X373500Y-9500D02*X374250Y-8750D01*
X372000Y-9500D02*X373500D01*
X371250Y-8000D02*X374250Y-5000D01*
X376050Y-8750D02*X376800Y-9500D01*
X376050Y-4250D02*Y-8750D01*
Y-4250D02*X376800Y-3500D01*
X378300D01*
X379050Y-4250D01*
Y-8750D01*
X378300Y-9500D02*X379050Y-8750D01*
X376800Y-9500D02*X378300D01*
X376050Y-8000D02*X379050Y-5000D01*
X384300Y-7250D02*Y-9500D01*
Y-7250D02*X385050Y-6500D01*
X385800D01*
X386550Y-7250D01*
Y-9500D01*
Y-7250D02*X387300Y-6500D01*
X388050D01*
X388800Y-7250D01*
Y-9500D01*
X383550Y-6500D02*X384300Y-7250D01*
G54D27*X390600Y-5000D02*Y-5150D01*
G54D26*Y-7250D02*Y-9500D01*
X392100Y-3500D02*Y-8750D01*
X392850Y-9500D01*
X395100D02*X397350D01*
X398100Y-8750D01*
X397350Y-8000D02*X398100Y-8750D01*
X395100Y-8000D02*X397350D01*
X394350Y-7250D02*X395100Y-8000D01*
X394350Y-7250D02*X395100Y-6500D01*
X397350D01*
X398100Y-7250D01*
X394350Y-8750D02*X395100Y-9500D01*
X200750Y108500D02*Y102500D01*
X202700Y108500D02*X203750Y107450D01*
Y103550D01*
X202700Y102500D02*X203750Y103550D01*
X200000Y102500D02*X202700D01*
X200000Y108500D02*X202700D01*
X207800Y105500D02*X208550Y104750D01*
X206300Y105500D02*X207800D01*
X205550Y104750D02*X206300Y105500D01*
X205550Y104750D02*Y103250D01*
X206300Y102500D01*
X208550Y105500D02*Y103250D01*
X209300Y102500D01*
X206300D02*X207800D01*
X208550Y103250D01*
X211850Y108500D02*Y103250D01*
X212600Y102500D01*
X211100Y106250D02*X212600D01*
X214850Y102500D02*X217100D01*
X214100Y103250D02*X214850Y102500D01*
X214100Y104750D02*Y103250D01*
Y104750D02*X214850Y105500D01*
X216350D01*
X217100Y104750D01*
X214100Y104000D02*X217100D01*
Y104750D02*Y104000D01*
X218900Y106250D02*X219650D01*
X218900Y104750D02*X219650D01*
X224150Y108500D02*Y105500D01*
X224900Y102500D01*
X226400Y105500D01*
X227900Y102500D01*
X228650Y105500D01*
Y108500D02*Y105500D01*
X231200Y102500D02*X233450D01*
X230450Y103250D02*X231200Y102500D01*
X230450Y104750D02*Y103250D01*
Y104750D02*X231200Y105500D01*
X232700D01*
X233450Y104750D01*
X230450Y104000D02*X233450D01*
Y104750D02*Y104000D01*
X238250Y108500D02*Y102500D01*
X237500D02*X238250Y103250D01*
X236000Y102500D02*X237500D01*
X235250Y103250D02*X236000Y102500D01*
X235250Y104750D02*Y103250D01*
Y104750D02*X236000Y105500D01*
X237500D01*
X238250Y104750D01*
X242750Y107750D02*X243500Y108500D01*
X245750D01*
X246500Y107750D01*
Y106250D01*
X242750Y102500D02*X246500Y106250D01*
X242750Y102500D02*X246500D01*
X248300Y107300D02*X249500Y108500D01*
Y102500D01*
X248300D02*X250550D01*
X255800Y108500D02*Y102500D01*
X257750Y108500D02*X258800Y107450D01*
Y103550D01*
X257750Y102500D02*X258800Y103550D01*
X255050Y102500D02*X257750D01*
X255050Y108500D02*X257750D01*
X261350Y102500D02*X263600D01*
X260600Y103250D02*X261350Y102500D01*
X260600Y104750D02*Y103250D01*
Y104750D02*X261350Y105500D01*
X262850D01*
X263600Y104750D01*
X260600Y104000D02*X263600D01*
Y104750D02*Y104000D01*
X266150Y105500D02*X268400D01*
X265400Y104750D02*X266150Y105500D01*
X265400Y104750D02*Y103250D01*
X266150Y102500D01*
X268400D01*
X272900Y107750D02*X273650Y108500D01*
X275900D01*
X276650Y107750D01*
Y106250D01*
X272900Y102500D02*X276650Y106250D01*
X272900Y102500D02*X276650D01*
X278450Y103250D02*X279200Y102500D01*
X278450Y107750D02*Y103250D01*
Y107750D02*X279200Y108500D01*
X280700D01*
X281450Y107750D01*
Y103250D01*
X280700Y102500D02*X281450Y103250D01*
X279200Y102500D02*X280700D01*
X278450Y104000D02*X281450Y107000D01*
X283250Y107300D02*X284450Y108500D01*
Y102500D01*
X283250D02*X285500D01*
X287300Y107300D02*X288500Y108500D01*
Y102500D01*
X287300D02*X289550D01*
X294050Y103250D02*X294800Y102500D01*
X294050Y107750D02*Y103250D01*
Y107750D02*X294800Y108500D01*
X296300D01*
X297050Y107750D01*
Y103250D01*
X296300Y102500D02*X297050Y103250D01*
X294800Y102500D02*X296300D01*
X294050Y104000D02*X297050Y107000D01*
X298850Y103250D02*X299600Y102500D01*
X298850Y104450D02*Y103250D01*
Y104450D02*X299900Y105500D01*
X300800D01*
X301850Y104450D01*
Y103250D01*
X301100Y102500D02*X301850Y103250D01*
X299600Y102500D02*X301100D01*
X298850Y106550D02*X299900Y105500D01*
X298850Y107750D02*Y106550D01*
Y107750D02*X299600Y108500D01*
X301100D01*
X301850Y107750D01*
Y106550D01*
X300800Y105500D02*X301850Y106550D01*
X303650Y106250D02*X304400D01*
X303650Y104750D02*X304400D01*
X306200Y103250D02*X306950Y102500D01*
X306200Y107750D02*Y103250D01*
Y107750D02*X306950Y108500D01*
X308450D01*
X309200Y107750D01*
Y103250D01*
X308450Y102500D02*X309200Y103250D01*
X306950Y102500D02*X308450D01*
X306200Y104000D02*X309200Y107000D01*
X311000Y107300D02*X312200Y108500D01*
Y102500D01*
X311000D02*X313250D01*
X315050Y106250D02*X315800D01*
X315050Y104750D02*X315800D01*
X317600Y107750D02*X318350Y108500D01*
X319850D01*
X320600Y107750D01*
X319850Y102500D02*X320600Y103250D01*
X318350Y102500D02*X319850D01*
X317600Y103250D02*X318350Y102500D01*
Y105800D02*X319850D01*
X320600Y107750D02*Y106550D01*
Y105050D02*Y103250D01*
Y105050D02*X319850Y105800D01*
X320600Y106550D02*X319850Y105800D01*
X322400Y104750D02*X325400Y108500D01*
X322400Y104750D02*X326150D01*
X325400Y108500D02*Y102500D01*
X331400Y108500D02*Y102500D01*
X330650Y108500D02*X333650D01*
X334400Y107750D01*
Y106250D01*
X333650Y105500D02*X334400Y106250D01*
X331400Y105500D02*X333650D01*
X336200Y108500D02*Y102500D01*
Y108500D02*X338450Y105500D01*
X340700Y108500D01*
Y102500D01*
X348200Y108500D02*X348950Y107750D01*
X345950Y108500D02*X348200D01*
X345200Y107750D02*X345950Y108500D01*
X345200Y107750D02*Y103250D01*
X345950Y102500D01*
X348200D01*
X348950Y103250D01*
Y104750D02*Y103250D01*
X348200Y105500D02*X348950Y104750D01*
X346700Y105500D02*X348200D01*
X350750Y108500D02*Y102500D01*
Y108500D02*X353000Y105500D01*
X355250Y108500D01*
Y102500D01*
X357050Y108500D02*X360050D01*
X358550D02*Y102500D01*
X364550Y108500D02*Y103250D01*
X365300Y102500D01*
X366800D01*
X367550Y103250D01*
Y108500D02*Y103250D01*
X369350Y108500D02*X372350D01*
X370850D02*Y102500D01*
X375200D02*X377150D01*
X374150Y103550D02*X375200Y102500D01*
X374150Y107450D02*Y103550D01*
Y107450D02*X375200Y108500D01*
X377150D01*
X200000Y122000D02*Y117500D01*
Y122000D02*X201050Y123500D01*
X202700D01*
X203750Y122000D01*
Y117500D01*
X200000Y120500D02*X203750D01*
X205550D02*Y118250D01*
X206300Y117500D01*
X207800D01*
X208550Y118250D01*
Y120500D02*Y118250D01*
X211100Y123500D02*Y118250D01*
X211850Y117500D01*
X210350Y121250D02*X211850D01*
X213350Y123500D02*Y117500D01*
Y119750D02*X214100Y120500D01*
X215600D01*
X216350Y119750D01*
Y117500D01*
X218150Y119750D02*Y118250D01*
Y119750D02*X218900Y120500D01*
X220400D01*
X221150Y119750D01*
Y118250D01*
X220400Y117500D02*X221150Y118250D01*
X218900Y117500D02*X220400D01*
X218150Y118250D02*X218900Y117500D01*
X223700Y119750D02*Y117500D01*
Y119750D02*X224450Y120500D01*
X225950D01*
X222950D02*X223700Y119750D01*
X227750Y121250D02*X228500D01*
X227750Y119750D02*X228500D01*
X200000Y138500D02*X203000D01*
X201500D02*Y132500D01*
G54D27*X204800Y137000D02*Y136850D01*
G54D26*Y134750D02*Y132500D01*
X207050Y138500D02*Y133250D01*
X207800Y132500D01*
X206300Y136250D02*X207800D01*
X209300Y138500D02*Y133250D01*
X210050Y132500D01*
X212300D02*X214550D01*
X211550Y133250D02*X212300Y132500D01*
X211550Y134750D02*Y133250D01*
Y134750D02*X212300Y135500D01*
X213800D01*
X214550Y134750D01*
X211550Y134000D02*X214550D01*
Y134750D02*Y134000D01*
X216350Y136250D02*X217100D01*
X216350Y134750D02*X217100D01*
X221600Y133250D02*X222350Y132500D01*
X221600Y137750D02*X222350Y138500D01*
X221600Y137750D02*Y133250D01*
X224150Y135500D02*Y133250D01*
X224900Y132500D01*
X226400D01*
X227150Y133250D01*
Y135500D02*Y133250D01*
X229700Y134750D02*Y132500D01*
Y134750D02*X230450Y135500D01*
X231200D01*
X231950Y134750D01*
Y132500D01*
X228950Y135500D02*X229700Y134750D01*
X233750Y138500D02*Y132500D01*
Y134750D02*X236000Y132500D01*
X233750Y134750D02*X235250Y136250D01*
X238550Y134750D02*Y132500D01*
Y134750D02*X239300Y135500D01*
X240050D01*
X240800Y134750D01*
Y132500D01*
X237800Y135500D02*X238550Y134750D01*
X242600D02*Y133250D01*
Y134750D02*X243350Y135500D01*
X244850D01*
X245600Y134750D01*
Y133250D01*
X244850Y132500D02*X245600Y133250D01*
X243350Y132500D02*X244850D01*
X242600Y133250D02*X243350Y132500D01*
X247400Y135500D02*Y133250D01*
X248150Y132500D01*
X248900D01*
X249650Y133250D01*
Y135500D02*Y133250D01*
X250400Y132500D01*
X251150D01*
X251900Y133250D01*
Y135500D02*Y133250D01*
X254450Y134750D02*Y132500D01*
Y134750D02*X255200Y135500D01*
X255950D01*
X256700Y134750D01*
Y132500D01*
X253700Y135500D02*X254450Y134750D01*
X258500Y138500D02*X259250Y137750D01*
Y133250D01*
X258500Y132500D02*X259250Y133250D01*
X263750Y135500D02*X266750D01*
X271250Y138500D02*Y132500D01*
Y138500D02*X274250D01*
X271250Y135800D02*X273500D01*
X278300Y135500D02*X279050Y134750D01*
X276800Y135500D02*X278300D01*
X276050Y134750D02*X276800Y135500D01*
X276050Y134750D02*Y133250D01*
X276800Y132500D01*
X279050Y135500D02*Y133250D01*
X279800Y132500D01*
X276800D02*X278300D01*
X279050Y133250D01*
X281600Y138500D02*Y132500D01*
Y133250D02*X282350Y132500D01*
X283850D01*
X284600Y133250D01*
Y134750D02*Y133250D01*
X283850Y135500D02*X284600Y134750D01*
X282350Y135500D02*X283850D01*
X281600Y134750D02*X282350Y135500D01*
X287150Y134750D02*Y132500D01*
Y134750D02*X287900Y135500D01*
X289400D01*
X286400D02*X287150Y134750D01*
G54D27*X291200Y137000D02*Y136850D01*
G54D26*Y134750D02*Y132500D01*
X293450Y135500D02*X295700D01*
X292700Y134750D02*X293450Y135500D01*
X292700Y134750D02*Y133250D01*
X293450Y132500D01*
X295700D01*
X299750Y135500D02*X300500Y134750D01*
X298250Y135500D02*X299750D01*
X297500Y134750D02*X298250Y135500D01*
X297500Y134750D02*Y133250D01*
X298250Y132500D01*
X300500Y135500D02*Y133250D01*
X301250Y132500D01*
X298250D02*X299750D01*
X300500Y133250D01*
X303800Y138500D02*Y133250D01*
X304550Y132500D01*
X303050Y136250D02*X304550D01*
G54D27*X306050Y137000D02*Y136850D01*
G54D26*Y134750D02*Y132500D01*
X307550Y134750D02*Y133250D01*
Y134750D02*X308300Y135500D01*
X309800D01*
X310550Y134750D01*
Y133250D01*
X309800Y132500D02*X310550Y133250D01*
X308300Y132500D02*X309800D01*
X307550Y133250D02*X308300Y132500D01*
X313100Y134750D02*Y132500D01*
Y134750D02*X313850Y135500D01*
X314600D01*
X315350Y134750D01*
Y132500D01*
X312350Y135500D02*X313100Y134750D01*
X320600Y138500D02*Y132500D01*
X322550Y138500D02*X323600Y137450D01*
Y133550D01*
X322550Y132500D02*X323600Y133550D01*
X319850Y132500D02*X322550D01*
X319850Y138500D02*X322550D01*
X326150Y134750D02*Y132500D01*
Y134750D02*X326900Y135500D01*
X328400D01*
X325400D02*X326150Y134750D01*
X332450Y135500D02*X333200Y134750D01*
X330950Y135500D02*X332450D01*
X330200Y134750D02*X330950Y135500D01*
X330200Y134750D02*Y133250D01*
X330950Y132500D01*
X333200Y135500D02*Y133250D01*
X333950Y132500D01*
X330950D02*X332450D01*
X333200Y133250D01*
X335750Y135500D02*Y133250D01*
X336500Y132500D01*
X337250D01*
X338000Y133250D01*
Y135500D02*Y133250D01*
X338750Y132500D01*
X339500D01*
X340250Y133250D01*
Y135500D02*Y133250D01*
G54D27*X342050Y137000D02*Y136850D01*
G54D26*Y134750D02*Y132500D01*
X344300Y134750D02*Y132500D01*
Y134750D02*X345050Y135500D01*
X345800D01*
X346550Y134750D01*
Y132500D01*
X343550Y135500D02*X344300Y134750D01*
X350600Y135500D02*X351350Y134750D01*
X349100Y135500D02*X350600D01*
X348350Y134750D02*X349100Y135500D01*
X348350Y134750D02*Y133250D01*
X349100Y132500D01*
X350600D01*
X351350Y133250D01*
X348350Y131000D02*X349100Y130250D01*
X350600D01*
X351350Y131000D01*
Y135500D02*Y131000D01*
M02*
