G04 start of page 2 for group 0 idx 0 *
G04 Title: (unknown), component *
G04 Creator: pcb 1.99z *
G04 CreationDate: Wed 21 Dec 2011 08:01:34 PM GMT UTC *
G04 For: dijkstra *
G04 Format: Gerber/RS-274X *
G04 PCB-Dimensions: 135000 80000 *
G04 PCB-Coordinate-Origin: lower left *
%MOIN*%
%FSLAX25Y25*%
%LNTOP*%
%ADD15C,0.0390*%
%ADD14C,0.0935*%
%ADD13C,0.0310*%
%ADD12C,0.0200*%
%ADD11R,0.0200X0.0200*%
G54D11*X13000Y53500D02*X19000D01*
X13000Y48500D02*X19000D01*
X13000Y43500D02*X19000D01*
X13000Y38500D02*X19000D01*
X13000Y33500D02*X19000D01*
X32500Y73000D02*Y67000D01*
X27500Y73000D02*Y67000D01*
X22500Y73000D02*Y67000D01*
X13000Y63500D02*X19000D01*
G54D12*X47500Y73000D02*Y67000D01*
G54D11*X42500Y73000D02*Y67000D01*
X37500Y73000D02*Y67000D01*
X13000Y58500D02*X19000D01*
X57500Y73000D02*Y67000D01*
X52500Y73000D02*Y67000D01*
X13000Y28500D02*X19000D01*
X13000Y23500D02*X19000D01*
X13000Y18500D02*X19000D01*
X13000Y13500D02*X19000D01*
X22500Y10000D02*Y4000D01*
X27500Y10000D02*Y4000D01*
X32500Y10000D02*Y4000D01*
X37500Y10000D02*Y4000D01*
X42500Y10000D02*Y4000D01*
X47500Y10000D02*Y4000D01*
X52500Y10000D02*Y4000D01*
X57500Y10000D02*Y4000D01*
X62500Y10000D02*Y4000D01*
X67500Y10000D02*Y4000D01*
X72500Y10000D02*Y4000D01*
X76000Y13500D02*X82000D01*
G54D13*X110000Y17500D03*
Y22500D03*
X115000D03*
X120000D03*
X115000Y17500D03*
X120000D03*
G54D11*X76000Y18500D02*X82000D01*
X76000Y23500D02*X82000D01*
X76000Y28500D02*X82000D01*
X76000Y33500D02*X82000D01*
X76000Y38500D02*X82000D01*
X76000Y43500D02*X82000D01*
X76000Y48500D02*X82000D01*
X76000Y53500D02*X82000D01*
X76000Y58500D02*X82000D01*
X76000Y63500D02*X82000D01*
X72500Y73000D02*Y67000D01*
X67500Y73000D02*Y67000D01*
X62500Y73000D02*Y67000D01*
G54D13*X110000Y52500D03*
Y57500D03*
X115000Y52500D03*
Y57500D03*
X120000Y52500D03*
Y57500D03*
G54D14*G54D15*G54D14*G54D15*M02*
